<?xml version="1.0" standalone="no"?>
<!DOCTYPE svg PUBLIC "-//W3C//DTD SVG 1.1//EN" "http://www.w3.org/Graphics/SVG/1.1/DTD/svg11.dtd" >
<svg xmlns="http://www.w3.org/2000/svg" xmlns:xlink="http://www.w3.org/1999/xlink" version="1.1">
<metadata>
Created by FontForge 20161013 at Sun Jul 10 10:19:25 2016
 By ,,,
Copyright (c) 2016 Swiss Typefaces Sa`rl. All rights reserved.
</metadata>
<defs>
<font id="EuclidFlex-Bold" horiz-adv-x="597" >
  <font-face 
    font-family="Euclid Flex Bold"
    font-weight="700"
    font-stretch="normal"
    units-per-em="1000"
    panose-1="2 11 8 4 0 0 0 0 0 0"
    ascent="806"
    descent="-194"
    x-height="500"
    cap-height="710"
    bbox="-420 -1029.75 1574 999"
    underline-thickness="100"
    underline-position="-290"
    unicode-range="U+000D-FB02"
  />
<missing-glyph horiz-adv-x="500" 
d="M0 710h500v-710h-500v710zM34 691l216 -321l216 321h-432zM19 682v-654l220 327zM481 28v654l-221 -327zM34 19h432l-216 320z" />
    <glyph glyph-name="uni04070407" unicode="&#x407;&#x407;" horiz-adv-x="608" 
d="M33 760q-33 0 -56.5 23.5t-23.5 56.5t23.5 56.5t56.5 23.5t56.5 -23.5t23.5 -56.5t-23.5 -56.5t-56.5 -23.5zM304 760q-33 0 -56.5 23.5t-23.5 56.5t23.5 56.5t56.5 23.5t56.5 -23.5t23.5 -56.5t-23.5 -56.5t-56.5 -23.5zM575 760q-33 0 -56.5 23.5t-23.5 56.5t23.5 56.5
t56.5 23.5t56.5 -23.5t23.5 -56.5t-23.5 -56.5t-56.5 -23.5zM72 710h160v-710h-160v710zM376 710h160v-710h-160v710z" />
    <glyph glyph-name="uni04570457" unicode="&#x457;&#x457;" horiz-adv-x="540" 
d="M41 547q-33 0 -56.5 23.5t-23.5 56.5t23.5 56.5t56.5 23.5t56.5 -23.5t23.5 -56.5t-23.5 -56.5t-56.5 -23.5zM270 547q-33 0 -56.5 23.5t-23.5 56.5t23.5 56.5t56.5 23.5t56.5 -23.5t23.5 -56.5t-23.5 -56.5t-56.5 -23.5zM499 547q-33 0 -56.5 23.5t-23.5 56.5t23.5 56.5
t56.5 23.5t56.5 -23.5t23.5 -56.5t-23.5 -56.5t-56.5 -23.5zM59 500h152v-500h-152v500zM329 500h152v-500h-152v500z" />
    <glyph glyph-name="f_t" unicode="ft" horiz-adv-x="690" 
d="M232 0h-151v368h-65v132h73q-31 34 -31 83q0 55 37 91t98 36h105v-132h-48q-49 0 -49 -39q0 -16 10 -27t25 -12h128v75l151 75v-150h158l-33 -132h-125v-171q0 -31 13.5 -45t44.5 -14h82v-138h-138q-71 0 -112 41.5t-41 112.5v214h-132v-368z" />
    <glyph glyph-name="t_f" unicode="tf" horiz-adv-x="716" 
d="M-12 500h98v75l151 75v-150h206q-31 34 -31 83q0 55 37 91t98 36h155v-132h-98q-49 0 -49 -39q0 -17 11.5 -28t27.5 -11h108v-132h-116v-368h-151v368h-198v-171q0 -31 13.5 -45t44.5 -14h82v-138h-138q-71 0 -112 41.5t-41 112.5v214h-65z" />
    <glyph glyph-name="t_t" unicode="tt" horiz-adv-x="695" 
d="M237 197q0 -31 13.5 -45t44.5 -14h32v-138h-88q-71 0 -112 41.5t-41 112.5v214h-65l-33 132h98v75l151 75v-150h132v75l151 75v-150h158l-33 -132h-125v-171q0 -31 13.5 -45t44.5 -14h82v-138h-138q-71 0 -112 41.5t-41 112.5v214h-132v-171z" />
    <glyph glyph-name=".notdef" horiz-adv-x="500" 
d="M0 710h500v-710h-500v710zM34 691l216 -321l216 321h-432zM19 682v-654l220 327zM481 28v654l-221 -327zM34 19h432l-216 320z" />
    <glyph glyph-name=".null" horiz-adv-x="0" 
 />
    <glyph glyph-name="nonmarkingreturn" horiz-adv-x="333" 
 />
    <glyph glyph-name="CR" unicode="&#xd;" horiz-adv-x="0" 
 />
    <glyph glyph-name="space" unicode=" " horiz-adv-x="220" 
 />
    <glyph glyph-name="exclam" unicode="!" horiz-adv-x="330" 
d="M89 439v271h152v-271l-30 -184h-92zM57 100q0 51 40 84h136q40 -33 40 -84q0 -45 -31.5 -76.5t-76.5 -31.5t-76.5 31.5t-31.5 76.5z" />
    <glyph glyph-name="quotedbl" unicode="&#x22;" horiz-adv-x="463" 
d="M67 710h127v-298h-127v298zM269 710h127v-298h-127v298z" />
    <glyph glyph-name="numbersign" unicode="#" horiz-adv-x="711" 
d="M367 181h-131l-56 -181h-128l56 181h-83v114h119l37 120h-83v114h119l56 181h128l-56 -181h131l56 181h128l-56 -181h82v-114h-118l-37 -120h83v-114h-119l-56 -181h-128zM272 295h131l37 120h-131z" />
    <glyph glyph-name="dollar" unicode="$" horiz-adv-x="533" 
d="M213 -2q-124 21 -183 133l110 90q56 -88 133 -88q34 0 51 17t17 43q0 24 -18.5 41t-64.5 38l-40 18q-157 70 -157 223q0 75 42.5 128t109.5 70v87h127v-88q62 -16 118 -81l-96 -101q-26 29 -43.5 39t-40.5 10q-32 0 -48.5 -16.5t-16.5 -41.5q0 -26 21.5 -44.5t74.5 -41.5
l38 -17q146 -66 146 -213q0 -79 -40.5 -132.5t-112.5 -70.5v-88h-127v86z" />
    <glyph glyph-name="percent" unicode="%" horiz-adv-x="419" 
d="M75 579q0 56 39 95.5t95 39.5t95.5 -39.5t39.5 -95.5t-39.5 -95t-95.5 -39t-95 39t-39 95zM252 579q0 18 -12.5 30.5t-30.5 12.5t-30.5 -12.5t-12.5 -30.5t12.5 -30.5t30.5 -12.5t30.5 12.5t12.5 30.5zM55 412h309v-114h-309v114zM75 130q0 56 39 95.5t95 39.5
t95.5 -39.5t39.5 -95.5t-39.5 -95t-95.5 -39t-95 39t-39 95zM252 130q0 18 -12.5 30.5t-30.5 12.5t-30.5 -12.5t-12.5 -30.5t12.5 -30.5t30.5 -12.5t30.5 12.5t12.5 30.5z" />
    <glyph glyph-name="ampersand" unicode="&#x26;" horiz-adv-x="616" 
d="M20 220q0 89 60.5 154.5t148.5 73.5l-128 262h405v-132h-173l283 -578h-168l-36 73q-54 -81 -164 -81q-94 0 -161 67t-67 161zM330 220q0 35 -24 60t-58 25t-58 -25t-24 -60t24 -60t58 -25t58 25t24 60z" />
    <glyph glyph-name="quotesingle" unicode="'" horiz-adv-x="261" 
d="M67 710h127v-298h-127v298z" />
    <glyph glyph-name="parenleft" unicode="(" horiz-adv-x="282" 
d="M55 300q0 262 110 464l111 -49q-94 -221 -94 -415t94 -415l-111 -49q-110 202 -110 464z" />
    <glyph glyph-name="parenright" unicode=")" horiz-adv-x="282" 
d="M227 300q0 262 -110 464l-111 -49q94 -221 94 -415t-94 -415l111 -49q110 202 110 464z" />
    <glyph glyph-name="asterisk" unicode="*" horiz-adv-x="496" 
d="M77 343l88 120l-142 46l32 98l142 -46v149h103v-149l141 47l32 -98l-141 -47l88 -120l-83 -60l-88 119l-89 -119z" />
    <glyph glyph-name="plus" unicode="+" horiz-adv-x="590" 
d="M77 339h161v161h114v-161h161v-114h-161v-161h-114v161h-161v114z" />
    <glyph glyph-name="comma" unicode="," horiz-adv-x="308" 
d="M134 0h-67v174h174v-174l-64 -154h-87z" />
    <glyph glyph-name="hyphen" unicode="-" horiz-adv-x="370" 
d="M43 354h284v-144h-284v144z" />
    <glyph glyph-name="period" unicode="." horiz-adv-x="330" 
d="M57 100q0 45 31.5 76.5t76.5 31.5t76.5 -31.5t31.5 -76.5t-31.5 -76.5t-76.5 -31.5t-76.5 31.5t-31.5 76.5z" />
    <glyph glyph-name="slash" unicode="/" horiz-adv-x="467" 
d="M331 710h136l-331 -710h-136z" />
    <glyph glyph-name="zero" unicode="0" horiz-adv-x="810" 
d="M39 355q0 150 108 256.5t258 106.5t258 -106.5t108 -256.5t-108 -256.5t-258 -106.5t-258 106.5t-108 256.5zM619 355q0 93 -60.5 157.5t-153.5 64.5t-153.5 -64.5t-60.5 -157.5t60.5 -157.5t153.5 -64.5t153.5 64.5t60.5 157.5z" />
    <glyph glyph-name="one" unicode="1" horiz-adv-x="306" 
d="M77 566l152 152v-718h-152v566z" />
    <glyph glyph-name="two" unicode="2" horiz-adv-x="580" 
d="M218 269q-72 23 -118 83t-46 137q0 95 69 162t166 67t166.5 -67t69.5 -162q0 -81 -54 -146l-163 -202h216v-141h-524zM373 489q0 37 -23.5 62.5t-60.5 25.5t-60 -25.5t-23 -62.5t23 -63t60 -26t60.5 26t23.5 63z" />
    <glyph glyph-name="three" unicode="3" horiz-adv-x="519" 
d="M15 92l107 99q39 -58 100 -58q50 0 79 29t29 78t-29 78t-79 29h-72l105 222h-207v141h429l-118 -250q59 -30 91.5 -87t32.5 -133q0 -112 -69 -180t-182 -68q-67 0 -124 26.5t-93 73.5z" />
    <glyph glyph-name="four" unicode="4" horiz-adv-x="589" 
d="M341 160h-356l508 558v-426h66v-132h-66v-160h-152v160zM341 292v85l-78 -85h78z" />
    <glyph glyph-name="five" unicode="5" horiz-adv-x="546" 
d="M50 92l110 102q40 -61 97 -61q44 0 70.5 28t26.5 68t-26.5 68t-70.5 28q-67 0 -90 -59l-98 41v403h387v-141h-235v-106q22 3 46 3q108 0 174 -64.5t66 -172.5t-66 -172.5t-174 -64.5q-68 0 -125 26.5t-92 73.5z" />
    <glyph glyph-name="six" unicode="6" horiz-adv-x="535" 
d="M17 229q0 56 45 138l187 343h169l-134 -245q100 -6 165.5 -73t65.5 -163q0 -101 -71.5 -169t-177.5 -68t-177.5 68t-71.5 169zM169 229q0 -40 26.5 -68t70.5 -28t70.5 28t26.5 68t-26.5 68t-70.5 28t-70.5 -28t-26.5 -68z" />
    <glyph glyph-name="seven" unicode="7" horiz-adv-x="520" 
d="M299 569h-264v141h492l-322 -710h-164z" />
    <glyph glyph-name="eight" unicode="8" horiz-adv-x="568" 
d="M35 229q0 116 93 179q-40 48 -40 113q0 82 57 139.5t139 57.5t139 -57.5t57 -139.5q0 -65 -40 -113q93 -64 93 -179q0 -101 -71.5 -169t-177.5 -68t-177.5 68t-71.5 169zM338 521q0 23 -14.5 39.5t-39.5 16.5t-39.5 -16.5t-14.5 -39.5t14.5 -39.5t39.5 -16.5t39.5 16.5
t14.5 39.5zM381 229q0 40 -26.5 68t-70.5 28t-70.5 -28t-26.5 -68t26.5 -68t70.5 -28t70.5 28t26.5 68z" />
    <glyph glyph-name="nine" unicode="9" horiz-adv-x="535" 
d="M250 245q-100 6 -165 73t-65 163q0 101 71.5 169t177.5 68t177.5 -68t71.5 -169q0 -56 -45 -138l-187 -343h-169zM366 481q0 40 -26.5 68t-70.5 28t-70.5 -28t-26.5 -68t26.5 -68t70.5 -28t70.5 28t26.5 68z" />
    <glyph glyph-name="colon" unicode=":" horiz-adv-x="330" 
d="M57 400q0 45 31.5 76.5t76.5 31.5t76.5 -31.5t31.5 -76.5t-31.5 -76.5t-76.5 -31.5t-76.5 31.5t-31.5 76.5zM57 100q0 45 31.5 76.5t76.5 31.5t76.5 -31.5t31.5 -76.5t-31.5 -76.5t-76.5 -31.5t-76.5 31.5t-31.5 76.5z" />
    <glyph glyph-name="semicolon" unicode=";" horiz-adv-x="330" 
d="M57 400q0 45 31.5 76.5t76.5 31.5t76.5 -31.5t31.5 -76.5t-31.5 -76.5t-76.5 -31.5t-76.5 31.5t-31.5 76.5zM145 0h-67v174h174v-174l-64 -154h-87z" />
    <glyph glyph-name="less" unicode="&#x3c;" horiz-adv-x="460" 
d="M35 283l289 291l85 -85l-205 -206l205 -206l-85 -85z" />
    <glyph glyph-name="equal" unicode="=" horiz-adv-x="590" 
d="M77 442h436v-114h-436v114zM77 236h436v-114h-436v114z" />
    <glyph glyph-name="greater" unicode="&#x3e;" horiz-adv-x="460" 
d="M51 77l205 206l-205 206l85 85l289 -291l-289 -291z" />
    <glyph glyph-name="question" unicode="?" horiz-adv-x="489" 
d="M159 396h67q44 0 71.5 22.5t27.5 67.5q0 44 -25 67.5t-58 23.5t-56.5 -23.5t-23.5 -67.5h-152q0 97 66.5 164.5t165.5 67.5t167 -67.5t68 -164.5q0 -98 -70.5 -164.5t-180.5 -66.5h-67v141zM114 100q0 52 40 84h136q40 -33 40 -84q0 -45 -31.5 -76.5t-76.5 -31.5
t-76.5 31.5t-31.5 76.5z" />
    <glyph glyph-name="at" unicode="@" horiz-adv-x="799" 
d="M34 337q0 167 114 274t273 107q150 0 247 -85.5t97 -226.5q0 -122 -53.5 -182.5t-130.5 -60.5q-33 0 -59.5 14t-38.5 37q-51 -49 -123 -49q-79 0 -122.5 49t-43.5 123q0 92 61 155.5t156 63.5q53 0 90 -27l4 17h95l-47 -220q-16 -79 44 -79q84 0 84 161q0 111 -75 170
t-186 59q-123 0 -210.5 -80.5t-87.5 -219.5q0 -119 70.5 -190t190.5 -71q97 0 176 41l33 -81q-97 -44 -209 -44q-158 0 -253.5 98.5t-95.5 246.5zM449 287l32 148q-27 28 -69 28q-49 0 -81.5 -34t-32.5 -84q0 -40 19.5 -63t58.5 -23q45 0 73 28z" />
    <glyph glyph-name="A" unicode="A" horiz-adv-x="680" 
d="M340 718l350 -718h-168l-51 110h-262l-51 -110h-168zM407 240l-67 148l-67 -148h134z" />
    <glyph glyph-name="B" unicode="B" horiz-adv-x="621" 
d="M67 710h267q87 0 149 -62t62 -149q0 -72 -50 -122q46 -25 73 -68t27 -98q0 -88 -62.5 -149.5t-152.5 -61.5h-313v710zM316 423q32 0 53 20t21 50t-21 50.5t-53 20.5h-89v-141h89zM365 147q32 0 53 20t21 50t-21 50.5t-53 20.5h-138v-141h138z" />
    <glyph glyph-name="C" unicode="C" horiz-adv-x="709" 
d="M34 355q0 150 106.5 256.5t256.5 106.5q90 0 168.5 -41.5t128.5 -112.5l-121 -99q-28 45 -74.5 72t-101.5 27q-85 0 -143.5 -61.5t-58.5 -147.5t58.5 -147.5t143.5 -61.5q55 0 101.5 27t74.5 72l121 -99q-50 -71 -128.5 -112.5t-168.5 -41.5q-150 0 -256.5 106.5
t-106.5 256.5z" />
    <glyph glyph-name="D" unicode="D" horiz-adv-x="711" 
d="M67 710h249q150 0 255.5 -104t105.5 -251t-105.5 -251t-255.5 -104h-249v710zM316 146q88 0 144 61t56 148t-56 148t-144 61h-89v-418h89z" />
    <glyph glyph-name="E" unicode="E" horiz-adv-x="547" 
d="M67 710h440v-158h-280v-120h220v-154h-220v-120h280v-158h-440v710z" />
    <glyph glyph-name="F" unicode="F" horiz-adv-x="517" 
d="M67 710h420v-158h-260v-120h200v-154h-200v-278h-160v710z" />
    <glyph glyph-name="G" unicode="G" horiz-adv-x="729" 
d="M34 355q0 150 106.5 256.5t256.5 106.5q178 0 287 -134l-121 -99q-33 41 -71.5 60t-94.5 19q-85 0 -143.5 -61.5t-58.5 -147.5t58.5 -147.5t143.5 -61.5q88 0 137 35v99h-171l68 150h258v-322q-101 -116 -292 -116q-150 0 -256.5 106.5t-106.5 256.5z" />
    <glyph glyph-name="H" unicode="H" horiz-adv-x="738" 
d="M67 710h160v-278h284v278h160v-710h-160v278h-284v-278h-160v710z" />
    <glyph glyph-name="I" unicode="I" horiz-adv-x="294" 
d="M67 710h160v-710h-160v710z" />
    <glyph glyph-name="J" unicode="J" horiz-adv-x="507" 
d="M10 212h160q0 -71 60 -71t60 71v498h160v-508q0 -106 -61.5 -158t-158.5 -52t-158.5 55t-61.5 165z" />
    <glyph glyph-name="K" unicode="K" horiz-adv-x="671" 
d="M67 710h160v-356l248 356h184l-249 -358l281 -352h-198l-266 333v-333h-160v710z" />
    <glyph glyph-name="L" unicode="L" horiz-adv-x="518" 
d="M67 710h160v-551h276v-159h-436v710z" />
    <glyph glyph-name="M" unicode="M" horiz-adv-x="842" 
d="M67 718l354 -355l354 355v-718h-160v348l-194 -194l-194 194v-348h-160v718z" />
    <glyph glyph-name="N" unicode="N" horiz-adv-x="742" 
d="M227 371v-371h-160v718l448 -379v371h160v-718z" />
    <glyph glyph-name="O" unicode="O" horiz-adv-x="794" 
d="M34 355q0 150 106.5 256.5t256.5 106.5t256.5 -106.5t106.5 -256.5t-106.5 -256.5t-256.5 -106.5t-256.5 106.5t-106.5 256.5zM599 355q0 86 -58.5 147.5t-143.5 61.5t-143.5 -61.5t-58.5 -147.5t58.5 -147.5t143.5 -61.5t143.5 61.5t58.5 147.5z" />
    <glyph glyph-name="P" unicode="P" horiz-adv-x="557" 
d="M67 710h234q103 0 173 -70t70 -171t-70 -171t-173 -70h-74v-228h-160v710zM299 377q38 0 64 27.5t26 64.5t-26 64t-64 27h-72v-183h72z" />
    <glyph glyph-name="Q" unicode="Q" horiz-adv-x="814" 
d="M627 74q-99 -82 -230 -82q-150 0 -256.5 106.5t-106.5 256.5t106.5 256.5t256.5 106.5t256.5 -106.5t106.5 -256.5q0 -91 -42 -170l101 -81l-91 -112zM502 175l-108 88l91 111l104 -84q10 33 10 65q0 86 -58.5 147.5t-143.5 61.5t-143.5 -61.5t-58.5 -147.5t58.5 -147.5
t143.5 -61.5q59 0 105 29z" />
    <glyph glyph-name="R" unicode="R" horiz-adv-x="625" 
d="M229 288h-2v-288h-160v710h268q87 0 149 -62t62 -149q0 -66 -37.5 -120t-99.5 -78l231 -301h-191zM317 423q32 0 53 20t21 50t-21 50.5t-53 20.5h-90v-141h90z" />
    <glyph glyph-name="S" unicode="S" horiz-adv-x="520" 
d="M17 131l121 99q24 -38 59.5 -63t71.5 -25q68 0 68 51q0 24 -18.5 41t-64.5 38l-40 18q-80 36 -123 93.5t-43 129.5q0 90 64 147.5t152 57.5q63 0 109.5 -19.5t89.5 -69.5l-108 -114q-26 32 -45.5 42.5t-45.5 10.5q-22 0 -38.5 -13t-16.5 -36q0 -26 21.5 -44.5t74.5 -41.5
l38 -17q155 -70 155 -213q0 -95 -63 -153t-163 -58q-87 0 -153 35.5t-102 103.5z" />
    <glyph glyph-name="T" unicode="T" horiz-adv-x="539" 
d="M189 552h-170v158h501v-158h-171v-552h-160v552z" />
    <glyph glyph-name="U" unicode="U" horiz-adv-x="702" 
d="M60 288v422h160v-424q0 -64 36 -102t95 -38t95 38t36 102v424h160v-422q0 -133 -81.5 -214.5t-209.5 -81.5t-209.5 81.5t-81.5 214.5z" />
    <glyph glyph-name="V" unicode="V" horiz-adv-x="650" 
d="M-10 710h178l157 -355l157 355h178l-335 -718z" />
    <glyph glyph-name="W" unicode="W" horiz-adv-x="876" 
d="M5 710h163l110 -333l160 341l160 -341l110 333h163l-246 -718l-187 409l-187 -409z" />
    <glyph glyph-name="X" unicode="X" horiz-adv-x="674" 
d="M224 356l-209 354h185l137 -236l137 236h185l-209 -354l224 -356h-186l-151 244l-151 -244h-186z" />
    <glyph glyph-name="Y" unicode="Y" horiz-adv-x="656" 
d="M248 298l-263 412h187l156 -252l156 252h187l-263 -412v-298h-160v298z" />
    <glyph glyph-name="Z" unicode="Z" horiz-adv-x="624" 
d="M337 552h-287v158h560l-329 -552h308v-158h-581z" />
    <glyph glyph-name="bracketleft" unicode="[" horiz-adv-x="290" 
d="M59 759h231v-108h-104v-702h104v-108h-231v918z" />
    <glyph glyph-name="backslash" unicode="\" horiz-adv-x="467" 
d="M0 710h136l331 -710h-136z" />
    <glyph glyph-name="bracketright" unicode="]" horiz-adv-x="290" 
d="M231 759h-231v-108h104v-702h-104v-108h231v918z" />
    <glyph glyph-name="asciicircum" unicode="^" horiz-adv-x="582" 
d="M291 718l278 -417h-137l-141 211l-141 -211h-137z" />
    <glyph glyph-name="underscore" unicode="_" horiz-adv-x="436" 
d="M0 0h436v-114h-436v114z" />
    <glyph glyph-name="grave" unicode="`" horiz-adv-x="433" 
d="M80 710h173l80 -155h-110z" />
    <glyph glyph-name="a" unicode="a" horiz-adv-x="594" 
d="M384 29q-45 -37 -110 -37q-108 0 -175 76t-67 182t67 182t175 76q64 0 110 -38v30h151v-500h-151v29zM384 171v157q-33 42 -85 42t-83.5 -34.5t-31.5 -85.5t31.5 -85.5t83.5 -34.5q53 0 85 41z" />
    <glyph glyph-name="b" unicode="b" horiz-adv-x="594" 
d="M59 710h151v-240q46 38 110 38q108 0 175 -76t67 -182t-67 -182t-175 -76q-65 0 -110 37v-29h-151v710zM210 328v-157q30 -41 85 -41q52 0 83.5 34.5t31.5 85.5t-31.5 85.5t-83.5 34.5q-54 0 -85 -42z" />
    <glyph glyph-name="c" unicode="c" horiz-adv-x="522" 
d="M30 250q0 107 76 182.5t184 75.5q68 0 126 -32t93 -86l-120 -85q-34 62 -99 62q-47 0 -77.5 -33t-30.5 -84t30.5 -84t77.5 -33q65 0 99 62l120 -85q-35 -54 -93 -86t-126 -32q-108 0 -184 75.5t-76 182.5z" />
    <glyph glyph-name="d" unicode="d" horiz-adv-x="594" 
d="M384 29q-45 -37 -110 -37q-108 0 -175 76t-67 182t67 182t175 76q64 0 110 -38v240h151v-710h-151v29zM384 171v157q-33 42 -85 42t-83.5 -34.5t-31.5 -85.5t31.5 -85.5t83.5 -34.5q53 0 85 41z" />
    <glyph glyph-name="e" unicode="e" horiz-adv-x="558" 
d="M30 250q0 111 72 184.5t186 73.5q101 0 171 -64t70 -177q0 -21 -3 -44h-351q5 -46 37.5 -69.5t71.5 -23.5q73 0 107 63l120 -81q-35 -55 -94 -87.5t-132 -32.5q-103 0 -179 73t-76 185zM176 311h204q-6 38 -34 57t-67 19q-33 0 -63.5 -17.5t-39.5 -58.5z" />
    <glyph glyph-name="f" unicode="f" horiz-adv-x="362" 
d="M16 500h73q-31 34 -31 83q0 55 37 91t98 36h155v-132h-98q-49 0 -49 -39q0 -17 11.5 -28t27.5 -11h108v-132h-116v-368h-151v368h-65v132z" />
    <glyph glyph-name="g" unicode="g" horiz-adv-x="583" 
d="M57 -138l68 133q66 -51 147 -51q50 0 82 19t32 61q0 24 -13 42q-46 -38 -111 -38q-108 0 -172 71.5t-64 168.5t64 168.5t172 71.5q64 0 110 -38v30h151v-403q21 -49 21 -98q0 -67 -39.5 -112t-96 -63t-126.5 -18q-139 0 -225 56zM372 208v120q-34 42 -90 42
q-48 0 -76 -30.5t-28 -71.5t28 -71.5t76 -30.5q56 0 90 42z" />
    <glyph glyph-name="h" unicode="h" 
d="M59 710h151v-241q47 39 115 39q104 0 161 -62.5t57 -166.5v-279h-151v252q0 54 -22.5 86t-69.5 32q-52 0 -90 -43v-327h-151v710z" />
    <glyph glyph-name="i" unicode="i" horiz-adv-x="270" 
d="M45 628q0 38 26.5 64t63.5 26t63.5 -26t26.5 -64q0 -34 -20 -57h-140q-20 23 -20 57zM59 500h151v-500h-151v500z" />
    <glyph glyph-name="j" unicode="j" horiz-adv-x="270" 
d="M45 628q0 38 26.5 64t63.5 26t63.5 -26t26.5 -64q0 -34 -20 -57h-140q-20 23 -20 57zM-45 -41h26q39 0 59 13t20 47v481h151v-500q0 -89 -59.5 -136.5t-161.5 -47.5h-35v143z" />
    <glyph glyph-name="k" unicode="k" horiz-adv-x="561" 
d="M59 710h151v-438l163 228h174l-170 -237l196 -263h-178l-185 249v-249h-151v710z" />
    <glyph glyph-name="l" unicode="l" horiz-adv-x="269" 
d="M59 710h151v-710h-151v710z" />
    <glyph glyph-name="m" unicode="m" horiz-adv-x="890" 
d="M685 252q0 117 -79 117q-54 0 -87 -44q4 -30 4 -46v-279h-151v252q0 117 -79 117q-51 0 -83 -40v-329h-151v500h151v-30q48 38 114 38q86 0 142 -61q61 61 160 61q106 0 158 -64t52 -165v-279h-151v252z" />
    <glyph glyph-name="n" unicode="n" 
d="M59 500h151v-31q47 39 115 39q104 0 161 -62.5t57 -166.5v-279h-151v252q0 54 -22.5 86t-69.5 32q-52 0 -90 -43v-327h-151v500z" />
    <glyph glyph-name="o" unicode="o" horiz-adv-x="580" 
d="M30 250q0 107 76 182.5t184 75.5t184 -75.5t76 -182.5t-76 -182.5t-184 -75.5t-184 75.5t-76 182.5zM398 250q0 51 -30.5 84t-77.5 33t-77.5 -33t-30.5 -84t30.5 -84t77.5 -33t77.5 33t30.5 84z" />
    <glyph glyph-name="p" unicode="p" horiz-adv-x="594" 
d="M59 500h151v-30q46 38 110 38q108 0 175 -76t67 -182t-67 -182t-175 -76q-65 0 -110 37v-213h-151v684zM210 328v-157q30 -41 85 -41q52 0 83.5 34.5t31.5 85.5t-31.5 85.5t-83.5 34.5q-54 0 -85 -42z" />
    <glyph glyph-name="q" unicode="q" horiz-adv-x="594" 
d="M384 29q-45 -37 -110 -37q-108 0 -175 76t-67 182t67 182t175 76q64 0 110 -38v30h151v-684h-151v213zM384 171v157q-33 42 -85 42t-83.5 -34.5t-31.5 -85.5t31.5 -85.5t83.5 -34.5q53 0 85 41z" />
    <glyph glyph-name="r" unicode="r" horiz-adv-x="392" 
d="M59 500h151v-44q43 52 114 52q29 0 54 -8v-157q-33 17 -77 17q-53 0 -91 -33v-327h-151v500z" />
    <glyph glyph-name="s" unicode="s" horiz-adv-x="415" 
d="M6 98l115 78q34 -61 92 -61q39 0 39 23q0 13 -11.5 21t-51.5 23l-26 10q-132 52 -132 161q0 68 49.5 111.5t122.5 43.5q103 0 158 -79l-86 -85q-32 45 -72 45q-36 0 -36 -23q0 -14 12 -21.5t54 -23.5l21 -8q70 -27 102 -66.5t32 -95.5q0 -74 -51 -116.5t-130 -42.5
q-140 0 -201 106z" />
    <glyph glyph-name="t" unicode="t" horiz-adv-x="412" 
d="M-12 500h98v75l151 75v-150h158l-33 -132h-125v-171q0 -31 13.5 -45t44.5 -14h82v-138h-138q-71 0 -112 41.5t-41 112.5v214h-65z" />
    <glyph glyph-name="u" unicode="u" 
d="M387 37q-48 -45 -119 -45q-100 0 -157 62.5t-57 166.5v279h151v-252q0 -53 22.5 -85.5t65.5 -32.5q63 0 94 50v320h151v-500h-151v37z" />
    <glyph glyph-name="v" unicode="v" horiz-adv-x="552" 
d="M-15 500h174l117 -218l117 218h174l-291 -508z" />
    <glyph glyph-name="w" unicode="w" horiz-adv-x="730" 
d="M0 500h159l83 -281l123 289l123 -289l83 281h159l-159 -500h-115l-91 205l-91 -205h-115z" />
    <glyph glyph-name="x" unicode="x" horiz-adv-x="550" 
d="M177 252l-171 248h175l94 -143l94 143h175l-171 -248l180 -252h-175l-103 150l-103 -150h-175z" />
    <glyph glyph-name="y" unicode="y" horiz-adv-x="518" 
d="M179 0l-184 500h160l104 -316l104 316h160l-252 -684h-160z" />
    <glyph glyph-name="z" unicode="z" horiz-adv-x="513" 
d="M244 370h-202v130h454l-231 -369h216v-131h-469z" />
    <glyph glyph-name="braceleft" unicode="{" horiz-adv-x="322" 
d="M91 -17v210q0 53 -53 53h-8v108h8q53 0 53 53v210q0 65 38.5 103.5t103.5 38.5h89v-108h-47q-31 0 -44 -13t-13 -44v-196q0 -82 -62 -98q62 -16 62 -98v-196q0 -31 13 -44t44 -13h47v-108h-83q-65 0 -106.5 39t-41.5 103z" />
    <glyph glyph-name="bar" unicode="|" horiz-adv-x="281" 
d="M77 710h127v-894h-127v894z" />
    <glyph glyph-name="braceright" unicode="}" horiz-adv-x="322" 
d="M231 -17v210q0 53 53 53h8v108h-8q-53 0 -53 53v210q0 65 -38.5 103.5t-103.5 38.5h-89v-108h47q31 0 44 -13t13 -44v-196q0 -82 62 -98q-62 -16 -62 -98v-196q0 -31 -13 -44t-44 -13h-47v-108h83q65 0 106.5 39t41.5 103z" />
    <glyph glyph-name="asciitilde" unicode="~" horiz-adv-x="590" 
d="M77 313l137 84l162 -94l137 83v-135l-137 -84l-162 94l-137 -83v135z" />
    <glyph glyph-name="uni00A0" unicode="&#xa0;" horiz-adv-x="220" 
 />
    <glyph glyph-name="exclamdown" unicode="&#xa1;" horiz-adv-x="330" 
d="M57 400q0 45 31.5 76.5t76.5 31.5t76.5 -31.5t31.5 -76.5q0 -51 -40 -84h-136q-40 33 -40 84zM89 61l30 184h92l30 -184v-245h-152v245z" />
    <glyph glyph-name="cent" unicode="&#xa2;" horiz-adv-x="553" 
d="M239 0q-85 21 -140.5 91t-55.5 159t55 158.5t141 91.5v88h127v-88q101 -25 156 -110l-120 -85q-34 62 -99 62q-47 0 -77.5 -33t-30.5 -84t30.5 -84t77.5 -33q65 0 99 62l120 -85q-56 -87 -156 -110v-88h-127v88z" />
    <glyph glyph-name="sterling" unicode="&#xa3;" horiz-adv-x="606" 
d="M60 413h64q-16 33 -16 82q0 87 67.5 155t163.5 68q94 0 161 -65t71 -158h-152q0 36 -23 59t-57 23t-56.5 -23t-22.5 -59t22.5 -59t56.5 -23h80v-117h-131v-155h283v-141h-511v141h76v155h-76v117z" />
    <glyph glyph-name="currency" unicode="&#xa4;" horiz-adv-x="648" 
d="M60 138l69 70q-44 61 -44 138q0 78 44 139l-69 70l49 49l68 -68q63 49 144 49q83 0 147 -51l71 70l49 -49l-72 -72q44 -64 44 -137q0 -76 -44 -137l72 -71l-49 -49l-71 70q-65 -49 -147 -49q-79 0 -143 48l-69 -69zM426 346q0 49 -29 79.5t-76 30.5q-44 0 -72 -30.5
t-28 -79.5q0 -47 28 -76.5t72 -29.5q47 0 76 29.5t29 76.5z" />
    <glyph glyph-name="yen" unicode="&#xa5;" horiz-adv-x="684" 
d="M89 412h104l-190 298h179l159 -258l161 258h179l-190 -298h104v-114h-177v-77h177v-114h-177v-107h-152v107h-177v114h177v77h-177v114z" />
    <glyph glyph-name="brokenbar" unicode="&#xa6;" horiz-adv-x="281" 
d="M77 710h127v-383h-127v383zM77 200h127v-384h-127v384z" />
    <glyph glyph-name="section" unicode="&#xa7;" horiz-adv-x="460" 
d="M58 -88l99 67q17 -34 34 -49.5t44 -15.5q20 0 34 13.5t14 36.5q0 34 -26 62.5t-113 78.5q-42 23 -67.5 65t-25.5 92q0 86 68 141q-41 38 -55 74t-14 82q0 73 51.5 116t124.5 43q126 0 176 -106l-99 -67q-17 34 -34 49.5t-44 15.5q-20 0 -34 -13.5t-14 -36.5
q0 -34 26 -62.5t113 -78.5q42 -23 67.5 -65t25.5 -92q0 -86 -68 -141q41 -38 55 -74t14 -82q0 -73 -51.5 -116t-124.5 -43q-126 0 -176 106zM284 262q0 22 -16 38t-38 16t-38 -16t-16 -38t16 -38t38 -16t38 16t16 38z" />
    <glyph glyph-name="dieresis" unicode="&#xa8;" horiz-adv-x="578" 
d="M90 647q0 33 23.5 56.5t56.5 23.5t56.5 -23.5t23.5 -56.5t-23.5 -56.5t-56.5 -23.5t-56.5 23.5t-23.5 56.5zM328 647q0 33 23.5 56.5t56.5 23.5t56.5 -23.5t23.5 -56.5t-23.5 -56.5t-56.5 -23.5t-56.5 23.5t-23.5 56.5z" />
    <glyph glyph-name="copyright" unicode="&#xa9;" horiz-adv-x="794" 
d="M34 355q0 150 106.5 256.5t256.5 106.5t256.5 -106.5t106.5 -256.5t-106.5 -256.5t-256.5 -106.5t-256.5 106.5t-106.5 256.5zM655 355q0 107 -75.5 182.5t-182.5 75.5t-182.5 -75.5t-75.5 -182.5t75.5 -182.5t182.5 -75.5t182.5 75.5t75.5 182.5zM550 264
q-23 -37 -61.5 -58.5t-82.5 -21.5q-70 0 -120.5 50t-50.5 121t50.5 121t120.5 50q44 0 82.5 -21.5t61.5 -58.5l-75 -53q-22 45 -69 45q-33 0 -55 -24.5t-22 -58.5t22 -58.5t55 -24.5q47 0 70 44z" />
    <glyph glyph-name="ordfeminine" unicode="&#xaa;" horiz-adv-x="353" 
d="M226 692v18h94v-300h-94v17q-25 -22 -66 -22q-64 0 -103 46t-39 109t39 109t103 46q42 0 66 -23zM180 495q27 0 41 17v95q-15 18 -41 18q-30 0 -46.5 -18.5t-16.5 -46.5t16.5 -46.5t46.5 -18.5z" />
    <glyph glyph-name="guillemotleft" unicode="&#xab;" horiz-adv-x="575" 
d="M34 250l164 241l100 -68l-118 -173l118 -173l-100 -68zM269 250l164 241l100 -68l-118 -173l118 -173l-100 -68z" />
    <glyph glyph-name="logicalnot" unicode="&#xac;" horiz-adv-x="590" 
d="M399 225h-322v114h436v-295h-114v181z" />
    <glyph glyph-name="uni00AD" unicode="&#xad;" horiz-adv-x="370" 
d="M43 354h284v-144h-284v144z" />
    <glyph glyph-name="registered" unicode="&#xae;" horiz-adv-x="794" 
d="M34 355q0 150 106.5 256.5t256.5 106.5t256.5 -106.5t106.5 -256.5t-106.5 -256.5t-256.5 -106.5t-256.5 106.5t-106.5 256.5zM655 355q0 107 -75.5 182.5t-182.5 75.5t-182.5 -75.5t-75.5 -182.5t75.5 -182.5t182.5 -75.5t182.5 75.5t75.5 182.5zM375 317v-130h-90v336
h130q44 0 73.5 -30t29.5 -73q0 -63 -54 -91l87 -142h-97zM404 390q12 0 19 7.5t7 18.5t-6.5 18.5t-18.5 7.5h-32v-52h31z" />
    <glyph glyph-name="macron" unicode="&#xaf;" horiz-adv-x="494" 
d="M82 675h330v-96h-330v96z" />
    <glyph glyph-name="degree" unicode="&#xb0;" horiz-adv-x="314" 
d="M35 592q0 50 36 86t86 36t86 -36t36 -86t-36 -86t-86 -36t-86 36t-36 86zM202 592q0 19 -13 32t-32 13t-32 -13t-13 -32t13 -32t32 -13t32 13t13 32z" />
    <glyph glyph-name="plusminus" unicode="&#xb1;" horiz-adv-x="590" 
d="M77 389h161v111h114v-111h161v-114h-161v-111h-114v111h-161v114zM77 114h436v-114h-436v114z" />
    <glyph glyph-name="uni00B2" unicode="&#xb2;" horiz-adv-x="351" 
d="M121 568q-40 18 -65 53.5t-25 79.5q0 58 42.5 99t100.5 41t101 -41t43 -99q0 -43 -23 -75l-98 -124h121v-92h-322zM218 701q0 19 -12 33t-32 14q-19 0 -31 -14t-12 -33t12 -33t31 -14q20 0 32 14t12 33z" />
    <glyph glyph-name="uni00B3" unicode="&#xb3;" horiz-adv-x="312" 
d="M7 465l70 66q21 -33 55 -33q28 0 43 15.5t15 42.5q1 27 -14.5 42.5t-42.5 15.5h-45l58 130h-119v92h264l-66 -148q66 -42 66 -132q0 -69 -41.5 -110t-110.5 -41q-83 0 -132 60z" />
    <glyph glyph-name="acute" unicode="&#xb4;" horiz-adv-x="433" 
d="M180 710h173l-143 -155h-110z" />
    <glyph glyph-name="uni00B5" unicode="&#xb5;" horiz-adv-x="602" 
d="M392 37q-48 -45 -119 -45q-33 0 -63 8v-184h-151v684h151v-262q0 -49 23 -78.5t65 -29.5q63 0 94 50v320h151v-500h-151v37z" />
    <glyph glyph-name="paragraph" unicode="&#xb6;" horiz-adv-x="671" 
d="M255 260q-93 0 -159 66t-66 159t66 159t159 66h339v-894h-127v762h-85v-762h-127v444z" />
    <glyph glyph-name="periodcentered" unicode="&#xb7;" horiz-adv-x="330" 
d="M57 282q0 45 31.5 76.5t76.5 31.5t76.5 -31.5t31.5 -76.5t-31.5 -76.5t-76.5 -31.5t-76.5 31.5t-31.5 76.5z" />
    <glyph glyph-name="cedilla" unicode="&#xb8;" horiz-adv-x="352" 
d="M142 0h102l-34 -134h-127z" />
    <glyph glyph-name="uni00B9" unicode="&#xb9;" horiz-adv-x="186" 
d="M43 740l100 99v-429h-100v330z" />
    <glyph glyph-name="ordmasculine" unicode="&#xba;" horiz-adv-x="344" 
d="M16 560q0 63 46 109t110 46t110 -46t46 -109t-46 -109t-110 -46t-110 46t-46 109zM229 560q0 28 -16 45.5t-41 17.5q-24 0 -40.5 -17.5t-16.5 -45.5t16.5 -45.5t40.5 -17.5q25 0 41 17.5t16 45.5z" />
    <glyph glyph-name="guillemotright" unicode="&#xbb;" horiz-adv-x="575" 
d="M306 250l-164 241l-100 -68l118 -173l-118 -173l100 -68zM541 250l-164 241l-100 -68l118 -173l-118 -173l100 -68z" />
    <glyph glyph-name="onequarter" unicode="&#xbc;" horiz-adv-x="844" 
d="M100 614l100 99v-429h-100v330zM205 0l500 710h-130l-500 -710h130zM657 91h-217l307 338v-257h37v-81h-37v-91h-90v91zM657 172v54l-51 -54h51z" />
    <glyph glyph-name="onehalf" unicode="&#xbd;" horiz-adv-x="878" 
d="M100 614l100 99v-429h-100v330zM205 0l500 710h-130l-500 -710h130zM611 158q-40 18 -65 53.5t-25 79.5q0 58 42.5 99t100.5 41t101 -41t43 -99q0 -43 -23 -75l-98 -124h121v-92h-322zM708 291q0 19 -12 33t-32 14q-19 0 -31 -14t-12 -33t12 -33t31 -14q20 0 32 14t12 33
z" />
    <glyph glyph-name="threequarters" unicode="&#xbe;" horiz-adv-x="923" 
d="M45 339l70 66q21 -33 55 -33q28 0 43 15.5t15 42.5q1 27 -14.5 42.5t-42.5 15.5h-45l58 130h-119v92h264l-66 -148q66 -42 66 -132q0 -69 -41.5 -110t-110.5 -41q-83 0 -132 60zM284 0l500 710h-130l-500 -710h130zM736 91h-217l307 338v-257h37v-81h-37v-91h-90v91z
M736 172v54l-51 -54h51z" />
    <glyph glyph-name="questiondown" unicode="&#xbf;" horiz-adv-x="489" 
d="M375 400q0 -52 -40 -84h-136q-40 33 -40 84q0 45 31.5 76.5t76.5 31.5t76.5 -31.5t31.5 -76.5zM330 128h-67q-44 0 -71.5 -22.5t-27.5 -67.5q0 -44 25 -67.5t58 -23.5t56.5 23.5t23.5 67.5h152q0 -97 -66.5 -164.5t-165.5 -67.5t-167 67.5t-68 164.5q0 98 70.5 164.5
t180.5 66.5h67v-141z" />
    <glyph glyph-name="Agrave" unicode="&#xc0;" horiz-adv-x="680" 
d="M159 923h166l70 -145h-110zM340 718l350 -718h-168l-51 110h-262l-51 -110h-168zM407 240l-67 148l-67 -148h134z" />
    <glyph glyph-name="Aacute" unicode="&#xc1;" horiz-adv-x="680" 
d="M354 923h166l-126 -145h-110zM340 718l350 -718h-168l-51 110h-262l-51 -110h-168zM407 240l-67 148l-67 -148h134z" />
    <glyph glyph-name="Acircumflex" unicode="&#xc2;" horiz-adv-x="680" 
d="M163 855l177 76l177 -76l-41 -96l-136 59l-136 -59zM340 718l350 -718h-168l-51 110h-262l-51 -110h-168zM407 240l-67 148l-67 -148h134z" />
    <glyph glyph-name="Atilde" unicode="&#xc3;" horiz-adv-x="680" 
d="M151 806q7 53 41.5 84.5t75.5 31.5q32 0 73 -20t53 -20q17 0 27 9.5t16 32.5h96l-4 -29q-7 -53 -41.5 -84.5t-75.5 -31.5q-32 0 -73 20t-53 20q-17 0 -27 -9.5t-16 -32.5h-96zM340 718l350 -718h-168l-51 110h-262l-51 -110h-168zM407 240l-67 148l-67 -148h134z" />
    <glyph glyph-name="Adieresis" unicode="&#xc4;" horiz-adv-x="680" 
d="M141 850q0 33 23.5 56.5t56.5 23.5t56.5 -23.5t23.5 -56.5t-23.5 -56.5t-56.5 -23.5t-56.5 23.5t-23.5 56.5zM379 850q0 33 23.5 56.5t56.5 23.5t56.5 -23.5t23.5 -56.5t-23.5 -56.5t-56.5 -23.5t-56.5 23.5t-23.5 56.5zM340 718l350 -718h-168l-51 110h-262l-51 -110
h-168zM407 240l-67 148l-67 -148h134z" />
    <glyph glyph-name="Aring" unicode="&#xc5;" horiz-adv-x="680" 
d="M220 879q0 49 35 84.5t85 35.5t85 -35.5t35 -84.5t-35 -84.5t-85 -35.5t-85 35.5t-35 84.5zM387 879q0 19 -13.5 33t-33.5 14t-33.5 -14t-13.5 -33t13.5 -33t33.5 -14t33.5 14t13.5 33zM340 718l350 -718h-168l-51 110h-262l-51 -110h-168zM407 240l-67 148l-67 -148h134
z" />
    <glyph glyph-name="AE" unicode="&#xc6;" horiz-adv-x="912" 
d="M256 545l-81 165h401l77 -158h-232l58 -120h172l75 -154h-172l59 -120h232l77 -158h-400l-51 110h-262l-51 -110h-168zM407 240l-67 148l-67 -148h134z" />
    <glyph glyph-name="Ccedilla" unicode="&#xc7;" horiz-adv-x="709" 
d="M344 -4q-132 19 -221 121t-89 238q0 150 106.5 256.5t256.5 106.5q90 0 168.5 -41.5t128.5 -112.5l-121 -99q-28 45 -74.5 72t-101.5 27q-85 0 -143.5 -61.5t-58.5 -147.5t58.5 -147.5t143.5 -61.5q55 0 101.5 27t74.5 72l121 -99q-43 -61 -107.5 -100.5t-139.5 -49.5
l-33 -130h-127z" />
    <glyph glyph-name="Egrave" unicode="&#xc8;" horiz-adv-x="547" 
d="M136 923h166l70 -145h-110zM67 710h440v-158h-280v-120h220v-154h-220v-120h280v-158h-440v710z" />
    <glyph glyph-name="Eacute" unicode="&#xc9;" horiz-adv-x="547" 
d="M273 923h166l-126 -145h-110zM67 710h440v-158h-280v-120h220v-154h-220v-120h280v-158h-440v710z" />
    <glyph glyph-name="Ecircumflex" unicode="&#xca;" horiz-adv-x="547" 
d="M110 855l177 76l177 -76l-41 -96l-136 59l-136 -59zM67 710h440v-158h-280v-120h220v-154h-220v-120h280v-158h-440v710z" />
    <glyph glyph-name="Edieresis" unicode="&#xcb;" horiz-adv-x="547" 
d="M88 850q0 33 23.5 56.5t56.5 23.5t56.5 -23.5t23.5 -56.5t-23.5 -56.5t-56.5 -23.5t-56.5 23.5t-23.5 56.5zM326 850q0 33 23.5 56.5t56.5 23.5t56.5 -23.5t23.5 -56.5t-23.5 -56.5t-56.5 -23.5t-56.5 23.5t-23.5 56.5zM67 710h440v-158h-280v-120h220v-154h-220v-120
h280v-158h-440v710z" />
    <glyph glyph-name="Igrave" unicode="&#xcc;" horiz-adv-x="295" 
d="M-3 923h166l70 -145h-110zM67 710h160v-710h-160v710z" />
    <glyph glyph-name="Iacute" unicode="&#xcd;" horiz-adv-x="295" 
d="M133 923h166l-126 -145h-110zM67 710h160v-710h-160v710z" />
    <glyph glyph-name="Icircumflex" unicode="&#xce;" horiz-adv-x="295" 
d="M-29 855l177 76l177 -76l-41 -96l-136 59l-136 -59zM67 710h160v-710h-160v710z" />
    <glyph glyph-name="Idieresis" unicode="&#xcf;" horiz-adv-x="295" 
d="M-26 840q0 33 23.5 56.5t56.5 23.5t56.5 -23.5t23.5 -56.5t-23.5 -56.5t-56.5 -23.5t-56.5 23.5t-23.5 56.5zM162 840q0 33 23.5 56.5t56.5 23.5t56.5 -23.5t23.5 -56.5t-23.5 -56.5t-56.5 -23.5t-56.5 23.5t-23.5 56.5zM67 710h160v-710h-160v710z" />
    <glyph glyph-name="Eth" unicode="&#xd0;" horiz-adv-x="746" 
d="M13 425h89v285h249q150 0 255.5 -104t105.5 -251t-105.5 -251t-255.5 -104h-249v285h-89v140zM351 146q88 0 144 61t56 148t-56 148t-144 61h-89v-139h89v-140h-89v-139h89z" />
    <glyph glyph-name="Ntilde" unicode="&#xd1;" horiz-adv-x="742" 
d="M182 806q7 53 41.5 84.5t75.5 31.5q32 0 73.5 -20t52.5 -20q17 0 27 9.5t16 32.5h96l-4 -29q-7 -53 -41.5 -84.5t-75.5 -31.5q-33 0 -74 20t-52 20q-17 0 -27 -9.5t-16 -32.5h-96zM227 371v-371h-160v718l448 -379v371h160v-718z" />
    <glyph glyph-name="Ograve" unicode="&#xd2;" horiz-adv-x="794" 
d="M246 923h166l70 -145h-110zM34 355q0 150 106.5 256.5t256.5 106.5t256.5 -106.5t106.5 -256.5t-106.5 -256.5t-256.5 -106.5t-256.5 106.5t-106.5 256.5zM599 355q0 86 -58.5 147.5t-143.5 61.5t-143.5 -61.5t-58.5 -147.5t58.5 -147.5t143.5 -61.5t143.5 61.5
t58.5 147.5z" />
    <glyph glyph-name="Oacute" unicode="&#xd3;" horiz-adv-x="794" 
d="M382 923h166l-126 -145h-110zM34 355q0 150 106.5 256.5t256.5 106.5t256.5 -106.5t106.5 -256.5t-106.5 -256.5t-256.5 -106.5t-256.5 106.5t-106.5 256.5zM599 355q0 86 -58.5 147.5t-143.5 61.5t-143.5 -61.5t-58.5 -147.5t58.5 -147.5t143.5 -61.5t143.5 61.5
t58.5 147.5z" />
    <glyph glyph-name="Ocircumflex" unicode="&#xd4;" horiz-adv-x="794" 
d="M220 855l177 76l177 -76l-41 -96l-136 59l-136 -59zM34 355q0 150 106.5 256.5t256.5 106.5t256.5 -106.5t106.5 -256.5t-106.5 -256.5t-256.5 -106.5t-256.5 106.5t-106.5 256.5zM599 355q0 86 -58.5 147.5t-143.5 61.5t-143.5 -61.5t-58.5 -147.5t58.5 -147.5
t143.5 -61.5t143.5 61.5t58.5 147.5z" />
    <glyph glyph-name="Otilde" unicode="&#xd5;" horiz-adv-x="794" 
d="M208 806q7 53 41.5 84.5t75.5 31.5q33 0 74 -20t52 -20q17 0 27 9.5t16 32.5h96l-4 -29q-7 -53 -41.5 -84.5t-75.5 -31.5q-32 0 -73.5 20t-52.5 20q-17 0 -27 -9.5t-16 -32.5h-96zM34 355q0 150 106.5 256.5t256.5 106.5t256.5 -106.5t106.5 -256.5t-106.5 -256.5
t-256.5 -106.5t-256.5 106.5t-106.5 256.5zM599 355q0 86 -58.5 147.5t-143.5 61.5t-143.5 -61.5t-58.5 -147.5t58.5 -147.5t143.5 -61.5t143.5 61.5t58.5 147.5z" />
    <glyph glyph-name="Odieresis" unicode="&#xd6;" horiz-adv-x="794" 
d="M198 850q0 33 23.5 56.5t56.5 23.5t56.5 -23.5t23.5 -56.5t-23.5 -56.5t-56.5 -23.5t-56.5 23.5t-23.5 56.5zM436 850q0 33 23.5 56.5t56.5 23.5t56.5 -23.5t23.5 -56.5t-23.5 -56.5t-56.5 -23.5t-56.5 23.5t-23.5 56.5zM34 355q0 150 106.5 256.5t256.5 106.5
t256.5 -106.5t106.5 -256.5t-106.5 -256.5t-256.5 -106.5t-256.5 106.5t-106.5 256.5zM599 355q0 86 -58.5 147.5t-143.5 61.5t-143.5 -61.5t-58.5 -147.5t58.5 -147.5t143.5 -61.5t143.5 61.5t58.5 147.5z" />
    <glyph glyph-name="multiply" unicode="&#xd7;" horiz-adv-x="571" 
d="M77 134l128 128l-128 128l81 81l127 -129l129 129l80 -81l-128 -128l128 -128l-80 -80l-129 127l-127 -127z" />
    <glyph glyph-name="Oslash" unicode="&#xd8;" horiz-adv-x="804" 
d="M29 72l75 75q-65 94 -65 208q0 150 106.5 256.5t256.5 106.5q114 0 207 -66l76 76l90 -90l-76 -76q66 -93 66 -207q0 -150 -106.5 -256.5t-256.5 -106.5q-115 0 -208 66l-76 -76zM220 263l277 277q-45 24 -95 24q-85 0 -143.5 -61.5t-58.5 -147.5q0 -49 20 -92zM604 355
q0 47 -21 92l-277 -277q42 -24 96 -24q85 0 143.5 61.5t58.5 147.5z" />
    <glyph glyph-name="Ugrave" unicode="&#xd9;" horiz-adv-x="702" 
d="M200 923h166l70 -145h-110zM60 288v422h160v-424q0 -64 36 -102t95 -38t95 38t36 102v424h160v-422q0 -133 -81.5 -214.5t-209.5 -81.5t-209.5 81.5t-81.5 214.5z" />
    <glyph glyph-name="Uacute" unicode="&#xda;" horiz-adv-x="702" 
d="M336 923h166l-126 -145h-110zM60 288v422h160v-424q0 -64 36 -102t95 -38t95 38t36 102v424h160v-422q0 -133 -81.5 -214.5t-209.5 -81.5t-209.5 81.5t-81.5 214.5z" />
    <glyph glyph-name="Ucircumflex" unicode="&#xdb;" horiz-adv-x="702" 
d="M174 855l177 76l177 -76l-41 -96l-136 59l-136 -59zM60 288v422h160v-424q0 -64 36 -102t95 -38t95 38t36 102v424h160v-422q0 -133 -81.5 -214.5t-209.5 -81.5t-209.5 81.5t-81.5 214.5z" />
    <glyph glyph-name="Udieresis" unicode="&#xdc;" horiz-adv-x="702" 
d="M152 850q0 33 23.5 56.5t56.5 23.5t56.5 -23.5t23.5 -56.5t-23.5 -56.5t-56.5 -23.5t-56.5 23.5t-23.5 56.5zM390 850q0 33 23.5 56.5t56.5 23.5t56.5 -23.5t23.5 -56.5t-23.5 -56.5t-56.5 -23.5t-56.5 23.5t-23.5 56.5zM60 288v422h160v-424q0 -64 36 -102t95 -38t95 38
t36 102v424h160v-422q0 -133 -81.5 -214.5t-209.5 -81.5t-209.5 81.5t-81.5 214.5z" />
    <glyph glyph-name="Yacute" unicode="&#xdd;" horiz-adv-x="656" 
d="M322 923h166l-126 -145h-110zM248 298l-263 412h187l156 -252l156 252h187l-263 -412v-298h-160v298z" />
    <glyph glyph-name="Thorn" unicode="&#xde;" horiz-adv-x="557" 
d="M67 710h160v-114h74q103 0 173 -70t70 -171t-70 -171t-173 -70h-74v-114h-160v710zM299 263q38 0 64 27.5t26 64.5t-26 64t-64 27h-72v-183h72z" />
    <glyph glyph-name="germandbls" unicode="&#xdf;" horiz-adv-x="557" 
d="M278 -32q41 0 71 29.5t30 70.5t-30 70.5t-71 29.5v118l59 82h-126v-368h-152v556q0 71 41 112.5t112 41.5h103v-138h-46q-31 0 -44.5 -14t-13.5 -45v-13h284v-132l-69 -96q48 -35 76 -88.5t28 -115.5q0 -104 -74 -178t-178 -74v152z" />
    <glyph glyph-name="agrave" unicode="&#xe0;" horiz-adv-x="594" 
d="M145 710h173l80 -155h-110zM384 29q-45 -37 -110 -37q-108 0 -175 76t-67 182t67 182t175 76q64 0 110 -38v30h151v-500h-151v29zM384 171v157q-33 42 -85 42t-83.5 -34.5t-31.5 -85.5t31.5 -85.5t83.5 -34.5q53 0 85 41z" />
    <glyph glyph-name="aacute" unicode="&#xe1;" horiz-adv-x="594" 
d="M298 710h173l-143 -155h-110zM384 29q-45 -37 -110 -37q-108 0 -175 76t-67 182t67 182t175 76q64 0 110 -38v30h151v-500h-151v29zM384 171v157q-33 42 -85 42t-83.5 -34.5t-31.5 -85.5t31.5 -85.5t83.5 -34.5q53 0 85 41z" />
    <glyph glyph-name="acircumflex" unicode="&#xe2;" horiz-adv-x="594" 
d="M142 637l178 91l178 -91l-48 -91l-130 62l-130 -62zM384 29q-45 -37 -110 -37q-108 0 -175 76t-67 182t67 182t175 76q64 0 110 -38v30h151v-500h-151v29zM384 171v157q-33 42 -85 42t-83.5 -34.5t-31.5 -85.5t31.5 -85.5t83.5 -34.5q53 0 85 41z" />
    <glyph glyph-name="atilde" unicode="&#xe3;" horiz-adv-x="594" 
d="M131 583q7 53 41.5 84.5t75.5 31.5q32 0 73 -20t53 -20q17 0 27 9.5t16 32.5h96l-4 -29q-7 -53 -41.5 -84.5t-75.5 -31.5q-32 0 -73 20t-53 20q-17 0 -27 -9.5t-16 -32.5h-96zM384 29q-45 -37 -110 -37q-108 0 -175 76t-67 182t67 182t175 76q64 0 110 -38v30h151v-500
h-151v29zM384 171v157q-33 42 -85 42t-83.5 -34.5t-31.5 -85.5t31.5 -85.5t83.5 -34.5q53 0 85 41z" />
    <glyph glyph-name="adieresis" unicode="&#xe4;" horiz-adv-x="594" 
d="M121 647q0 33 23.5 56.5t56.5 23.5t56.5 -23.5t23.5 -56.5t-23.5 -56.5t-56.5 -23.5t-56.5 23.5t-23.5 56.5zM359 647q0 33 23.5 56.5t56.5 23.5t56.5 -23.5t23.5 -56.5t-23.5 -56.5t-56.5 -23.5t-56.5 23.5t-23.5 56.5zM384 29q-45 -37 -110 -37q-108 0 -175 76t-67 182
t67 182t175 76q64 0 110 -38v30h151v-500h-151v29zM384 171v157q-33 42 -85 42t-83.5 -34.5t-31.5 -85.5t31.5 -85.5t83.5 -34.5q53 0 85 41z" />
    <glyph glyph-name="aring" unicode="&#xe5;" horiz-adv-x="594" 
d="M200 666q0 50 35 85t85 35t85 -35t35 -85t-35 -85t-85 -35t-85 35t-35 85zM367 666q0 20 -13.5 33.5t-33.5 13.5t-33.5 -13.5t-13.5 -33.5t13.5 -33.5t33.5 -13.5t33.5 13.5t13.5 33.5zM384 29q-45 -37 -110 -37q-108 0 -175 76t-67 182t67 182t175 76q64 0 110 -38v30
h151v-500h-151v29zM384 171v157q-33 42 -85 42t-83.5 -34.5t-31.5 -85.5t31.5 -85.5t83.5 -34.5q53 0 85 41z" />
    <glyph glyph-name="ae" unicode="&#xe6;" horiz-adv-x="853" 
d="M406 60q-74 -68 -188 -68q-90 0 -145.5 41.5t-55.5 122.5q0 71 54.5 111t138.5 40q62 0 116 -26v14q-11 74 -116 74q-76 0 -125 -30l-21 141q73 28 151 28q119 0 187 -68q73 68 181 68q101 0 171 -64t70 -177q0 -21 -3 -44h-351q5 -46 37.5 -69.5t71.5 -23.5q73 0 107 63
l120 -81q-35 -55 -94 -87.5t-132 -32.5q-101 0 -174 68zM471 311h204q-6 38 -34 57t-67 19q-33 0 -63.5 -17.5t-39.5 -58.5zM326 153v28q-38 23 -95 23q-68 0 -68 -44q0 -22 20 -32t47 -10q70 0 96 35z" />
    <glyph glyph-name="ccedilla" unicode="&#xe7;" horiz-adv-x="522" 
d="M238 -2q-90 17 -149 88t-59 164q0 107 76 182.5t184 75.5q68 0 126 -32t93 -86l-120 -85q-34 62 -99 62q-47 0 -77.5 -33t-30.5 -84t30.5 -84t77.5 -33q65 0 99 62l120 -85q-61 -93 -169 -113l-33 -131h-127z" />
    <glyph glyph-name="egrave" unicode="&#xe8;" horiz-adv-x="558" 
d="M120 710h173l80 -155h-110zM30 250q0 111 72 184.5t186 73.5q101 0 171 -64t70 -177q0 -21 -3 -44h-351q5 -46 37.5 -69.5t71.5 -23.5q73 0 107 63l120 -81q-35 -55 -94 -87.5t-132 -32.5q-103 0 -179 73t-76 185zM176 311h204q-6 38 -34 57t-67 19q-33 0 -63.5 -17.5
t-39.5 -58.5z" />
    <glyph glyph-name="eacute" unicode="&#xe9;" horiz-adv-x="558" 
d="M283 710h173l-143 -155h-110zM30 250q0 111 72 184.5t186 73.5q101 0 171 -64t70 -177q0 -21 -3 -44h-351q5 -46 37.5 -69.5t71.5 -23.5q73 0 107 63l120 -81q-35 -55 -94 -87.5t-132 -32.5q-103 0 -179 73t-76 185zM176 311h204q-6 38 -34 57t-67 19q-33 0 -63.5 -17.5
t-39.5 -58.5z" />
    <glyph glyph-name="ecircumflex" unicode="&#xea;" horiz-adv-x="558" 
d="M110 637l178 91l178 -91l-48 -91l-130 62l-130 -62zM30 250q0 111 72 184.5t186 73.5q101 0 171 -64t70 -177q0 -21 -3 -44h-351q5 -46 37.5 -69.5t71.5 -23.5q73 0 107 63l120 -81q-35 -55 -94 -87.5t-132 -32.5q-103 0 -179 73t-76 185zM176 311h204q-6 38 -34 57
t-67 19q-33 0 -63.5 -17.5t-39.5 -58.5z" />
    <glyph glyph-name="edieresis" unicode="&#xeb;" horiz-adv-x="558" 
d="M89 647q0 33 23.5 56.5t56.5 23.5t56.5 -23.5t23.5 -56.5t-23.5 -56.5t-56.5 -23.5t-56.5 23.5t-23.5 56.5zM327 647q0 33 23.5 56.5t56.5 23.5t56.5 -23.5t23.5 -56.5t-23.5 -56.5t-56.5 -23.5t-56.5 23.5t-23.5 56.5zM30 250q0 111 72 184.5t186 73.5q101 0 171 -64
t70 -177q0 -21 -3 -44h-351q5 -46 37.5 -69.5t71.5 -23.5q73 0 107 63l120 -81q-35 -55 -94 -87.5t-132 -32.5q-103 0 -179 73t-76 185zM176 311h204q-6 38 -34 57t-67 19q-33 0 -63.5 -17.5t-39.5 -58.5z" />
    <glyph glyph-name="igrave" unicode="&#xec;" horiz-adv-x="270" 
d="M-33 710h173l80 -155h-110zM59 500h152v-500h-152v500z" />
    <glyph glyph-name="iacute" unicode="&#xed;" horiz-adv-x="270" 
d="M130 710h173l-143 -155h-110zM59 500h152v-500h-152v500z" />
    <glyph glyph-name="icircumflex" unicode="&#xee;" horiz-adv-x="270" 
d="M-43 637l178 91l178 -91l-48 -91l-130 62l-130 -62zM59 500h152v-500h-152v500z" />
    <glyph glyph-name="idieresis" unicode="&#xef;" horiz-adv-x="270" 
d="M-39 627q0 33 23.5 56.5t56.5 23.5t56.5 -23.5t23.5 -56.5t-23.5 -56.5t-56.5 -23.5t-56.5 23.5t-23.5 56.5zM149 627q0 33 23.5 56.5t56.5 23.5t56.5 -23.5t23.5 -56.5t-23.5 -56.5t-56.5 -23.5t-56.5 23.5t-23.5 56.5zM59 500h152v-500h-152v500z" />
    <glyph glyph-name="eth" unicode="&#xf0;" horiz-adv-x="580" 
d="M106 633h76l-49 77h169l49 -77h104v-96h-42l90 -139q47 -72 47 -148q0 -107 -76 -182.5t-184 -75.5t-184 75.5t-76 182.5q0 99 67 172.5t166 83.5l-20 31h-137v96zM398 250q0 51 -30.5 84t-77.5 33t-77.5 -33t-30.5 -84t30.5 -84t77.5 -33t77.5 33t30.5 84z" />
    <glyph glyph-name="ntilde" unicode="&#xf1;" 
d="M112 583q7 53 41.5 84.5t75.5 31.5q33 0 74 -20t52 -20q17 0 27 9.5t16 32.5h96l-4 -29q-7 -53 -41.5 -84.5t-75.5 -31.5q-33 0 -74 20t-52 20q-17 0 -27 -9.5t-16 -32.5h-96zM59 500h151v-31q47 39 115 39q104 0 161 -62.5t57 -166.5v-279h-151v252q0 54 -22.5 86
t-69.5 32q-52 0 -90 -43v-327h-151v500z" />
    <glyph glyph-name="ograve" unicode="&#xf2;" horiz-adv-x="580" 
d="M112 710h173l80 -155h-110zM30 250q0 107 76 182.5t184 75.5t184 -75.5t76 -182.5t-76 -182.5t-184 -75.5t-184 75.5t-76 182.5zM398 250q0 51 -30.5 84t-77.5 33t-77.5 -33t-30.5 -84t30.5 -84t77.5 -33t77.5 33t30.5 84z" />
    <glyph glyph-name="oacute" unicode="&#xf3;" horiz-adv-x="580" 
d="M295 710h173l-143 -155h-110zM30 250q0 107 76 182.5t184 75.5t184 -75.5t76 -182.5t-76 -182.5t-184 -75.5t-184 75.5t-76 182.5zM398 250q0 51 -30.5 84t-77.5 33t-77.5 -33t-30.5 -84t30.5 -84t77.5 -33t77.5 33t30.5 84z" />
    <glyph glyph-name="ocircumflex" unicode="&#xf4;" horiz-adv-x="580" 
d="M112 637l178 91l178 -91l-48 -91l-130 62l-130 -62zM30 250q0 107 76 182.5t184 75.5t184 -75.5t76 -182.5t-76 -182.5t-184 -75.5t-184 75.5t-76 182.5zM398 250q0 51 -30.5 84t-77.5 33t-77.5 -33t-30.5 -84t30.5 -84t77.5 -33t77.5 33t30.5 84z" />
    <glyph glyph-name="otilde" unicode="&#xf5;" horiz-adv-x="580" 
d="M101 583q7 53 41.5 84.5t75.5 31.5q32 0 73 -20t53 -20q17 0 27 9.5t16 32.5h96l-4 -29q-7 -53 -41.5 -84.5t-75.5 -31.5q-32 0 -73.5 20t-52.5 20q-17 0 -27 -9.5t-16 -32.5h-96zM30 250q0 107 76 182.5t184 75.5t184 -75.5t76 -182.5t-76 -182.5t-184 -75.5t-184 75.5
t-76 182.5zM398 250q0 51 -30.5 84t-77.5 33t-77.5 -33t-30.5 -84t30.5 -84t77.5 -33t77.5 33t30.5 84z" />
    <glyph glyph-name="odieresis" unicode="&#xf6;" horiz-adv-x="580" 
d="M91 647q0 33 23.5 56.5t56.5 23.5t56.5 -23.5t23.5 -56.5t-23.5 -56.5t-56.5 -23.5t-56.5 23.5t-23.5 56.5zM329 647q0 33 23.5 56.5t56.5 23.5t56.5 -23.5t23.5 -56.5t-23.5 -56.5t-56.5 -23.5t-56.5 23.5t-23.5 56.5zM30 250q0 107 76 182.5t184 75.5t184 -75.5
t76 -182.5t-76 -182.5t-184 -75.5t-184 75.5t-76 182.5zM398 250q0 51 -30.5 84t-77.5 33t-77.5 -33t-30.5 -84t30.5 -84t77.5 -33t77.5 33t30.5 84z" />
    <glyph glyph-name="divide" unicode="&#xf7;" horiz-adv-x="590" 
d="M215 449q0 33 23.5 56.5t56.5 23.5t56.5 -23.5t23.5 -56.5t-23.5 -56.5t-56.5 -23.5t-56.5 23.5t-23.5 56.5zM77 339h436v-114h-436v114zM215 115q0 33 23.5 56.5t56.5 23.5t56.5 -23.5t23.5 -56.5t-23.5 -56.5t-56.5 -23.5t-56.5 23.5t-23.5 56.5z" />
    <glyph glyph-name="oslash" unicode="&#xf8;" horiz-adv-x="590" 
d="M41 42l49 49q-55 69 -55 159q0 107 76 182.5t184 75.5q89 0 159 -54l49 49l47 -49l-48 -48q53 -71 53 -156q0 -107 -76 -182.5t-184 -75.5q-88 0 -156 52l-51 -51zM197 198l154 153q-26 16 -56 16q-47 0 -77.5 -33t-30.5 -84q0 -31 10 -52zM403 250q0 27 -9 48l-152 -152
q22 -13 53 -13q47 0 77.5 33t30.5 84z" />
    <glyph glyph-name="ugrave" unicode="&#xf9;" 
d="M128 710h173l80 -155h-110zM387 37q-48 -45 -119 -45q-100 0 -157 62.5t-57 166.5v279h151v-252q0 -53 22.5 -85.5t65.5 -32.5q63 0 94 50v320h151v-500h-151v37z" />
    <glyph glyph-name="uacute" unicode="&#xfa;" 
d="M291 710h173l-143 -155h-110zM387 37q-48 -45 -119 -45q-100 0 -157 62.5t-57 166.5v279h151v-252q0 -53 22.5 -85.5t65.5 -32.5q63 0 94 50v320h151v-500h-151v37z" />
    <glyph glyph-name="ucircumflex" unicode="&#xfb;" 
d="M118 637l178 91l178 -91l-48 -91l-130 62l-130 -62zM387 37q-48 -45 -119 -45q-100 0 -157 62.5t-57 166.5v279h151v-252q0 -53 22.5 -85.5t65.5 -32.5q63 0 94 50v320h151v-500h-151v37z" />
    <glyph glyph-name="udieresis" unicode="&#xfc;" 
d="M97 647q0 33 23.5 56.5t56.5 23.5t56.5 -23.5t23.5 -56.5t-23.5 -56.5t-56.5 -23.5t-56.5 23.5t-23.5 56.5zM335 647q0 33 23.5 56.5t56.5 23.5t56.5 -23.5t23.5 -56.5t-23.5 -56.5t-56.5 -23.5t-56.5 23.5t-23.5 56.5zM387 37q-48 -45 -119 -45q-100 0 -157 62.5
t-57 166.5v279h151v-252q0 -53 22.5 -85.5t65.5 -32.5q63 0 94 50v320h151v-500h-151v37z" />
    <glyph glyph-name="yacute" unicode="&#xfd;" horiz-adv-x="518" 
d="M274 710h173l-143 -155h-110zM179 0l-184 500h160l104 -316l104 316h160l-252 -684h-160z" />
    <glyph glyph-name="thorn" unicode="&#xfe;" horiz-adv-x="594" 
d="M59 710h151v-240q46 38 110 38q108 0 175 -76t67 -182t-67 -182t-175 -76q-65 0 -110 37v-213h-151v894zM210 328v-157q30 -41 85 -41q52 0 83.5 34.5t31.5 85.5t-31.5 85.5t-83.5 34.5q-54 0 -85 -42z" />
    <glyph glyph-name="ydieresis" unicode="&#xff;" horiz-adv-x="518" 
d="M60 647q0 33 23.5 56.5t56.5 23.5t56.5 -23.5t23.5 -56.5t-23.5 -56.5t-56.5 -23.5t-56.5 23.5t-23.5 56.5zM298 647q0 33 23.5 56.5t56.5 23.5t56.5 -23.5t23.5 -56.5t-23.5 -56.5t-56.5 -23.5t-56.5 23.5t-23.5 56.5zM179 0l-184 500h160l104 -316l104 316h160
l-252 -684h-160z" />
    <glyph glyph-name="Amacron" unicode="&#x100;" horiz-adv-x="680" 
d="M175 898h330v-96h-330v96zM340 718l350 -718h-168l-51 110h-262l-51 -110h-168zM407 240l-67 148l-67 -148h134z" />
    <glyph glyph-name="amacron" unicode="&#x101;" horiz-adv-x="594" 
d="M158 675h330v-96h-330v96zM384 29q-45 -37 -110 -37q-108 0 -175 76t-67 182t67 182t175 76q64 0 110 -38v30h151v-500h-151v29zM384 171v157q-33 42 -85 42t-83.5 -34.5t-31.5 -85.5t31.5 -85.5t83.5 -34.5q53 0 85 41z" />
    <glyph glyph-name="Abreve" unicode="&#x102;" horiz-adv-x="680" 
d="M155 953h86q0 -41 28.5 -69.5t69.5 -28.5t69.5 28.5t28.5 69.5h86q0 -77 -53.5 -130.5t-130.5 -53.5t-130.5 53.5t-53.5 130.5zM340 718l350 -718h-168l-51 110h-262l-51 -110h-168zM407 240l-67 148l-67 -148h134z" />
    <glyph glyph-name="abreve" unicode="&#x103;" horiz-adv-x="594" 
d="M129 710h86q0 -39 27.5 -58.5t70.5 -19.5t70.5 19.5t27.5 58.5h86q0 -75 -52.5 -119.5t-131.5 -44.5t-131.5 44.5t-52.5 119.5zM384 29q-45 -37 -110 -37q-108 0 -175 76t-67 182t67 182t175 76q64 0 110 -38v30h151v-500h-151v29zM384 171v157q-33 42 -85 42
t-83.5 -34.5t-31.5 -85.5t31.5 -85.5t83.5 -34.5q53 0 85 41z" />
    <glyph glyph-name="Aogonek" unicode="&#x104;" horiz-adv-x="680" 
d="M340 718l350 -718q-26 -12 -37 -18t-20.5 -16t-9.5 -22q0 -30 32 -30q22 0 35 13v-87q-38 -29 -90 -29q-51 0 -84 31t-33 76q0 50 39 82l-51 110h-262l-51 -110h-168zM407 240l-67 148l-67 -148h134z" />
    <glyph glyph-name="aogonek" unicode="&#x105;" horiz-adv-x="594" 
d="M384 29q-45 -37 -110 -37q-108 0 -175 76t-67 182t67 182t175 76q64 0 110 -38v30h151v-500q-57 -27 -57 -56q0 -13 8.5 -21.5t21.5 -8.5q14 0 27 13v-87q-29 -29 -83 -29q-44 0 -75.5 31.5t-31.5 75.5q0 50 39 82v29zM384 171v157q-33 42 -85 42t-83.5 -34.5
t-31.5 -85.5t31.5 -85.5t83.5 -34.5q53 0 85 41z" />
    <glyph glyph-name="Cacute" unicode="&#x106;" horiz-adv-x="709" 
d="M383 923h166l-126 -145h-110zM34 355q0 150 106.5 256.5t256.5 106.5q90 0 168.5 -41.5t128.5 -112.5l-121 -99q-28 45 -74.5 72t-101.5 27q-85 0 -143.5 -61.5t-58.5 -147.5t58.5 -147.5t143.5 -61.5q55 0 101.5 27t74.5 72l121 -99q-50 -71 -128.5 -112.5t-168.5 -41.5
q-150 0 -256.5 106.5t-106.5 256.5z" />
    <glyph glyph-name="cacute" unicode="&#x107;" horiz-adv-x="522" 
d="M294 710h173l-143 -155h-110zM30 250q0 107 76 182.5t184 75.5q68 0 126 -32t93 -86l-120 -85q-34 62 -99 62q-47 0 -77.5 -33t-30.5 -84t30.5 -84t77.5 -33q65 0 99 62l120 -85q-35 -54 -93 -86t-126 -32q-108 0 -184 75.5t-76 182.5z" />
    <glyph glyph-name="Ccircumflex" unicode="&#x108;" horiz-adv-x="709" 
d="M221 855l177 76l177 -76l-41 -96l-136 59l-136 -59zM34 355q0 150 106.5 256.5t256.5 106.5q90 0 168.5 -41.5t128.5 -112.5l-121 -99q-28 45 -74.5 72t-101.5 27q-85 0 -143.5 -61.5t-58.5 -147.5t58.5 -147.5t143.5 -61.5q55 0 101.5 27t74.5 72l121 -99
q-50 -71 -128.5 -112.5t-168.5 -41.5q-150 0 -256.5 106.5t-106.5 256.5z" />
    <glyph glyph-name="ccircumflex" unicode="&#x109;" horiz-adv-x="522" 
d="M112 637l178 91l178 -91l-48 -91l-130 62l-130 -62zM30 250q0 107 76 182.5t184 75.5q68 0 126 -32t93 -86l-120 -85q-34 62 -99 62q-47 0 -77.5 -33t-30.5 -84t30.5 -84t77.5 -33q65 0 99 62l120 -85q-35 -54 -93 -86t-126 -32q-108 0 -184 75.5t-76 182.5z" />
    <glyph glyph-name="Cdotaccent" unicode="&#x10a;" horiz-adv-x="709" 
d="M311 850q0 36 25.5 61.5t61.5 25.5t61.5 -25.5t25.5 -61.5t-25.5 -61.5t-61.5 -25.5t-61.5 25.5t-25.5 61.5zM34 355q0 150 106.5 256.5t256.5 106.5q90 0 168.5 -41.5t128.5 -112.5l-121 -99q-28 45 -74.5 72t-101.5 27q-85 0 -143.5 -61.5t-58.5 -147.5t58.5 -147.5
t143.5 -61.5q55 0 101.5 27t74.5 72l121 -99q-50 -71 -128.5 -112.5t-168.5 -41.5q-150 0 -256.5 106.5t-106.5 256.5z" />
    <glyph glyph-name="cdotaccent" unicode="&#x10b;" horiz-adv-x="522" 
d="M203 647q0 36 25.5 61.5t61.5 25.5t61.5 -25.5t25.5 -61.5t-25.5 -61.5t-61.5 -25.5t-61.5 25.5t-25.5 61.5zM30 250q0 107 76 182.5t184 75.5q68 0 126 -32t93 -86l-120 -85q-34 62 -99 62q-47 0 -77.5 -33t-30.5 -84t30.5 -84t77.5 -33q65 0 99 62l120 -85
q-35 -54 -93 -86t-126 -32q-108 0 -184 75.5t-76 182.5z" />
    <glyph glyph-name="Ccaron" unicode="&#x10c;" horiz-adv-x="709" 
d="M220 835l41 96l136 -59l136 59l41 -96l-177 -76zM34 355q0 150 106.5 256.5t256.5 106.5q90 0 168.5 -41.5t128.5 -112.5l-121 -99q-28 45 -74.5 72t-101.5 27q-85 0 -143.5 -61.5t-58.5 -147.5t58.5 -147.5t143.5 -61.5q55 0 101.5 27t74.5 72l121 -99
q-50 -71 -128.5 -112.5t-168.5 -41.5q-150 0 -256.5 106.5t-106.5 256.5z" />
    <glyph glyph-name="ccaron" unicode="&#x10d;" horiz-adv-x="522" 
d="M110 637l178 -91l178 91l-48 91l-130 -62l-130 62zM30 250q0 107 76 182.5t184 75.5q68 0 126 -32t93 -86l-120 -85q-34 62 -99 62q-47 0 -77.5 -33t-30.5 -84t30.5 -84t77.5 -33q65 0 99 62l120 -85q-35 -54 -93 -86t-126 -32q-108 0 -184 75.5t-76 182.5z" />
    <glyph glyph-name="Dcaron" unicode="&#x10e;" horiz-adv-x="711" 
d="M128 835l41 96l136 -59l136 59l41 -96l-177 -76zM67 710h249q150 0 255.5 -104t105.5 -251t-105.5 -251t-255.5 -104h-249v710zM316 146q88 0 144 61t56 148t-56 148t-144 61h-89v-418h89z" />
    <glyph glyph-name="dcaron" unicode="&#x10f;" horiz-adv-x="594" 
d="M384 29q-45 -37 -110 -37q-108 0 -175 76t-67 182t67 182t175 76q64 0 110 -38v240h151v-710h-151v29zM667 550h-102l20 160h151zM384 171v157q-33 42 -85 42t-83.5 -34.5t-31.5 -85.5t31.5 -85.5t83.5 -34.5q53 0 85 41z" />
    <glyph glyph-name="Dcroat" unicode="&#x110;" horiz-adv-x="746" 
d="M13 425h89v285h249q150 0 255.5 -104t105.5 -251t-105.5 -251t-255.5 -104h-249v285h-89v140zM351 146q88 0 144 61t56 148t-56 148t-144 61h-89v-139h89v-140h-89v-139h89z" />
    <glyph glyph-name="dcroat" unicode="&#x111;" horiz-adv-x="594" 
d="M254 660h130v50h151v-50h68v-98h-68v-562h-151v29q-45 -37 -110 -37q-108 0 -175 76t-67 182t67 182t175 76q64 0 110 -38v92h-130v98zM384 171v157q-33 42 -85 42t-83.5 -34.5t-31.5 -85.5t31.5 -85.5t83.5 -34.5q53 0 85 41z" />
    <glyph glyph-name="Emacron" unicode="&#x112;" horiz-adv-x="547" 
d="M121 898h330v-96h-330v96zM67 710h440v-158h-280v-120h220v-154h-220v-120h280v-158h-440v710z" />
    <glyph glyph-name="emacron" unicode="&#x113;" horiz-adv-x="558" 
d="M122 675h330v-96h-330v96zM30 250q0 111 72 184.5t186 73.5q101 0 171 -64t70 -177q0 -21 -3 -44h-351q5 -46 37.5 -69.5t71.5 -23.5q73 0 107 63l120 -81q-35 -55 -94 -87.5t-132 -32.5q-103 0 -179 73t-76 185zM176 311h204q-6 38 -34 57t-67 19q-33 0 -63.5 -17.5
t-39.5 -58.5z" />
    <glyph glyph-name="Ebreve" unicode="&#x114;" horiz-adv-x="547" 
d="M103 953h86q0 -41 28.5 -69.5t69.5 -28.5t69.5 28.5t28.5 69.5h86q0 -77 -53.5 -130.5t-130.5 -53.5t-130.5 53.5t-53.5 130.5zM67 710h440v-158h-280v-120h220v-154h-220v-120h280v-158h-440v710z" />
    <glyph glyph-name="ebreve" unicode="&#x115;" horiz-adv-x="558" 
d="M103 710h86q0 -39 27.5 -58.5t70.5 -19.5t70.5 19.5t27.5 58.5h86q0 -75 -52.5 -119.5t-131.5 -44.5t-131.5 44.5t-52.5 119.5zM30 250q0 111 72 184.5t186 73.5q101 0 171 -64t70 -177q0 -21 -3 -44h-351q5 -46 37.5 -69.5t71.5 -23.5q73 0 107 63l120 -81
q-35 -55 -94 -87.5t-132 -32.5q-103 0 -179 73t-76 185zM176 311h204q-6 38 -34 57t-67 19q-33 0 -63.5 -17.5t-39.5 -58.5z" />
    <glyph glyph-name="Edotaccent" unicode="&#x116;" horiz-adv-x="547" 
d="M200 850q0 36 25.5 61.5t61.5 25.5t61.5 -25.5t25.5 -61.5t-25.5 -61.5t-61.5 -25.5t-61.5 25.5t-25.5 61.5zM67 710h440v-158h-280v-120h220v-154h-220v-120h280v-158h-440v710z" />
    <glyph glyph-name="edotaccent" unicode="&#x117;" horiz-adv-x="558" 
d="M200 647q0 36 25.5 61.5t61.5 25.5t61.5 -25.5t25.5 -61.5t-25.5 -61.5t-61.5 -25.5t-61.5 25.5t-25.5 61.5zM30 250q0 111 72 184.5t186 73.5q101 0 171 -64t70 -177q0 -21 -3 -44h-351q5 -46 37.5 -69.5t71.5 -23.5q73 0 107 63l120 -81q-35 -55 -94 -87.5t-132 -32.5
q-103 0 -179 73t-76 185zM176 311h204q-6 38 -34 57t-67 19q-33 0 -63.5 -17.5t-39.5 -58.5z" />
    <glyph glyph-name="Eogonek" unicode="&#x118;" horiz-adv-x="547" 
d="M67 710h440v-158h-280v-120h220v-154h-220v-120h280v-158q-26 -12 -37 -18t-20.5 -16t-9.5 -22q0 -30 32 -30q22 0 35 13v-87q-38 -29 -90 -29q-51 0 -84 31t-33 76q0 50 39 82h-272v710z" />
    <glyph glyph-name="eogonek" unicode="&#x119;" horiz-adv-x="558" 
d="M163 -82q0 48 42 87q-76 25 -125.5 90.5t-49.5 154.5q0 111 72 184.5t186 73.5q101 0 171 -64t70 -177q0 -21 -3 -44h-351q5 -46 37.5 -69.5t71.5 -23.5q73 0 107 63l120 -81q-56 -88 -158 -112q-57 -27 -57 -56q0 -13 8.5 -21.5t21.5 -8.5q14 0 27 13v-87
q-29 -29 -83 -29q-44 0 -75.5 31.5t-31.5 75.5zM176 311h204q-6 38 -34 57t-67 19q-33 0 -63.5 -17.5t-39.5 -58.5z" />
    <glyph glyph-name="Ecaron" unicode="&#x11a;" horiz-adv-x="547" 
d="M110 835l41 96l136 -59l136 59l41 -96l-177 -76zM67 710h440v-158h-280v-120h220v-154h-220v-120h280v-158h-440v710z" />
    <glyph glyph-name="ecaron" unicode="&#x11b;" horiz-adv-x="558" 
d="M110 637l178 -91l178 91l-48 91l-130 -62l-130 62zM30 250q0 111 72 184.5t186 73.5q101 0 171 -64t70 -177q0 -21 -3 -44h-351q5 -46 37.5 -69.5t71.5 -23.5q73 0 107 63l120 -81q-35 -55 -94 -87.5t-132 -32.5q-103 0 -179 73t-76 185zM176 311h204q-6 38 -34 57
t-67 19q-33 0 -63.5 -17.5t-39.5 -58.5z" />
    <glyph glyph-name="Gcircumflex" unicode="&#x11c;" horiz-adv-x="729" 
d="M221 855l177 76l177 -76l-41 -96l-136 59l-136 -59zM34 355q0 150 106.5 256.5t256.5 106.5q178 0 287 -134l-121 -99q-33 41 -71.5 60t-94.5 19q-85 0 -143.5 -61.5t-58.5 -147.5t58.5 -147.5t143.5 -61.5q88 0 137 35v99h-171l68 150h258v-322q-101 -116 -292 -116
q-150 0 -256.5 106.5t-106.5 256.5z" />
    <glyph glyph-name="gcircumflex" unicode="&#x11d;" horiz-adv-x="583" 
d="M107 637l178 91l178 -91l-48 -91l-130 62l-130 -62zM57 -138l68 133q66 -51 147 -51q50 0 82 19t32 61q0 24 -13 42q-46 -38 -111 -38q-108 0 -172 71.5t-64 168.5t64 168.5t172 71.5q64 0 110 -38v30h151v-403q21 -49 21 -98q0 -67 -39.5 -112t-96 -63t-126.5 -18
q-139 0 -225 56zM372 208v120q-34 42 -90 42q-48 0 -76 -30.5t-28 -71.5t28 -71.5t76 -30.5q56 0 90 42z" />
    <glyph glyph-name="Gbreve" unicode="&#x11e;" horiz-adv-x="729" 
d="M213 953h86q0 -41 28.5 -69.5t69.5 -28.5t69.5 28.5t28.5 69.5h86q0 -77 -53.5 -130.5t-130.5 -53.5t-130.5 53.5t-53.5 130.5zM34 355q0 150 106.5 256.5t256.5 106.5q178 0 287 -134l-121 -99q-33 41 -71.5 60t-94.5 19q-85 0 -143.5 -61.5t-58.5 -147.5t58.5 -147.5
t143.5 -61.5q88 0 137 35v99h-171l68 150h258v-322q-101 -116 -292 -116q-150 0 -256.5 106.5t-106.5 256.5z" />
    <glyph glyph-name="gbreve" unicode="&#x11f;" horiz-adv-x="583" 
d="M101 710h86q0 -39 27.5 -58.5t70.5 -19.5t70.5 19.5t27.5 58.5h86q0 -75 -52.5 -119.5t-131.5 -44.5t-131.5 44.5t-52.5 119.5zM57 -138l68 133q66 -51 147 -51q50 0 82 19t32 61q0 24 -13 42q-46 -38 -111 -38q-108 0 -172 71.5t-64 168.5t64 168.5t172 71.5
q64 0 110 -38v30h151v-403q21 -49 21 -98q0 -67 -39.5 -112t-96 -63t-126.5 -18q-139 0 -225 56zM372 208v120q-34 42 -90 42q-48 0 -76 -30.5t-28 -71.5t28 -71.5t76 -30.5q56 0 90 42z" />
    <glyph glyph-name="Gdotaccent" unicode="&#x120;" horiz-adv-x="729" 
d="M311 850q0 36 25.5 61.5t61.5 25.5t61.5 -25.5t25.5 -61.5t-25.5 -61.5t-61.5 -25.5t-61.5 25.5t-25.5 61.5zM34 355q0 150 106.5 256.5t256.5 106.5q178 0 287 -134l-121 -99q-33 41 -71.5 60t-94.5 19q-85 0 -143.5 -61.5t-58.5 -147.5t58.5 -147.5t143.5 -61.5
q88 0 137 35v99h-171l68 150h258v-322q-101 -116 -292 -116q-150 0 -256.5 106.5t-106.5 256.5z" />
    <glyph glyph-name="gdotaccent" unicode="&#x121;" horiz-adv-x="583" 
d="M198 647q0 36 25.5 61.5t61.5 25.5t61.5 -25.5t25.5 -61.5t-25.5 -61.5t-61.5 -25.5t-61.5 25.5t-25.5 61.5zM57 -138l68 133q66 -51 147 -51q50 0 82 19t32 61q0 24 -13 42q-46 -38 -111 -38q-108 0 -172 71.5t-64 168.5t64 168.5t172 71.5q64 0 110 -38v30h151v-403
q21 -49 21 -98q0 -67 -39.5 -112t-96 -63t-126.5 -18q-139 0 -225 56zM372 208v120q-34 42 -90 42q-48 0 -76 -30.5t-28 -71.5t28 -71.5t76 -30.5q56 0 90 42z" />
    <glyph glyph-name="Gcommaaccent" unicode="&#x122;" horiz-adv-x="729" 
d="M34 355q0 150 106.5 256.5t256.5 106.5q178 0 287 -134l-121 -99q-33 41 -71.5 60t-94.5 19q-85 0 -143.5 -61.5t-58.5 -147.5t58.5 -147.5t143.5 -61.5q88 0 137 35v99h-171l68 150h258v-322q-101 -116 -292 -116q-150 0 -256.5 106.5t-106.5 256.5zM330 -50h138
l-85 -218h-87z" />
    <glyph glyph-name="gcommaaccent" unicode="&#x123;" horiz-adv-x="583" 
d="M360 542h-138l85 218h87zM57 -138l68 133q66 -51 147 -51q50 0 82 19t32 61q0 24 -13 42q-46 -38 -111 -38q-108 0 -172 71.5t-64 168.5t64 168.5t172 71.5q64 0 110 -38v30h151v-403q21 -49 21 -98q0 -67 -39.5 -112t-96 -63t-126.5 -18q-139 0 -225 56zM372 208v120
q-34 42 -90 42q-48 0 -76 -30.5t-28 -71.5t28 -71.5t76 -30.5q56 0 90 42z" />
    <glyph glyph-name="Hcircumflex" unicode="&#x124;" horiz-adv-x="738" 
d="M192 855l177 76l177 -76l-41 -96l-136 59l-136 -59zM67 710h160v-278h284v278h160v-710h-160v278h-284v-278h-160v710z" />
    <glyph glyph-name="hcircumflex" unicode="&#x125;" 
d="M127 855l177 76l177 -76l-41 -96l-136 59l-136 -59zM59 710h151v-241q47 39 115 39q104 0 161 -62.5t57 -166.5v-279h-151v252q0 54 -22.5 86t-69.5 32q-52 0 -90 -43v-327h-151v710z" />
    <glyph glyph-name="Hbar" unicode="&#x126;" horiz-adv-x="738" 
d="M0 625h67v85h160v-85h284v85h160v-85h67v-108h-67v-517h-160v278h-284v-278h-160v517h-67v108zM511 432v85h-284v-85h284z" />
    <glyph glyph-name="hbar" unicode="&#x127;" 
d="M59 562h-69v98h69v50h151v-50h129v-98h-129v-93q47 39 115 39q104 0 161 -62.5t57 -166.5v-279h-151v252q0 54 -22.5 86t-69.5 32q-52 0 -90 -43v-327h-151v562z" />
    <glyph glyph-name="Itilde" unicode="&#x128;" horiz-adv-x="295" 
d="M-41 806q7 53 41.5 84.5t75.5 31.5q32 0 73 -20t53 -20q17 0 27 9.5t16 32.5h96l-4 -29q-7 -53 -41.5 -84.5t-75.5 -31.5q-32 0 -73 20t-53 20q-17 0 -27 -9.5t-16 -32.5h-96zM67 710h160v-710h-160v710z" />
    <glyph glyph-name="itilde" unicode="&#x129;" horiz-adv-x="270" 
d="M-54 583q7 53 41.5 84.5t75.5 31.5q32 0 73.5 -20t52.5 -20q17 0 27 9.5t16 32.5h96l-4 -29q-7 -53 -41.5 -84.5t-75.5 -31.5q-33 0 -73.5 20t-52.5 20q-17 0 -27 -9.5t-16 -32.5h-96zM59 500h152v-500h-152v500z" />
    <glyph glyph-name="Imacron" unicode="&#x12a;" horiz-adv-x="295" 
d="M-17 898h330v-96h-330v96zM67 710h160v-710h-160v710z" />
    <glyph glyph-name="imacron" unicode="&#x12b;" horiz-adv-x="270" 
d="M-30 675h330v-96h-330v96zM59 500h152v-500h-152v500z" />
    <glyph glyph-name="Ibreve" unicode="&#x12c;" horiz-adv-x="295" 
d="M-37 953h86q0 -41 28.5 -69.5t69.5 -28.5t69.5 28.5t28.5 69.5h86q0 -77 -53.5 -130.5t-130.5 -53.5t-130.5 53.5t-53.5 130.5zM67 710h160v-710h-160v710z" />
    <glyph glyph-name="ibreve" unicode="&#x12d;" horiz-adv-x="270" 
d="M-49 710h86q0 -39 27.5 -58.5t70.5 -19.5t70.5 19.5t27.5 58.5h86q0 -75 -52.5 -119.5t-131.5 -44.5t-131.5 44.5t-52.5 119.5zM59 500h152v-500h-152v500z" />
    <glyph glyph-name="Iogonek" unicode="&#x12e;" horiz-adv-x="295" 
d="M67 710h160v-710h1q-34 -15 -47 -26.5t-13 -29.5q0 -30 32 -30q22 0 35 13v-87q-38 -29 -90 -29q-51 0 -84 31t-33 76q0 50 39 82v710z" />
    <glyph glyph-name="iogonek" unicode="&#x12f;" horiz-adv-x="270" 
d="M45 628q0 38 26.5 64t63.5 26t63.5 -26t26.5 -64q0 -34 -20 -57h-140q-20 23 -20 57zM20 -82q0 50 39 82v500h151v-500q-57 -27 -57 -56q0 -13 8.5 -21.5t21.5 -8.5q14 0 27 13v-87q-29 -29 -83 -29q-44 0 -75.5 31.5t-31.5 75.5z" />
    <glyph glyph-name="Idotaccent" unicode="&#x130;" horiz-adv-x="295" 
d="M61 850q0 36 25.5 61.5t61.5 25.5t61.5 -25.5t25.5 -61.5t-25.5 -61.5t-61.5 -25.5t-61.5 25.5t-25.5 61.5zM67 710h160v-710h-160v710z" />
    <glyph glyph-name="dotlessi" unicode="&#x131;" horiz-adv-x="270" 
d="M59 500h152v-500h-152v500z" />
    <glyph glyph-name="Jcircumflex" unicode="&#x134;" horiz-adv-x="507" 
d="M193 855l177 76l177 -76l-41 -96l-136 59l-136 -59zM10 212h160q0 -71 60 -71t60 71v498h160v-508q0 -106 -61.5 -158t-158.5 -52t-158.5 55t-61.5 165z" />
    <glyph glyph-name="jcircumflex" unicode="&#x135;" horiz-adv-x="270" 
d="M-43 637l178 91l178 -91l-48 -91l-130 62l-130 -62zM-45 -41h25q39 0 59 13t20 47v481h152v-500q0 -89 -59.5 -136.5t-161.5 -47.5h-35v143z" />
    <glyph glyph-name="Kcommaaccent" unicode="&#x136;" horiz-adv-x="671" 
d="M67 710h160v-356l248 356h184l-249 -358l281 -352h-198l-266 333v-333h-160v710zM280 -50h138l-85 -218h-87z" />
    <glyph glyph-name="kcommaaccent" unicode="&#x137;" horiz-adv-x="561" 
d="M59 710h151v-438l163 228h174l-170 -237l196 -263h-178l-185 249v-249h-151v710zM237 -50h138l-85 -218h-87z" />
    <glyph glyph-name="Lacute" unicode="&#x139;" horiz-adv-x="518" 
d="M163 923h166l-126 -145h-110zM67 710h160v-551h276v-159h-436v710z" />
    <glyph glyph-name="lacute" unicode="&#x13a;" horiz-adv-x="270" 
d="M127 923h166l-126 -145h-110zM59 710h151v-710h-151v710z" />
    <glyph glyph-name="Lcommaaccent" unicode="&#x13b;" horiz-adv-x="518" 
d="M67 710h160v-551h276v-159h-436v710zM200 -50h138l-85 -218h-87z" />
    <glyph glyph-name="lcommaaccent" unicode="&#x13c;" horiz-adv-x="270" 
d="M59 710h151v-710h-151v710zM66 -50h138l-85 -218h-87z" />
    <glyph glyph-name="Lcaron" unicode="&#x13d;" horiz-adv-x="518" 
d="M67 710h160v-551h276v-159h-436v710zM380 550h-102l20 160h151z" />
    <glyph glyph-name="lcaron" unicode="&#x13e;" horiz-adv-x="269" 
d="M59 710h151v-710h-151v710zM342 550h-102l20 160h151z" />
    <glyph glyph-name="Ldot" unicode="&#x13f;" horiz-adv-x="518" 
d="M67 710h160v-551h276v-159h-436v710zM320 445q0 36 25.5 61.5t61.5 25.5t61.5 -25.5t25.5 -61.5t-25.5 -61.5t-61.5 -25.5t-61.5 25.5t-25.5 61.5z" />
    <glyph glyph-name="ldot" unicode="&#x140;" horiz-adv-x="413" 
d="M59 710h151v-710h-151v710zM255 375q0 36 25.5 61.5t61.5 25.5t61.5 -25.5t25.5 -61.5t-25.5 -61.5t-61.5 -25.5t-61.5 25.5t-25.5 61.5z" />
    <glyph glyph-name="Lslash" unicode="&#x141;" horiz-adv-x="552" 
d="M-30 299l131 75v336h160v-245l106 61l65 -114l-171 -98v-155h276v-159h-436v222l-66 -37z" />
    <glyph glyph-name="lslash" unicode="&#x142;" horiz-adv-x="376" 
d="M-11 304l123 70v336h151v-250l72 41l56 -98l-128 -73v-330h-151v244l-67 -38z" />
    <glyph glyph-name="Nacute" unicode="&#x143;" horiz-adv-x="742" 
d="M356 923h166l-126 -145h-110zM227 371v-371h-160v718l448 -379v371h160v-718z" />
    <glyph glyph-name="nacute" unicode="&#x144;" 
d="M297 710h173l-143 -155h-110zM59 500h151v-31q47 39 115 39q104 0 161 -62.5t57 -166.5v-279h-151v252q0 54 -22.5 86t-69.5 32q-52 0 -90 -43v-327h-151v500z" />
    <glyph glyph-name="Ncommaaccent" unicode="&#x145;" horiz-adv-x="742" 
d="M227 371v-371h-160v718l448 -379v371h160v-718zM348 -50h138l-85 -218h-87z" />
    <glyph glyph-name="ncommaaccent" unicode="&#x146;" 
d="M59 500h151v-31q47 39 115 39q104 0 161 -62.5t57 -166.5v-279h-151v252q0 54 -22.5 86t-69.5 32q-52 0 -90 -43v-327h-151v500zM232 -50h138l-85 -218h-87z" />
    <glyph glyph-name="Ncaron" unicode="&#x147;" horiz-adv-x="742" 
d="M195 835l41 96l136 -59l136 59l41 -96l-177 -76zM227 371v-371h-160v718l448 -379v371h160v-718z" />
    <glyph glyph-name="ncaron" unicode="&#x148;" 
d="M130 637l178 -91l178 91l-48 91l-130 -62l-130 62zM59 500h151v-31q47 39 115 39q104 0 161 -62.5t57 -166.5v-279h-151v252q0 54 -22.5 86t-69.5 32q-52 0 -90 -43v-327h-151v500z" />
    <glyph glyph-name="Eng" unicode="&#x14a;" horiz-adv-x="742" 
d="M419 -184v129h26q70 0 70 71v111l-288 244v-371h-160v718l448 -379v371h160v-714q0 -82 -48.5 -131t-129.5 -49h-78z" />
    <glyph glyph-name="eng" unicode="&#x14b;" 
d="M59 500h151v-31q47 39 115 39q104 0 161 -62.5t57 -166.5v-279q-5 -84 -58 -134t-138 -50h-60v143h39q33 0 49 14t17 45v244q-2 49 -25 78.5t-67 29.5q-52 0 -90 -43v-327h-151v500z" />
    <glyph glyph-name="Omacron" unicode="&#x14c;" horiz-adv-x="794" 
d="M232 898h330v-96h-330v96zM34 355q0 150 106.5 256.5t256.5 106.5t256.5 -106.5t106.5 -256.5t-106.5 -256.5t-256.5 -106.5t-256.5 106.5t-106.5 256.5zM599 355q0 86 -58.5 147.5t-143.5 61.5t-143.5 -61.5t-58.5 -147.5t58.5 -147.5t143.5 -61.5t143.5 61.5
t58.5 147.5z" />
    <glyph glyph-name="omacron" unicode="&#x14d;" horiz-adv-x="580" 
d="M125 675h330v-96h-330v96zM30 250q0 107 76 182.5t184 75.5t184 -75.5t76 -182.5t-76 -182.5t-184 -75.5t-184 75.5t-76 182.5zM398 250q0 51 -30.5 84t-77.5 33t-77.5 -33t-30.5 -84t30.5 -84t77.5 -33t77.5 33t30.5 84z" />
    <glyph glyph-name="Obreve" unicode="&#x14e;" horiz-adv-x="794" 
d="M213 953h86q0 -41 28.5 -69.5t69.5 -28.5t69.5 28.5t28.5 69.5h86q0 -77 -53.5 -130.5t-130.5 -53.5t-130.5 53.5t-53.5 130.5zM34 355q0 150 106.5 256.5t256.5 106.5t256.5 -106.5t106.5 -256.5t-106.5 -256.5t-256.5 -106.5t-256.5 106.5t-106.5 256.5zM599 355
q0 86 -58.5 147.5t-143.5 61.5t-143.5 -61.5t-58.5 -147.5t58.5 -147.5t143.5 -61.5t143.5 61.5t58.5 147.5z" />
    <glyph glyph-name="obreve" unicode="&#x14f;" horiz-adv-x="580" 
d="M106 710h86q0 -39 27.5 -58.5t70.5 -19.5t70.5 19.5t27.5 58.5h86q0 -75 -52.5 -119.5t-131.5 -44.5t-131.5 44.5t-52.5 119.5zM30 250q0 107 76 182.5t184 75.5t184 -75.5t76 -182.5t-76 -182.5t-184 -75.5t-184 75.5t-76 182.5zM398 250q0 51 -30.5 84t-77.5 33
t-77.5 -33t-30.5 -84t30.5 -84t77.5 -33t77.5 33t30.5 84z" />
    <glyph glyph-name="Ohungarumlaut" unicode="&#x150;" horiz-adv-x="794" 
d="M308 923h148l-125 -145h-93zM509 923h148l-125 -145h-93zM34 355q0 150 106.5 256.5t256.5 106.5t256.5 -106.5t106.5 -256.5t-106.5 -256.5t-256.5 -106.5t-256.5 106.5t-106.5 256.5zM599 355q0 86 -58.5 147.5t-143.5 61.5t-143.5 -61.5t-58.5 -147.5t58.5 -147.5
t143.5 -61.5t143.5 61.5t58.5 147.5z" />
    <glyph glyph-name="ohungarumlaut" unicode="&#x151;" horiz-adv-x="580" 
d="M215 710h143l-143 -155h-80zM407 710h143l-143 -155h-80zM30 250q0 107 76 182.5t184 75.5t184 -75.5t76 -182.5t-76 -182.5t-184 -75.5t-184 75.5t-76 182.5zM398 250q0 51 -30.5 84t-77.5 33t-77.5 -33t-30.5 -84t30.5 -84t77.5 -33t77.5 33t30.5 84z" />
    <glyph glyph-name="OE" unicode="&#x152;" horiz-adv-x="1014" 
d="M973 710v-158h-272q36 -54 50 -120h179v-154h-179q-13 -65 -50 -120h273v-158h-441v18q-64 -26 -136 -26q-150 0 -256.5 106.5t-106.5 256.5t106.5 256.5t256.5 106.5q69 0 136 -27v19h440zM599 355q0 86 -58.5 147.5t-143.5 61.5t-143.5 -61.5t-58.5 -147.5t58.5 -147.5
t143.5 -61.5t143.5 61.5t58.5 147.5z" />
    <glyph glyph-name="oe" unicode="&#x153;" horiz-adv-x="926" 
d="M30 250q0 107 76 182.5t184 75.5q105 0 180 -73q71 73 186 73q101 0 171 -64t70 -177q0 -21 -3 -44h-351q5 -46 37.5 -69.5t71.5 -23.5q73 0 107 63l120 -81q-35 -55 -94 -87.5t-132 -32.5q-106 0 -180 74q-76 -74 -183 -74q-108 0 -184 75.5t-76 182.5zM544 311h204
q-6 38 -34 57t-67 19q-33 0 -63.5 -17.5t-39.5 -58.5zM398 250q0 51 -30.5 84t-77.5 33t-77.5 -33t-30.5 -84t30.5 -84t77.5 -33t77.5 33t30.5 84z" />
    <glyph glyph-name="Racute" unicode="&#x154;" horiz-adv-x="625" 
d="M292 923h166l-126 -145h-110zM229 288h-2v-288h-160v710h268q87 0 149 -62t62 -149q0 -66 -37.5 -120t-99.5 -78l231 -301h-191zM317 423q32 0 53 20t21 50t-21 50.5t-53 20.5h-90v-141h90z" />
    <glyph glyph-name="racute" unicode="&#x155;" horiz-adv-x="392" 
d="M214 710h173l-143 -155h-110zM59 500h151v-44q43 52 114 52q29 0 54 -8v-157q-33 17 -77 17q-53 0 -91 -33v-327h-151v500z" />
    <glyph glyph-name="Rcommaaccent" unicode="&#x156;" horiz-adv-x="625" 
d="M229 288h-2v-288h-160v710h268q87 0 149 -62t62 -149q0 -66 -37.5 -120t-99.5 -78l231 -301h-191zM317 423q32 0 53 20t21 50t-21 50.5t-53 20.5h-90v-141h90zM262 -50h138l-85 -218h-87z" />
    <glyph glyph-name="rcommaaccent" unicode="&#x157;" horiz-adv-x="392" 
d="M59 500h151v-44q43 52 114 52q29 0 54 -8v-157q-33 17 -77 17q-53 0 -91 -33v-327h-151v500zM64 -50h138l-85 -218h-87z" />
    <glyph glyph-name="Rcaron" unicode="&#x158;" horiz-adv-x="625" 
d="M104 835l41 96l136 -59l136 59l41 -96l-177 -76zM229 288h-2v-288h-160v710h268q87 0 149 -62t62 -149q0 -66 -37.5 -120t-99.5 -78l231 -301h-191zM317 423q32 0 53 20t21 50t-21 50.5t-53 20.5h-90v-141h90z" />
    <glyph glyph-name="rcaron" unicode="&#x159;" horiz-adv-x="392" 
d="M41 637l178 -91l178 91l-48 91l-130 -62l-130 62zM59 500h151v-44q43 52 114 52q29 0 54 -8v-157q-33 17 -77 17q-53 0 -91 -33v-327h-151v500z" />
    <glyph glyph-name="Sacute" unicode="&#x15a;" horiz-adv-x="520" 
d="M267 923h166l-126 -145h-110zM17 131l121 99q24 -38 59.5 -63t71.5 -25q68 0 68 51q0 24 -18.5 41t-64.5 38l-40 18q-80 36 -123 93.5t-43 129.5q0 90 64 147.5t152 57.5q63 0 109.5 -19.5t89.5 -69.5l-108 -114q-26 32 -45.5 42.5t-45.5 10.5q-22 0 -38.5 -13t-16.5 -36
q0 -26 21.5 -44.5t74.5 -41.5l38 -17q155 -70 155 -213q0 -95 -63 -153t-163 -58q-87 0 -153 35.5t-102 103.5z" />
    <glyph glyph-name="sacute" unicode="&#x15b;" horiz-adv-x="415" 
d="M215 710h173l-143 -155h-110zM6 98l115 78q34 -61 92 -61q39 0 39 23q0 13 -11.5 21t-51.5 23l-26 10q-132 52 -132 161q0 68 49.5 111.5t122.5 43.5q103 0 158 -79l-86 -85q-32 45 -72 45q-36 0 -36 -23q0 -14 12 -21.5t54 -23.5l21 -8q70 -27 102 -66.5t32 -95.5
q0 -74 -51 -116.5t-130 -42.5q-140 0 -201 106z" />
    <glyph glyph-name="Scircumflex" unicode="&#x15c;" horiz-adv-x="520" 
d="M88 855l177 76l177 -76l-41 -96l-136 59l-136 -59zM17 131l121 99q24 -38 59.5 -63t71.5 -25q68 0 68 51q0 24 -18.5 41t-64.5 38l-40 18q-80 36 -123 93.5t-43 129.5q0 90 64 147.5t152 57.5q63 0 109.5 -19.5t89.5 -69.5l-108 -114q-26 32 -45.5 42.5t-45.5 10.5
q-22 0 -38.5 -13t-16.5 -36q0 -26 21.5 -44.5t74.5 -41.5l38 -17q155 -70 155 -213q0 -95 -63 -153t-163 -58q-87 0 -153 35.5t-102 103.5z" />
    <glyph glyph-name="scircumflex" unicode="&#x15d;" horiz-adv-x="415" 
d="M19 637l178 91l178 -91l-48 -91l-130 62l-130 -62zM6 98l115 78q34 -61 92 -61q39 0 39 23q0 13 -11.5 21t-51.5 23l-26 10q-132 52 -132 161q0 68 49.5 111.5t122.5 43.5q103 0 158 -79l-86 -85q-32 45 -72 45q-36 0 -36 -23q0 -14 12 -21.5t54 -23.5l21 -8
q70 -27 102 -66.5t32 -95.5q0 -74 -51 -116.5t-130 -42.5q-140 0 -201 106z" />
    <glyph glyph-name="Scedilla" unicode="&#x15e;" horiz-adv-x="520" 
d="M212 -3q-135 20 -195 134l121 99q24 -38 59.5 -63t71.5 -25q68 0 68 51q0 24 -18.5 41t-64.5 38l-40 18q-80 36 -123 93.5t-43 129.5q0 90 64 147.5t152 57.5q63 0 109.5 -19.5t89.5 -69.5l-108 -114q-26 32 -45.5 42.5t-45.5 10.5q-22 0 -38.5 -13t-16.5 -36
q0 -26 21.5 -44.5t74.5 -41.5l38 -17q155 -70 155 -213q0 -84 -50 -140t-133 -68l-33 -129h-127z" />
    <glyph glyph-name="scedilla" unicode="&#x15f;" horiz-adv-x="415" 
d="M154 -3q-99 16 -148 101l115 78q34 -61 92 -61q39 0 39 23q0 13 -11.5 21t-51.5 23l-26 10q-132 52 -132 161q0 68 49.5 111.5t122.5 43.5q103 0 158 -79l-86 -85q-32 45 -72 45q-36 0 -36 -23q0 -14 12 -21.5t54 -23.5l21 -8q70 -27 102 -66.5t32 -95.5q0 -62 -36 -102
t-95 -52l-33 -131h-127z" />
    <glyph glyph-name="Scaron" unicode="&#x160;" horiz-adv-x="520" 
d="M88 835l41 96l136 -59l136 59l41 -96l-177 -76zM17 131l121 99q24 -38 59.5 -63t71.5 -25q68 0 68 51q0 24 -18.5 41t-64.5 38l-40 18q-80 36 -123 93.5t-43 129.5q0 90 64 147.5t152 57.5q63 0 109.5 -19.5t89.5 -69.5l-108 -114q-26 32 -45.5 42.5t-45.5 10.5
q-22 0 -38.5 -13t-16.5 -36q0 -26 21.5 -44.5t74.5 -41.5l38 -17q155 -70 155 -213q0 -95 -63 -153t-163 -58q-87 0 -153 35.5t-102 103.5z" />
    <glyph glyph-name="scaron" unicode="&#x161;" horiz-adv-x="415" 
d="M26 637l178 -91l178 91l-48 91l-130 -62l-130 62zM6 98l115 78q34 -61 92 -61q39 0 39 23q0 13 -11.5 21t-51.5 23l-26 10q-132 52 -132 161q0 68 49.5 111.5t122.5 43.5q103 0 158 -79l-86 -85q-32 45 -72 45q-36 0 -36 -23q0 -14 12 -21.5t54 -23.5l21 -8
q70 -27 102 -66.5t32 -95.5q0 -74 -51 -116.5t-130 -42.5q-140 0 -201 106z" />
    <glyph glyph-name="uni0162" unicode="&#x162;" horiz-adv-x="539" 
d="M189 552h-170v158h501v-158h-171v-552h-160v552zM201 -50h138l-85 -218h-87z" />
    <glyph glyph-name="uni0163" unicode="&#x163;" horiz-adv-x="412" 
d="M-12 500h98v75l151 75v-150h158l-33 -132h-125v-171q0 -31 13.5 -45t44.5 -14h82v-138h-138q-71 0 -112 41.5t-41 112.5v214h-65zM161 -50h138l-85 -218h-87z" />
    <glyph glyph-name="Tcaron" unicode="&#x164;" horiz-adv-x="539" 
d="M92 835l41 96l136 -59l136 59l41 -96l-177 -76zM189 552h-170v158h501v-158h-171v-552h-160v552z" />
    <glyph glyph-name="tcaron" unicode="&#x165;" horiz-adv-x="412" 
d="M390 550h-102l20 160h151zM-12 500h98v75l151 75v-150h158l-33 -132h-125v-171q0 -31 13.5 -45t44.5 -14h82v-138h-138q-71 0 -112 41.5t-41 112.5v214h-65z" />
    <glyph glyph-name="Tbar" unicode="&#x166;" horiz-adv-x="539" 
d="M189 314h-141v128h141v110h-170v158h501v-158h-171v-110h142v-128h-142v-314h-160v314z" />
    <glyph glyph-name="tbar" unicode="&#x167;" horiz-adv-x="412" 
d="M-12 500h98v75l151 75v-150h158l-33 -132h-125v-63h141v-88h-141v-20q0 -31 13.5 -45t44.5 -14h82v-138h-138q-71 0 -112 41.5t-41 112.5v63h-80v88h80v63h-65z" />
    <glyph glyph-name="Utilde" unicode="&#x168;" horiz-adv-x="702" 
d="M162 806q7 53 41.5 84.5t75.5 31.5q33 0 74 -20t52 -20q17 0 27 9.5t16 32.5h96l-4 -29q-7 -53 -41.5 -84.5t-75.5 -31.5q-33 0 -74 20t-52 20q-17 0 -27 -9.5t-16 -32.5h-96zM60 288v422h160v-424q0 -64 36 -102t95 -38t95 38t36 102v424h160v-422q0 -133 -81.5 -214.5
t-209.5 -81.5t-209.5 81.5t-81.5 214.5z" />
    <glyph glyph-name="utilde" unicode="&#x169;" 
d="M117 583q7 53 41.5 84.5t75.5 31.5q32 0 73 -20t53 -20q17 0 27 9.5t16 32.5h96l-4 -29q-7 -53 -41.5 -84.5t-75.5 -31.5q-32 0 -73 20t-53 20q-17 0 -27 -9.5t-16 -32.5h-96zM387 37q-48 -45 -119 -45q-100 0 -157 62.5t-57 166.5v279h151v-252q0 -53 22.5 -85.5
t65.5 -32.5q63 0 94 50v320h151v-500h-151v37z" />
    <glyph glyph-name="Umacron" unicode="&#x16a;" horiz-adv-x="702" 
d="M186 898h330v-96h-330v96zM60 288v422h160v-424q0 -64 36 -102t95 -38t95 38t36 102v424h160v-422q0 -133 -81.5 -214.5t-209.5 -81.5t-209.5 81.5t-81.5 214.5z" />
    <glyph glyph-name="umacron" unicode="&#x16b;" 
d="M131 675h330v-96h-330v96zM387 37q-48 -45 -119 -45q-100 0 -157 62.5t-57 166.5v279h151v-252q0 -53 22.5 -85.5t65.5 -32.5q63 0 94 50v320h151v-500h-151v37z" />
    <glyph glyph-name="Ubreve" unicode="&#x16c;" horiz-adv-x="702" 
d="M167 953h86q0 -41 28.5 -69.5t69.5 -28.5t69.5 28.5t28.5 69.5h86q0 -77 -53.5 -130.5t-130.5 -53.5t-130.5 53.5t-53.5 130.5zM60 288v422h160v-424q0 -64 36 -102t95 -38t95 38t36 102v424h160v-422q0 -133 -81.5 -214.5t-209.5 -81.5t-209.5 81.5t-81.5 214.5z" />
    <glyph glyph-name="ubreve" unicode="&#x16d;" 
d="M112 710h86q0 -39 27.5 -58.5t70.5 -19.5t70.5 19.5t27.5 58.5h86q0 -75 -52.5 -119.5t-131.5 -44.5t-131.5 44.5t-52.5 119.5zM387 37q-48 -45 -119 -45q-100 0 -157 62.5t-57 166.5v279h151v-252q0 -53 22.5 -85.5t65.5 -32.5q63 0 94 50v320h151v-500h-151v37z" />
    <glyph glyph-name="Uring" unicode="&#x16e;" horiz-adv-x="702" 
d="M231 879q0 49 35.5 84.5t84.5 35.5t84.5 -35.5t35.5 -84.5t-35.5 -84.5t-84.5 -35.5t-84.5 35.5t-35.5 84.5zM398 879q0 19 -14 33t-33 14t-33 -14t-14 -33t14 -33t33 -14t33 14t14 33zM60 288v422h160v-424q0 -64 36 -102t95 -38t95 38t36 102v424h160v-422
q0 -133 -81.5 -214.5t-209.5 -81.5t-209.5 81.5t-81.5 214.5z" />
    <glyph glyph-name="uring" unicode="&#x16f;" 
d="M176 666q0 50 35 85t85 35t85 -35t35 -85t-35 -85t-85 -35t-85 35t-35 85zM343 666q0 20 -13.5 33.5t-33.5 13.5t-33.5 -13.5t-13.5 -33.5t13.5 -33.5t33.5 -13.5t33.5 13.5t13.5 33.5zM387 37q-48 -45 -119 -45q-100 0 -157 62.5t-57 166.5v279h151v-252
q0 -53 22.5 -85.5t65.5 -32.5q63 0 94 50v320h151v-500h-151v37z" />
    <glyph glyph-name="Uhungarumlaut" unicode="&#x170;" horiz-adv-x="702" 
d="M272 923h148l-125 -145h-93zM473 923h148l-125 -145h-93zM60 288v422h160v-424q0 -64 36 -102t95 -38t95 38t36 102v424h160v-422q0 -133 -81.5 -214.5t-209.5 -81.5t-209.5 81.5t-81.5 214.5z" />
    <glyph glyph-name="uhungarumlaut" unicode="&#x171;" 
d="M229 710h143l-143 -155h-80zM421 710h143l-143 -155h-80zM387 37q-48 -45 -119 -45q-100 0 -157 62.5t-57 166.5v279h151v-252q0 -53 22.5 -85.5t65.5 -32.5q63 0 94 50v320h151v-500h-151v37z" />
    <glyph glyph-name="Uogonek" unicode="&#x172;" horiz-adv-x="702" 
d="M248 -82q0 49 37 81q-102 20 -163.5 97.5t-61.5 191.5v422h160v-424q0 -64 36 -102t95 -38t95 38t36 102v424h160v-422q0 -107 -54 -182t-145 -102q-55 -27 -55 -60q0 -30 32 -30q22 0 35 13v-87q-38 -29 -90 -29q-51 0 -84 31t-33 76z" />
    <glyph glyph-name="uogonek" unicode="&#x173;" 
d="M348 -82q0 50 39 82v37q-48 -45 -119 -45q-100 0 -157 62.5t-57 166.5v279h151v-252q0 -53 22.5 -85.5t65.5 -32.5q63 0 94 50v320h151v-500q-57 -27 -57 -56q0 -13 8.5 -21.5t21.5 -8.5q14 0 27 13v-87q-29 -29 -83 -29q-44 0 -75.5 31.5t-31.5 75.5z" />
    <glyph glyph-name="Wcircumflex" unicode="&#x174;" horiz-adv-x="876" 
d="M261 855l177 76l177 -76l-41 -96l-136 59l-136 -59zM5 710h163l110 -333l160 341l160 -341l110 333h163l-246 -718l-187 409l-187 -409z" />
    <glyph glyph-name="wcircumflex" unicode="&#x175;" horiz-adv-x="730" 
d="M187 637l178 91l178 -91l-48 -91l-130 62l-130 -62zM0 500h159l83 -281l123 289l123 -289l83 281h159l-159 -500h-115l-91 205l-91 -205h-115z" />
    <glyph glyph-name="Ycircumflex" unicode="&#x176;" horiz-adv-x="656" 
d="M151 855l177 76l177 -76l-41 -96l-136 59l-136 -59zM248 298l-263 412h187l156 -252l156 252h187l-263 -412v-298h-160v298z" />
    <glyph glyph-name="ycircumflex" unicode="&#x177;" horiz-adv-x="518" 
d="M81 637l178 91l178 -91l-48 -91l-130 62l-130 -62zM179 0l-184 500h160l104 -316l104 316h160l-252 -684h-160z" />
    <glyph glyph-name="Ydieresis" unicode="&#x178;" horiz-adv-x="656" 
d="M129 850q0 33 23.5 56.5t56.5 23.5t56.5 -23.5t23.5 -56.5t-23.5 -56.5t-56.5 -23.5t-56.5 23.5t-23.5 56.5zM367 850q0 33 23.5 56.5t56.5 23.5t56.5 -23.5t23.5 -56.5t-23.5 -56.5t-56.5 -23.5t-56.5 23.5t-23.5 56.5zM248 298l-263 412h187l156 -252l156 252h187
l-263 -412v-298h-160v298z" />
    <glyph glyph-name="Zacute" unicode="&#x179;" horiz-adv-x="624" 
d="M314 923h166l-126 -145h-110zM337 552h-287v158h560l-329 -552h308v-158h-581z" />
    <glyph glyph-name="zacute" unicode="&#x17a;" horiz-adv-x="513" 
d="M263 710h173l-143 -155h-110zM244 370h-202v130h454l-231 -369h216v-131h-469z" />
    <glyph glyph-name="Zdotaccent" unicode="&#x17b;" horiz-adv-x="624" 
d="M242 850q0 36 25.5 61.5t61.5 25.5t61.5 -25.5t25.5 -61.5t-25.5 -61.5t-61.5 -25.5t-61.5 25.5t-25.5 61.5zM337 552h-287v158h560l-329 -552h308v-158h-581z" />
    <glyph glyph-name="zdotaccent" unicode="&#x17c;" horiz-adv-x="513" 
d="M181 647q0 36 25.5 61.5t61.5 25.5t61.5 -25.5t25.5 -61.5t-25.5 -61.5t-61.5 -25.5t-61.5 25.5t-25.5 61.5zM244 370h-202v130h454l-231 -369h216v-131h-469z" />
    <glyph glyph-name="Zcaron" unicode="&#x17d;" horiz-adv-x="624" 
d="M153 835l41 96l136 -59l136 59l41 -96l-177 -76zM337 552h-287v158h560l-329 -552h308v-158h-581z" />
    <glyph glyph-name="zcaron" unicode="&#x17e;" horiz-adv-x="513" 
d="M91 637l178 -91l178 91l-48 91l-130 -62l-130 62zM244 370h-202v130h454l-231 -369h216v-131h-469z" />
    <glyph glyph-name="Scommaaccent" unicode="&#x218;" horiz-adv-x="520" 
d="M17 131l121 99q24 -38 59.5 -63t71.5 -25q68 0 68 51q0 24 -18.5 41t-64.5 38l-40 18q-80 36 -123 93.5t-43 129.5q0 90 64 147.5t152 57.5q63 0 109.5 -19.5t89.5 -69.5l-108 -114q-26 32 -45.5 42.5t-45.5 10.5q-22 0 -38.5 -13t-16.5 -36q0 -26 21.5 -44.5t74.5 -41.5
l38 -17q155 -70 155 -213q0 -95 -63 -153t-163 -58q-87 0 -153 35.5t-102 103.5zM196 -50h138l-85 -218h-87z" />
    <glyph glyph-name="scommaaccent" unicode="&#x219;" horiz-adv-x="415" 
d="M6 98l115 78q34 -61 92 -61q39 0 39 23q0 13 -11.5 21t-51.5 23l-26 10q-132 52 -132 161q0 68 49.5 111.5t122.5 43.5q103 0 158 -79l-86 -85q-32 45 -72 45q-36 0 -36 -23q0 -14 12 -21.5t54 -23.5l21 -8q70 -27 102 -66.5t32 -95.5q0 -74 -51 -116.5t-130 -42.5
q-140 0 -201 106zM128 -50h138l-85 -218h-87z" />
    <glyph glyph-name="uni021A" unicode="&#x21a;" horiz-adv-x="539" 
d="M189 552h-170v158h501v-158h-171v-552h-160v552zM201 -50h138l-85 -218h-87z" />
    <glyph glyph-name="uni021B" unicode="&#x21b;" horiz-adv-x="412" 
d="M-12 500h98v75l151 75v-150h158l-33 -132h-125v-171q0 -31 13.5 -45t44.5 -14h82v-138h-138q-71 0 -112 41.5t-41 112.5v214h-65zM161 -50h138l-85 -218h-87z" />
    <glyph glyph-name="uni0232" unicode="&#x232;" horiz-adv-x="656" 
d="M163 898h330v-96h-330v96zM248 298l-263 412h187l156 -252l156 252h187l-263 -412v-298h-160v298z" />
    <glyph glyph-name="uni0233" unicode="&#x233;" horiz-adv-x="518" 
d="M94 675h330v-96h-330v96zM179 0l-184 500h160l104 -316l104 316h160l-252 -684h-160z" />
    <glyph glyph-name="uni0237" unicode="&#x237;" horiz-adv-x="270" 
d="M-45 -41h25q39 0 59 13t20 47v481h152v-500q0 -89 -59.5 -136.5t-161.5 -47.5h-35v143z" />
    <glyph glyph-name="circumflex" unicode="&#x2c6;" horiz-adv-x="512" 
d="M78 637l178 91l178 -91l-48 -91l-130 62l-130 -62z" />
    <glyph glyph-name="caron" unicode="&#x2c7;" horiz-adv-x="516" 
d="M80 637l178 -91l178 91l-48 91l-130 -62l-130 62z" />
    <glyph glyph-name="breve" unicode="&#x2d8;" horiz-adv-x="494" 
d="M63 710h86q0 -39 27.5 -58.5t70.5 -19.5t70.5 19.5t27.5 58.5h86q0 -75 -52.5 -119.5t-131.5 -44.5t-131.5 44.5t-52.5 119.5z" />
    <glyph glyph-name="dotaccent" unicode="&#x2d9;" horiz-adv-x="324" 
d="M75 647q0 36 25.5 61.5t61.5 25.5t61.5 -25.5t25.5 -61.5t-25.5 -61.5t-61.5 -25.5t-61.5 25.5t-25.5 61.5z" />
    <glyph glyph-name="ring" unicode="&#x2da;" horiz-adv-x="380" 
d="M70 666q0 50 35 85t85 35t85 -35t35 -85t-35 -85t-85 -35t-85 35t-35 85zM237 666q0 20 -13.5 33.5t-33.5 13.5t-33.5 -13.5t-13.5 -33.5t13.5 -33.5t33.5 -13.5t33.5 13.5t13.5 33.5z" />
    <glyph glyph-name="ogonek" unicode="&#x2db;" horiz-adv-x="352" 
d="M80 -82q0 50 39 82h151q-57 -27 -57 -56q0 -13 8.5 -21.5t21.5 -8.5q14 0 27 13v-87q-29 -29 -83 -29q-44 0 -75.5 31.5t-31.5 75.5z" />
    <glyph glyph-name="tilde" unicode="&#x2dc;" horiz-adv-x="550" 
d="M86 583q7 53 41.5 84.5t75.5 31.5q33 0 74 -20t52 -20q17 0 27 9.5t16 32.5h96l-4 -29q-7 -53 -41.5 -84.5t-75.5 -31.5q-33 0 -74 20t-52 20q-17 0 -27 -9.5t-16 -32.5h-96z" />
    <glyph glyph-name="hungarumlaut" unicode="&#x2dd;" horiz-adv-x="595" 
d="M180 710h143l-143 -155h-80zM372 710h143l-143 -155h-80z" />
    <glyph glyph-name="uni0326" unicode="&#x326;" horiz-adv-x="0" 
d="M-222 -50h138l-85 -218h-87z" />
    <glyph glyph-name="uni032C" unicode="&#x32c;" horiz-adv-x="0" 
d="M-420 -99l178 -101l178 101l-52 91l-126 -72l-126 72z" />
    <glyph glyph-name="uni0394" unicode="&#x394;" horiz-adv-x="806" 
d="M403 718l413 -718h-826zM548 155l-145 252l-145 -252h290z" />
    <glyph glyph-name="uni03A9" unicode="&#x3a9;" horiz-adv-x="834" 
d="M57 149h72q-34 37 -54.5 94.5t-20.5 111.5q0 150 106.5 256.5t256.5 106.5t256.5 -106.5t106.5 -256.5q0 -54 -20.5 -111.5t-54.5 -94.5h72v-149h-319v150q71 15 116 72.5t45 132.5q0 86 -58.5 147.5t-143.5 61.5t-143.5 -61.5t-58.5 -147.5q0 -75 45 -132.5t116 -72.5
v-150h-319v149z" />
    <glyph glyph-name="pi" unicode="&#x3c0;" horiz-adv-x="690" 
d="M436 368h-182v-368h-151v368h-69v132h622v-132h-69v-368h-151v368z" />
    <glyph glyph-name="uni0401" unicode="&#x401;" horiz-adv-x="562" 
d="M93 850q0 33 23.5 56.5t56.5 23.5t56.5 -23.5t23.5 -56.5t-23.5 -56.5t-56.5 -23.5t-56.5 23.5t-23.5 56.5zM331 850q0 33 23.5 56.5t56.5 23.5t56.5 -23.5t23.5 -56.5t-23.5 -56.5t-56.5 -23.5t-56.5 23.5t-23.5 56.5zM72 710h440v-158h-280v-120h220v-154h-220v-120
h280v-158h-440v710z" />
    <glyph glyph-name="uni0402" unicode="&#x402;" horiz-adv-x="741" 
d="M696 218v-8q0 -139 -78 -209.5t-189 -70.5h-11v143h10q47 0 78 30.5t31 85.5v6q0 50 -30 74.5t-83 24.5q-54 0 -96 -19v-275h-160v552h-149v158h501v-158h-192v-124q64 20 142 20q103 0 164.5 -65.5t61.5 -164.5z" />
    <glyph glyph-name="uni0403" unicode="&#x403;" horiz-adv-x="507" 
d="M278 923h166l-126 -145h-110zM232 552v-552h-160v710h415v-158h-255z" />
    <glyph glyph-name="uni0404" unicode="&#x404;" horiz-adv-x="727" 
d="M211 283q22 -61 73 -99t117 -38q55 0 101.5 27t74.5 72l121 -99q-50 -71 -128.5 -112.5t-168.5 -41.5q-150 0 -256.5 106.5t-106.5 256.5t106.5 256.5t256.5 106.5q90 0 168.5 -41.5t128.5 -112.5l-121 -99q-28 45 -74.5 72t-101.5 27q-66 0 -117 -38t-73 -99h281v-144
h-281z" />
    <glyph glyph-name="uni0405" unicode="&#x405;" horiz-adv-x="528" 
d="M21 131l121 99q24 -38 59.5 -63t71.5 -25q68 0 68 51q0 24 -18.5 41t-64.5 38l-40 18q-80 36 -123 93.5t-43 129.5q0 90 64 147.5t152 57.5q63 0 109.5 -19.5t89.5 -69.5l-108 -114q-26 32 -45.5 42.5t-45.5 10.5q-22 0 -38.5 -13t-16.5 -36q0 -26 21.5 -44.5t74.5 -41.5
l38 -17q155 -70 155 -213q0 -95 -63 -153t-163 -58q-87 0 -153 35.5t-102 103.5z" />
    <glyph glyph-name="uni0406" unicode="&#x406;" horiz-adv-x="304" 
d="M72 710h160v-710h-160v710z" />
    <glyph glyph-name="uni0407" unicode="&#x407;" horiz-adv-x="304" 
d="M33 760q-33 0 -56.5 23.5t-23.5 56.5t23.5 56.5t56.5 23.5t56.5 -23.5t23.5 -56.5t-23.5 -56.5t-56.5 -23.5zM271 760q-33 0 -56.5 23.5t-23.5 56.5t23.5 56.5t56.5 23.5t56.5 -23.5t23.5 -56.5t-23.5 -56.5t-56.5 -23.5zM72 710h160v-710h-160v710z" />
    <glyph glyph-name="uni0408" unicode="&#x408;" horiz-adv-x="518" 
d="M10 212h160q0 -71 60 -71t60 71v498h160v-508q0 -106 -61.5 -158t-158.5 -52t-158.5 55t-61.5 165z" />
    <glyph glyph-name="uni0409" unicode="&#x409;" horiz-adv-x="933" 
d="M188 0h-178l335 718l119 -256h196q107 0 175 -62t68 -169q0 -105 -68.5 -168t-174.5 -63h-158l-157 355zM534 313l76 -163h48q40 0 65 21t25 60t-25 60.5t-65 21.5h-124z" />
    <glyph glyph-name="uni040A" unicode="&#x40a;" horiz-adv-x="973" 
d="M700 432q110 0 176.5 -59t66.5 -152t-69.5 -157t-173.5 -64h-224v278h-244v-278h-160v710h160v-278h244v278h160v-278h64zM698 150q90 0 90 67q0 61 -90 61h-62v-128h62z" />
    <glyph glyph-name="uni040B" unicode="&#x40b;" horiz-adv-x="755" 
d="M331 0h-160v552h-152v158h501v-158h-189v-123q64 20 142 20q105 0 171 -64t66 -166v-219h-160v177q0 63 -26.5 90.5t-78.5 27.5q-69 0 -114 -20v-275z" />
    <glyph glyph-name="uni040C" unicode="&#x40c;" horiz-adv-x="676" 
d="M368 923h166l-126 -145h-110zM72 710h160v-356l248 356h184l-249 -358l281 -352h-198l-266 333v-333h-160v710z" />
    <glyph glyph-name="uni040E" unicode="&#x40e;" horiz-adv-x="693" 
d="M343 738q-81 0 -130.5 44.5t-52.5 131.5h123q2 -72 60 -72t60 72h123q-3 -87 -52.5 -131.5t-130.5 -44.5zM526 710h182l-353 -710h-182l88 177l-276 533h187l181 -348z" />
    <glyph glyph-name="uni040F" unicode="&#x40f;" horiz-adv-x="708" 
d="M431 -148h-154v148h-205v710h160v-556h244v556h160v-710h-205v-148z" />
    <glyph glyph-name="uni0410" unicode="&#x410;" horiz-adv-x="680" 
d="M340 718l350 -718h-168l-51 110h-262l-51 -110h-168zM407 240l-67 148l-67 -148h134z" />
    <glyph glyph-name="uni0411" unicode="&#x411;" horiz-adv-x="625" 
d="M232 452h125q104 0 173.5 -65t69.5 -161t-69.5 -161t-173.5 -65h-285v710h468v-158h-308v-100zM355 150q40 0 65 20.5t25 55.5t-25 56t-65 21h-123v-153h123z" />
    <glyph glyph-name="uni0412" unicode="&#x412;" horiz-adv-x="636" 
d="M72 710h267q87 0 149 -62t62 -149q0 -72 -50 -122q46 -25 73 -68t27 -98q0 -88 -62.5 -149.5t-152.5 -61.5h-313v710zM321 423q32 0 53 20t21 50t-21 50.5t-53 20.5h-89v-141h89zM370 147q32 0 53 20t21 50t-21 50.5t-53 20.5h-138v-141h138z" />
    <glyph glyph-name="uni0413" unicode="&#x413;" horiz-adv-x="507" 
d="M232 552v-552h-160v710h415v-158h-255z" />
    <glyph glyph-name="uni0414" unicode="&#x414;" horiz-adv-x="772" 
d="M671 154h81v-303h-154v149h-424v-148h-154v302h81l285 564zM386 393l-115 -239h230z" />
    <glyph glyph-name="uni0415" unicode="&#x415;" horiz-adv-x="562" 
d="M72 710h440v-158h-280v-120h220v-154h-220v-120h280v-158h-440v710z" />
    <glyph glyph-name="uni0416" unicode="&#x416;" horiz-adv-x="1048" 
d="M178 0h-198l281 352l-249 358h184l248 -356v356h160v-356l248 356h184l-249 -358l281 -352h-198l-266 333v-333h-160v333z" />
    <glyph glyph-name="uni0417" unicode="&#x417;" horiz-adv-x="563" 
d="M42 629q106 89 237 89q94 0 159.5 -48t65.5 -138q0 -92 -73 -150q97 -56 97 -169q0 -102 -72.5 -161.5t-179.5 -59.5q-153 0 -251 129l117 98q61 -77 136 -77q45 0 68.5 24t23.5 59q0 34 -22 53.5t-61 19.5h-99v135h89q32 0 51.5 19t19.5 50q0 70 -87 70q-41 0 -68.5 -13
t-62.5 -42z" />
    <glyph glyph-name="uni0418" unicode="&#x418;" horiz-adv-x="752" 
d="M520 0v380l-448 -388v718h160v-380l448 388v-718h-160z" />
    <glyph glyph-name="uni0419" unicode="&#x419;" horiz-adv-x="752" 
d="M596 914q-3 -87 -52.5 -131.5t-130.5 -44.5t-130.5 44.5t-52.5 131.5h123q2 -72 60 -72t60 72h123zM520 0v380l-448 -388v718h160v-380l448 388v-718h-160z" />
    <glyph glyph-name="uni041A" unicode="&#x41a;" horiz-adv-x="676" 
d="M72 710h160v-356l248 356h184l-249 -358l281 -352h-198l-266 333v-333h-160v710z" />
    <glyph glyph-name="uni041B" unicode="&#x41b;" horiz-adv-x="680" 
d="M340 373l-181 -373h-169l350 718l350 -718h-170z" />
    <glyph glyph-name="uni041C" unicode="&#x41c;" horiz-adv-x="852" 
d="M72 718l354 -355l354 355v-718h-160v348l-194 -194l-194 194v-348h-160v718z" />
    <glyph glyph-name="uni041D" unicode="&#x41d;" horiz-adv-x="748" 
d="M72 710h160v-278h284v278h160v-710h-160v278h-284v-278h-160v710z" />
    <glyph glyph-name="uni041E" unicode="&#x41e;" horiz-adv-x="802" 
d="M38 355q0 150 106.5 256.5t256.5 106.5t256.5 -106.5t106.5 -256.5t-106.5 -256.5t-256.5 -106.5t-256.5 106.5t-106.5 256.5zM603 355q0 86 -58.5 147.5t-143.5 61.5t-143.5 -61.5t-58.5 -147.5t58.5 -147.5t143.5 -61.5t143.5 61.5t58.5 147.5z" />
    <glyph glyph-name="uni041F" unicode="&#x41f;" horiz-adv-x="733" 
d="M501 556h-269v-556h-160v710h589v-710h-160v556z" />
    <glyph glyph-name="uni0420" unicode="&#x420;" horiz-adv-x="567" 
d="M72 710h234q103 0 173 -70t70 -171t-70 -171t-173 -70h-74v-228h-160v710zM304 377q38 0 64 27.5t26 64.5t-26 64t-64 27h-72v-183h72z" />
    <glyph glyph-name="uni0421" unicode="&#x421;" horiz-adv-x="727" 
d="M38 355q0 150 106.5 256.5t256.5 106.5q90 0 168.5 -41.5t128.5 -112.5l-121 -99q-28 45 -74.5 72t-101.5 27q-85 0 -143.5 -61.5t-58.5 -147.5t58.5 -147.5t143.5 -61.5q55 0 101.5 27t74.5 72l121 -99q-50 -71 -128.5 -112.5t-168.5 -41.5q-150 0 -256.5 106.5
t-106.5 256.5z" />
    <glyph glyph-name="uni0422" unicode="&#x422;" horiz-adv-x="539" 
d="M189 552h-170v158h501v-158h-171v-552h-160v552z" />
    <glyph glyph-name="uni0423" unicode="&#x423;" horiz-adv-x="693" 
d="M526 710h182l-353 -710h-182l88 177l-276 533h187l181 -348z" />
    <glyph glyph-name="uni0424" unicode="&#x424;" horiz-adv-x="932" 
d="M601 671q123 0 210 -85.5t87 -205.5q0 -122 -86.5 -207t-210.5 -85h-55v-88h-160v88h-55q-124 0 -210.5 85t-86.5 207q0 120 87 205.5t210 85.5h55v81h160v-81h55zM335 526q-61 0 -100.5 -42.5t-39.5 -102.5q0 -61 39.5 -104t100.5 -43h51v292h-51zM597 234
q61 0 100.5 43t39.5 104q0 60 -39.5 102.5t-100.5 42.5h-51v-292h51z" />
    <glyph glyph-name="uni0425" unicode="&#x425;" horiz-adv-x="674" 
d="M224 356l-209 354h185l137 -236l137 236h185l-209 -354l224 -356h-186l-151 244l-151 -244h-186z" />
    <glyph glyph-name="uni0426" unicode="&#x426;" horiz-adv-x="765" 
d="M730 -148h-154v148h-504v710h160v-556h244v556h160v-556h94v-302z" />
    <glyph glyph-name="uni0427" unicode="&#x427;" horiz-adv-x="686" 
d="M454 0v258q-64 -20 -152 -20q-107 0 -182 65t-75 165v242h160v-200q0 -61 35 -89.5t90 -28.5q79 0 124 20v298h160v-710h-160z" />
    <glyph glyph-name="uni0428" unicode="&#x428;" horiz-adv-x="964" 
d="M72 710h160v-556h170v556h160v-556h170v556h160v-710h-820v710z" />
    <glyph glyph-name="uni0429" unicode="&#x429;" horiz-adv-x="1020" 
d="M985 -148h-154v148h-759v710h160v-556h170v556h160v-556h170v556h160v-556h93v-302z" />
    <glyph glyph-name="uni042A" unicode="&#x42a;" horiz-adv-x="725" 
d="M452 462q104 0 173.5 -65.5t69.5 -165.5t-69.5 -165.5t-173.5 -65.5h-264v552h-169v158h329v-248h104zM450 150q40 0 65 21t25 60t-25 60.5t-65 21.5h-102v-163h102z" />
    <glyph glyph-name="uni042B" unicode="&#x42b;" horiz-adv-x="898" 
d="M336 462q104 0 173.5 -65.5t69.5 -165.5t-69.5 -165.5t-173.5 -65.5h-264v710h160v-248h104zM666 710h160v-710h-160v710zM334 150q40 0 65 21t25 60t-25 60.5t-65 21.5h-102v-163h102z" />
    <glyph glyph-name="uni042C" unicode="&#x42c;" horiz-adv-x="609" 
d="M336 462q104 0 173.5 -65.5t69.5 -165.5t-69.5 -165.5t-173.5 -65.5h-264v710h160v-248h104zM334 150q40 0 65 21t25 60t-25 60.5t-65 21.5h-102v-163h102z" />
    <glyph glyph-name="uni042D" unicode="&#x42d;" horiz-adv-x="717" 
d="M18 564q50 71 128.5 112.5t168.5 41.5q150 0 256.5 -106.5t106.5 -256.5t-106.5 -256.5t-256.5 -106.5q-90 0 -168.5 41.5t-128.5 112.5l121 99q28 -45 74.5 -72t101.5 -27q66 0 117 38t73 99h-276v144h276q-22 61 -73 99t-117 38q-55 0 -101.5 -27t-74.5 -72z" />
    <glyph glyph-name="uni042E" unicode="&#x42e;" horiz-adv-x="1090" 
d="M334 432q27 124 126.5 205t228.5 81q150 0 256.5 -106.5t106.5 -256.5t-106.5 -256.5t-256.5 -106.5q-129 0 -228.5 81t-126.5 205h-102v-278h-160v710h160v-278h102zM689 564q-85 0 -143.5 -61.5t-58.5 -147.5t58.5 -147.5t143.5 -61.5t143.5 61.5t58.5 147.5
t-58.5 147.5t-143.5 61.5z" />
    <glyph glyph-name="uni042F" unicode="&#x42f;" horiz-adv-x="626" 
d="M320 710h234v-710h-160v228h-31l-164 -228h-184l187 257q-57 31 -91 87.5t-34 124.5q0 101 70 171t173 70zM394 377v183h-72q-39 0 -64.5 -25.5t-25.5 -65.5t25.5 -66t64.5 -26h72z" />
    <glyph glyph-name="uni0430" unicode="&#x430;" horiz-adv-x="604" 
d="M388 29q-45 -37 -110 -37q-108 0 -175 76t-67 182t67 182t175 76q64 0 110 -38v30h151v-500h-151v29zM388 171v157q-33 42 -85 42t-83.5 -34.5t-31.5 -85.5t31.5 -85.5t83.5 -34.5q53 0 85 41z" />
    <glyph glyph-name="uni0431" unicode="&#x431;" horiz-adv-x="591" 
d="M319 552q-60 -13 -94.5 -45.5t-34.5 -74.5v-1q48 51 137 51q107 0 168.5 -66.5t61.5 -165.5q0 -108 -75 -183t-184 -75q-128 0 -193 81.5t-65 228.5v23q0 149 65 246t186 122l223 46v-146zM190 246q0 -54 29 -83.5t78 -29.5q48 0 78 29.5t30 83.5q0 42 -30 73.5t-78 31.5
q-53 0 -80 -31t-27 -74z" />
    <glyph glyph-name="uni0432" unicode="&#x432;" horiz-adv-x="574" 
d="M312 500q94 0 142 -46t48 -108q0 -43 -28 -80q60 -45 60 -112q0 -63 -45.5 -108.5t-138.5 -45.5h-285v500h247zM350 340q0 21 -13 30.5t-30 9.5h-91v-80h91q17 0 30 9.5t13 30.5zM382 170q0 20 -13 31t-32 11h-121v-85h121q19 0 32 11.5t13 31.5z" />
    <glyph glyph-name="uni0433" unicode="&#x433;" horiz-adv-x="432" 
d="M216 0h-151v500h347v-132h-196v-368z" />
    <glyph glyph-name="uni0434" unicode="&#x434;" horiz-adv-x="603" 
d="M443 -118v118h-283v-118h-140v250h66l215 376l215 -376h67v-250h-140zM242 132h118l-59 106z" />
    <glyph glyph-name="uni0435" unicode="&#x435;" horiz-adv-x="566" 
d="M34 250q0 111 72 184.5t186 73.5q101 0 171 -64t70 -177q0 -21 -3 -44h-351q5 -46 37.5 -69.5t71.5 -23.5q73 0 107 63l120 -81q-35 -55 -94 -87.5t-132 -32.5q-103 0 -179 73t-76 185zM180 311h204q-6 38 -34 57t-67 19q-33 0 -63.5 -17.5t-39.5 -58.5z" />
    <glyph glyph-name="uni0436" unicode="&#x436;" horiz-adv-x="839" 
d="M175 0h-178l185 245l-156 255h165l153 -251v251h151v-251l153 251h165l-156 -255l185 -245h-178l-169 225v-225h-151v225z" />
    <glyph glyph-name="uni0437" unicode="&#x437;" horiz-adv-x="486" 
d="M43 427q76 81 195 81q97 0 142.5 -47t45.5 -102q0 -60 -47 -95q67 -43 67 -114q0 -61 -54.5 -109.5t-162.5 -48.5q-132 0 -204 106l103 71q34 -54 95 -54q31 0 50.5 14t19.5 33t-14.5 31.5t-37.5 12.5h-70v100h65q19 0 32.5 12.5t13.5 29.5q0 18 -14.5 29.5t-39.5 11.5
q-57 0 -98 -48z" />
    <glyph glyph-name="uni0438" unicode="&#x438;" horiz-adv-x="614" 
d="M398 233l-333 -242v509h151v-235l333 243v-508h-151v233z" />
    <glyph glyph-name="uni0439" unicode="&#x439;" horiz-adv-x="614" 
d="M517 710q-3 -87 -52.5 -131.5t-130.5 -44.5t-130.5 44.5t-52.5 131.5h113q1 -41 19.5 -63t50.5 -22t50.5 22t19.5 63h113zM398 233l-333 -242v509h151v-235l333 243v-508h-151v233z" />
    <glyph glyph-name="uni043A" unicode="&#x43a;" horiz-adv-x="560" 
d="M65 500h151v-251l153 251h165l-156 -255l185 -245h-178l-169 225v-225h-151v500z" />
    <glyph glyph-name="uni043B" unicode="&#x43b;" horiz-adv-x="552" 
d="M276 226l-128 -226h-163l291 508l291 -508h-169z" />
    <glyph glyph-name="uni043C" unicode="&#x43c;" horiz-adv-x="730" 
d="M514 0v212l-149 -220l-149 220v-212h-151v500h115l185 -276l185 276h115v-500h-151z" />
    <glyph glyph-name="uni043D" unicode="&#x43d;" horiz-adv-x="614" 
d="M398 184h-182v-184h-151v500h151v-184h182v184h151v-500h-151v184z" />
    <glyph glyph-name="uni043E" unicode="&#x43e;" horiz-adv-x="588" 
d="M34 250q0 107 76 182.5t184 75.5t184 -75.5t76 -182.5t-76 -182.5t-184 -75.5t-184 75.5t-76 182.5zM402 250q0 51 -30.5 84t-77.5 33t-77.5 -33t-30.5 -84t30.5 -84t77.5 -33t77.5 33t30.5 84z" />
    <glyph glyph-name="uni043F" unicode="&#x43f;" horiz-adv-x="604" 
d="M388 368h-172v-368h-151v500h474v-500h-151v368z" />
    <glyph glyph-name="uni0440" unicode="&#x440;" horiz-adv-x="602" 
d="M65 500h151v-30q46 38 110 38q108 0 175 -76t67 -182t-67 -182t-175 -76q-65 0 -110 37v-213h-151v684zM216 328v-157q30 -41 85 -41q52 0 83.5 34.5t31.5 85.5t-31.5 85.5t-83.5 34.5q-54 0 -85 -42z" />
    <glyph glyph-name="uni0441" unicode="&#x441;" horiz-adv-x="537" 
d="M34 250q0 107 76 182.5t184 75.5q68 0 126 -32t93 -86l-120 -85q-34 62 -99 62q-47 0 -77.5 -33t-30.5 -84t30.5 -84t77.5 -33q65 0 99 62l120 -85q-35 -54 -93 -86t-126 -32q-108 0 -184 75.5t-76 182.5z" />
    <glyph glyph-name="uni0442" unicode="&#x442;" horiz-adv-x="457" 
d="M299 0h-151v368h-130v132h421v-132h-140v-368z" />
    <glyph glyph-name="uni0443" unicode="&#x443;" horiz-adv-x="518" 
d="M179 0l-184 500h160l104 -316l104 316h160l-252 -684h-160z" />
    <glyph glyph-name="uni0444" unicode="&#x444;" horiz-adv-x="777" 
d="M476 508q124 0 195.5 -75t71.5 -183t-71.5 -183t-195.5 -75h-12v-176h-151v176h-12q-124 0 -195.5 75t-71.5 183t71.5 183t195.5 75h12v202h151v-202h12zM301 370q-52 0 -83.5 -34.5t-31.5 -85.5t31.5 -85.5t83.5 -34.5h12v240h-12zM476 130q52 0 83.5 34.5t31.5 85.5
t-31.5 85.5t-83.5 34.5h-12v-240h12z" />
    <glyph glyph-name="uni0445" unicode="&#x445;" horiz-adv-x="550" 
d="M177 252l-171 248h175l94 -143l94 143h175l-171 -248l180 -252h-175l-103 150l-103 -150h-175z" />
    <glyph glyph-name="uni0446" unicode="&#x446;" horiz-adv-x="653" 
d="M483 -122v122h-418v500h151v-368h172v368h151v-368h84v-254h-140z" />
    <glyph glyph-name="uni0447" unicode="&#x447;" horiz-adv-x="572" 
d="M356 0v173q-17 -10 -54.5 -17.5t-71.5 -7.5q-80 0 -135 44t-55 130v178h151v-160q0 -60 77 -60q57 0 88 25v195h151v-500h-151z" />
    <glyph glyph-name="uni0448" unicode="&#x448;" horiz-adv-x="837" 
d="M65 500h151v-368h127v368h151v-368h127v368h151v-500h-707v500z" />
    <glyph glyph-name="uni0449" unicode="&#x449;" horiz-adv-x="886" 
d="M716 -122v122h-651v500h151v-368h127v368h151v-368h127v368h151v-368h84v-254h-140z" />
    <glyph glyph-name="uni044A" unicode="&#x44a;" horiz-adv-x="585" 
d="M133 0v369h-118v131h269v-141h82q48 0 85 -17t58 -43.5t31 -56t10 -58.5t-10 -59.5t-30.5 -59.5t-58 -47t-85.5 -18h-233zM409 185q0 25 -16.5 40t-45.5 15h-63v-109h63q29 0 45.5 14.5t16.5 39.5z" />
    <glyph glyph-name="uni044B" unicode="&#x44b;" horiz-adv-x="764" 
d="M298 359q48 0 85 -17t58 -43.5t31 -56t10 -58.5t-10 -59.5t-30.5 -59.5t-58 -47t-85.5 -18h-233v500h151v-141h82zM547 500h152v-500h-152v500zM216 240v-109h63q29 0 45.5 14.5t16.5 39.5t-16.5 40t-45.5 15h-63z" />
    <glyph glyph-name="uni044C" unicode="&#x44c;" horiz-adv-x="517" 
d="M298 359q48 0 85 -17t58 -43.5t31 -56t10 -58.5t-10 -59.5t-30.5 -59.5t-58 -47t-85.5 -18h-233v500h151v-141h82zM216 240v-109h63q29 0 45.5 14.5t16.5 39.5t-16.5 40t-45.5 15h-63z" />
    <glyph glyph-name="uni044D" unicode="&#x44d;" horiz-adv-x="543" 
d="M30 390q35 54 93 86t126 32q108 0 184 -75.5t76 -182.5t-76 -182.5t-184 -75.5q-68 0 -126 32t-93 86l120 85q34 -62 99 -62q34 0 60.5 18t38.5 50h-131v110h126q-29 56 -94 56t-99 -62z" />
    <glyph glyph-name="uni044E" unicode="&#x44e;" horiz-adv-x="841" 
d="M296 316q22 84 91.5 138t159.5 54q108 0 184 -75.5t76 -182.5t-76 -182.5t-184 -75.5q-90 0 -159.5 54t-91.5 138h-80v-184h-151v500h151v-184h80zM547 367q-47 0 -77.5 -33t-30.5 -84t30.5 -84t77.5 -33t77.5 33t30.5 84t-30.5 84t-77.5 33z" />
    <glyph glyph-name="uni044F" unicode="&#x44f;" horiz-adv-x="546" 
d="M236 500h245v-500h-151v151h-52l-97 -151h-161l115 177q-40 24 -61.5 64.5t-21.5 87.5q0 76 49 123.5t135 47.5zM330 271v109h-86q-51 0 -51 -58q0 -23 15.5 -37t36.5 -14h85z" />
    <glyph glyph-name="uni0451" unicode="&#x451;" horiz-adv-x="563" 
d="M93 647q0 33 23.5 56.5t56.5 23.5t56.5 -23.5t23.5 -56.5t-23.5 -56.5t-56.5 -23.5t-56.5 23.5t-23.5 56.5zM331 647q0 33 23.5 56.5t56.5 23.5t56.5 -23.5t23.5 -56.5t-23.5 -56.5t-56.5 -23.5t-56.5 23.5t-23.5 56.5zM34 250q0 111 72 184.5t186 73.5q101 0 171 -64
t70 -177q0 -21 -3 -44h-351q5 -46 37.5 -69.5t71.5 -23.5q73 0 107 63l120 -81q-35 -55 -94 -87.5t-132 -32.5q-103 0 -179 73t-76 185zM180 311h204q-6 38 -34 57t-67 19q-33 0 -63.5 -17.5t-39.5 -58.5z" />
    <glyph glyph-name="uni0452" unicode="&#x452;" horiz-adv-x="635" 
d="M256 354q47 39 125 39q98 0 153.5 -61.5t55.5 -170.5v-13q0 -163 -73 -247.5t-178 -84.5h-25v143h23q40 0 70.5 43t30.5 119v16q0 54 -22.5 86t-69.5 32q-52 0 -90 -43v-212h-151v470h-95v117h95v123h151v-123h161v-117h-161v-116z" />
    <glyph glyph-name="uni0453" unicode="&#x453;" horiz-adv-x="432" 
d="M229 710h173l-143 -155h-110zM216 0h-151v500h347v-132h-196v-368z" />
    <glyph glyph-name="uni0454" unicode="&#x454;" horiz-adv-x="537" 
d="M195 201q12 -32 38.5 -50t60.5 -18q65 0 99 62l120 -85q-35 -54 -93 -86t-126 -32q-108 0 -184 75.5t-76 182.5t76 182.5t184 75.5q68 0 126 -32t93 -86l-120 -85q-34 62 -99 62t-94 -56h142v-110h-147z" />
    <glyph glyph-name="uni0455" unicode="&#x455;" horiz-adv-x="415" 
d="M6 98l115 78q34 -61 92 -61q39 0 39 23q0 13 -11.5 21t-51.5 23l-26 10q-132 52 -132 161q0 68 49.5 111.5t122.5 43.5q103 0 158 -79l-86 -85q-32 45 -72 45q-36 0 -36 -23q0 -14 12 -21.5t54 -23.5l21 -8q70 -27 102 -66.5t32 -95.5q0 -74 -51 -116.5t-130 -42.5
q-140 0 -201 106z" />
    <glyph glyph-name="uni0456" unicode="&#x456;" horiz-adv-x="282" 
d="M51 628q0 38 26.5 64t63.5 26t63.5 -26t26.5 -64q0 -34 -20 -57h-140q-20 23 -20 57zM65 500h152v-500h-152v500z" />
    <glyph glyph-name="uni0457" unicode="&#x457;" horiz-adv-x="270" 
d="M41 707q33 0 56.5 -23.5t23.5 -56.5t-23.5 -56.5t-56.5 -23.5t-56.5 23.5t-23.5 56.5t23.5 56.5t56.5 23.5zM229 707q33 0 56.5 -23.5t23.5 -56.5t-23.5 -56.5t-56.5 -23.5t-56.5 23.5t-23.5 56.5t23.5 56.5t56.5 23.5zM59 500h152v-500h-152v500z" />
    <glyph glyph-name="uni0458" unicode="&#x458;" horiz-adv-x="280" 
d="M55 628q0 38 26.5 64t63.5 26t63.5 -26t26.5 -64q0 -34 -20 -57h-140q-20 23 -20 57zM-34 -41h25q39 0 59 13t20 47v481h152v-500q0 -89 -59.5 -136.5t-161.5 -47.5h-35v143z" />
    <glyph glyph-name="uni0459" unicode="&#x459;" horiz-adv-x="746" 
d="M398 0l-122 225l-128 -225h-163l291 508l85 -149h166q48 0 85 -17t58 -43.5t31 -56t10 -58.5t-10 -59.5t-30.5 -59.5t-58 -47t-85.5 -18h-129zM570 185q0 25 -16.5 40t-45.5 15h-78l62 -109h16q29 0 45.5 14.5t16.5 39.5z" />
    <glyph glyph-name="uni045A" unicode="&#x45a;" horiz-adv-x="800" 
d="M378 0v184h-162v-184h-151v500h151v-184h162v184h151v-141h52q48 0 85 -17t58 -43.5t31 -56t10 -58.5t-10 -59.5t-30.5 -59.5t-58 -47t-85.5 -18h-203zM624 185q0 25 -16.5 40t-45.5 15h-33v-109h33q29 0 45.5 14.5t16.5 39.5z" />
    <glyph glyph-name="uni045B" unicode="&#x45b;" horiz-adv-x="634" 
d="M256 354q47 39 115 39q104 0 161 -62.5t57 -166.5v-164h-151v137q0 54 -22.5 86t-69.5 32q-52 0 -90 -43v-212h-151v470h-95v117h95v123h151v-123h161v-117h-161v-116z" />
    <glyph glyph-name="uni045C" unicode="&#x45c;" horiz-adv-x="561" 
d="M322 710h173l-143 -155h-110zM65 500h151v-251l153 251h165l-156 -255l185 -245h-178l-169 225v-225h-151v500z" />
    <glyph glyph-name="uni045E" unicode="&#x45e;" horiz-adv-x="518" 
d="M448 710q-3 -87 -52.5 -131.5t-130.5 -44.5t-130.5 44.5t-52.5 131.5h113q1 -41 19.5 -63t50.5 -22t50.5 22t19.5 63h113zM179 0l-184 500h160l104 -316l104 316h160l-252 -684h-160z" />
    <glyph glyph-name="uni045F" unicode="&#x45f;" horiz-adv-x="604" 
d="M372 -122h-140v122h-167v500h151v-368h172v368h151v-500h-167v-122z" />
    <glyph glyph-name="uni0462" unicode="&#x462;" horiz-adv-x="638" 
d="M389 423q106 0 162.5 -58t56.5 -156q0 -84 -59.5 -146.5t-158.5 -62.5h-264v490h-107v140h107v80h160v-80h140v-140h-140v-67h103zM375 146q36 0 57.5 18t21.5 52t-21.5 52.5t-57.5 18.5h-89v-141h89z" />
    <glyph glyph-name="uni0463" unicode="&#x463;" horiz-adv-x="541" 
d="M343 317q82 0 122.5 -48.5t40.5 -106.5q0 -59 -41 -110.5t-122 -51.5h-238v383h-95v117h95v210h151v-210h161v-117h-161v-66h87zM324 115q24 0 37 13t13 35t-13 35.5t-37 13.5h-68v-97h68z" />
    <glyph glyph-name="uni0472" unicode="&#x472;" horiz-adv-x="802" 
d="M401 -8q-150 0 -256.5 106.5t-106.5 256.5t106.5 256.5t256.5 106.5t256.5 -106.5t106.5 -256.5t-106.5 -256.5t-256.5 -106.5zM310 452q49 0 118.5 -20t102.5 -20q36 0 60 14q-21 61 -72.5 99.5t-117.5 38.5q-64 0 -114 -35.5t-73 -93.5q43 17 96 17zM514 285
q-46 0 -115.5 20t-104.5 20q-55 0 -87 -28q18 -67 71 -109t123 -42t123.5 42.5t71.5 109.5q-38 -13 -82 -13z" />
    <glyph glyph-name="uni0473" unicode="&#x473;" horiz-adv-x="588" 
d="M290 -8q-108 0 -184 75.5t-76 182.5t76 182.5t184 75.5t184 -75.5t76 -182.5t-76 -182.5t-184 -75.5zM387 305q-29 62 -97 62t-97 -62h194zM188 209q11 -35 38 -55.5t64 -20.5t64 20.5t38 55.5h-204z" />
    <glyph glyph-name="uni0474" unicode="&#x474;" horiz-adv-x="644" 
d="M433 588q54 122 181 122h24v-158q-27 0 -41.5 -8t-23.5 -27l-248 -525l-335 718h180l159 -355z" />
    <glyph glyph-name="uni0475" unicode="&#x475;" horiz-adv-x="532" 
d="M342 404q25 53 68 74.5t114 21.5v-150q-27 0 -40 -5.5t-21 -21.5l-187 -331l-291 508h174l119 -219z" />
    <glyph glyph-name="uni0490" unicode="&#x490;" horiz-adv-x="507" 
d="M232 0h-160v710h261v144h154v-302h-255v-552z" />
    <glyph glyph-name="uni0491" unicode="&#x491;" horiz-adv-x="432" 
d="M216 0h-151v500h207v122h140v-254h-196v-368z" />
    <glyph glyph-name="uni0492" unicode="&#x492;" horiz-adv-x="545" 
d="M268 425h158v-140h-158v-285h-160v285h-89v140h89v285h400v-158h-240v-127z" />
    <glyph glyph-name="uni0493" unicode="&#x493;" horiz-adv-x="456" 
d="M345 296v-117h-100v-179h-151v179h-79v117h79v204h337v-132h-186v-72h100z" />
    <glyph glyph-name="uni0496" unicode="&#x496;" horiz-adv-x="1106" 
d="M917 -148v148h-47l-266 333v-333h-160v333l-266 -333h-198l281 352l-249 358h184l248 -356v356h160v-356l248 356h184l-249 -358l158 -198h126v-302h-154z" />
    <glyph glyph-name="uni0497" unicode="&#x497;" horiz-adv-x="881" 
d="M711 -122v122h-47l-169 225v-225h-151v225l-169 -225h-178l185 245l-156 255h165l153 -251v251h151v-251l153 251h165l-156 -255l85 -113h109v-254h-140z" />
    <glyph glyph-name="uni049A" unicode="&#x49a;" horiz-adv-x="758" 
d="M569 -148v148h-71l-266 333v-333h-160v710h160v-356l248 356h184l-249 -358l158 -198h150v-302h-154z" />
    <glyph glyph-name="uni049B" unicode="&#x49b;" horiz-adv-x="602" 
d="M432 -122v122h-46l-169 225v-225h-151v500h151v-251l153 251h165l-156 -255l85 -113h108v-254h-140z" />
    <glyph glyph-name="uni04A2" unicode="&#x4a2;" horiz-adv-x="815" 
d="M626 -148v148h-110v278h-284v-278h-160v710h160v-278h284v278h160v-556h104v-302h-154z" />
    <glyph glyph-name="uni04A3" unicode="&#x4a3;" horiz-adv-x="663" 
d="M493 -122v122h-95v184h-182v-184h-151v500h151v-184h182v184h151v-368h84v-254h-140z" />
    <glyph glyph-name="uni04AE" unicode="&#x4ae;" horiz-adv-x="656" 
d="M248 298l-263 412h187l156 -252l156 252h187l-263 -412v-298h-160v298z" />
    <glyph glyph-name="uni04AF" unicode="&#x4af;" horiz-adv-x="552" 
d="M567 500l-216 -504v-180h-151v182l-215 502h174l117 -310l117 310h174z" />
    <glyph glyph-name="uni04B0" unicode="&#x4b0;" horiz-adv-x="656" 
d="M532 146h-124v-146h-160v146h-124v140h124v12l-263 412h187l155 -249l155 249h189l-263 -412v-12h124v-140z" />
    <glyph glyph-name="uni04B1" unicode="&#x4b1;" horiz-adv-x="552" 
d="M567 500l-206 -480h100v-132h-110v-72h-151v72h-110v132h101l-206 480h174l117 -310l117 310h174z" />
    <glyph glyph-name="uni04B2" unicode="&#x4b2;" horiz-adv-x="738" 
d="M549 -148v148h-61l-151 244l-151 -244h-186l224 356l-209 354h185l137 -236l137 236h185l-209 -354l127 -202h126v-302h-154z" />
    <glyph glyph-name="uni04B3" unicode="&#x4b3;" horiz-adv-x="625" 
d="M455 -122v122h-77l-103 150l-103 -150h-175l180 252l-171 248h175l94 -143l94 143h175l-171 -248l86 -120h136v-254h-140z" />
    <glyph glyph-name="uni04B6" unicode="&#x4b6;" horiz-adv-x="753" 
d="M564 -148v148h-110v258q-64 -20 -152 -20q-107 0 -182 65t-75 165v242h160v-200q0 -61 35 -89.5t90 -28.5q79 0 124 20v298h160v-556h104v-302h-154z" />
    <glyph glyph-name="uni04B7" unicode="&#x4b7;" horiz-adv-x="622" 
d="M452 -122v122h-96v173q-17 -10 -54.5 -17.5t-71.5 -7.5q-80 0 -135 44t-55 130v178h151v-160q0 -60 77 -60q57 0 88 25v195h151v-368h85v-254h-140z" />
    <glyph glyph-name="uni04BA" unicode="&#x4ba;" horiz-adv-x="686" 
d="M232 710v-258q64 20 152 20q107 0 182 -65t75 -165v-242h-160v200q0 61 -35 89.5t-90 28.5q-79 0 -124 -20v-298h-160v710h160z" />
    <glyph glyph-name="uni04BB" unicode="&#x4bb;" horiz-adv-x="603" 
d="M65 710h151v-241q47 39 115 39q104 0 161 -62.5t57 -166.5v-279h-151v252q0 54 -22.5 86t-69.5 32q-52 0 -90 -43v-327h-151v710z" />
    <glyph glyph-name="uni04C0" unicode="&#x4c0;" horiz-adv-x="305" 
d="M72 710h160v-710h-160v710z" />
    <glyph glyph-name="uni04CF" unicode="&#x4cf;" horiz-adv-x="295" 
d="M67 710h160v-710h-160v710z" />
    <glyph glyph-name="uni04D8" unicode="&#x4d8;" horiz-adv-x="780" 
d="M82 564q51 71 129.5 112.5t169.5 41.5q149 0 255 -106.5t106 -256.5q0 -153 -99 -258t-254 -105q-163 0 -258.5 109.5t-94.5 295.5h541q-14 72 -68.5 119.5t-127.5 47.5q-57 0 -103.5 -27t-74.5 -72zM213 263q20 -54 65 -85.5t111 -31.5q118 0 172 117h-348z" />
    <glyph glyph-name="uni04D9" unicode="&#x4d9;" horiz-adv-x="565" 
d="M531 250q0 -112 -70 -185t-183 -73q-103 0 -174.5 64t-71.5 177q0 21 3 44h351q-5 46 -37.5 69.5t-71.5 23.5q-73 0 -107 -63l-120 81q35 55 94 87.5t132 32.5q103 0 179 -73t76 -185zM385 189h-204q6 -38 34 -57t69 -19q32 0 62 18t39 58z" />
    <glyph glyph-name="uni04E2" unicode="&#x4e2;" horiz-adv-x="752" 
d="M255 898h330v-96h-330v96zM520 0v380l-448 -388v718h160v-380l448 388v-718h-160z" />
    <glyph glyph-name="uni04E3" unicode="&#x4e3;" horiz-adv-x="614" 
d="M166 675h330v-96h-330v96zM398 233l-333 -242v509h151v-235l333 243v-508h-151v233z" />
    <glyph glyph-name="uni04E8" unicode="&#x4e8;" horiz-adv-x="802" 
d="M401 -8q-150 0 -256.5 106.5t-106.5 256.5t106.5 256.5t256.5 106.5t256.5 -106.5t106.5 -256.5t-106.5 -256.5t-256.5 -106.5zM592 425q-22 61 -73.5 100t-117.5 39t-117.5 -39t-73.5 -100h382zM210 285q22 -61 73.5 -100t117.5 -39t117.5 39t73.5 100h-382z" />
    <glyph glyph-name="uni04E9" unicode="&#x4e9;" horiz-adv-x="588" 
d="M294 -8q-108 0 -184 75.5t-76 182.5t76 182.5t184 75.5t184 -75.5t76 -182.5t-76 -182.5t-184 -75.5zM391 305q-29 62 -97 62t-97 -62h194zM192 209q11 -35 38 -55.5t64 -20.5t64 20.5t38 55.5h-204z" />
    <glyph glyph-name="uni04EE" unicode="&#x4ee;" horiz-adv-x="693" 
d="M518 898v-96h-330v96h330zM526 710h182l-353 -710h-182l88 177l-276 533h187l181 -348z" />
    <glyph glyph-name="uni04EF" unicode="&#x4ef;" horiz-adv-x="518" 
d="M104 675h330v-96h-330v96zM179 0l-184 500h160l104 -316l104 316h160l-252 -684h-160z" />
    <glyph glyph-name="Wgrave" unicode="&#x1e80;" horiz-adv-x="876" 
d="M257 923h166l70 -145h-110zM5 710h163l110 -333l160 341l160 -341l110 333h163l-246 -718l-187 409l-187 -409z" />
    <glyph glyph-name="wgrave" unicode="&#x1e81;" horiz-adv-x="730" 
d="M167 710h173l80 -155h-110zM0 500h159l83 -281l123 289l123 -289l83 281h159l-159 -500h-115l-91 205l-91 -205h-115z" />
    <glyph glyph-name="Wacute" unicode="&#x1e82;" horiz-adv-x="876" 
d="M452 923h166l-126 -145h-110zM5 710h163l110 -333l160 341l160 -341l110 333h163l-246 -718l-187 409l-187 -409z" />
    <glyph glyph-name="wacute" unicode="&#x1e83;" horiz-adv-x="730" 
d="M390 710h173l-143 -155h-110zM0 500h159l83 -281l123 289l123 -289l83 281h159l-159 -500h-115l-91 205l-91 -205h-115z" />
    <glyph glyph-name="Wdieresis" unicode="&#x1e84;" horiz-adv-x="876" 
d="M239 850q0 33 23.5 56.5t56.5 23.5t56.5 -23.5t23.5 -56.5t-23.5 -56.5t-56.5 -23.5t-56.5 23.5t-23.5 56.5zM477 850q0 33 23.5 56.5t56.5 23.5t56.5 -23.5t23.5 -56.5t-23.5 -56.5t-56.5 -23.5t-56.5 23.5t-23.5 56.5zM5 710h163l110 -333l160 341l160 -341l110 333
h163l-246 -718l-187 409l-187 -409z" />
    <glyph glyph-name="wdieresis" unicode="&#x1e85;" horiz-adv-x="730" 
d="M166 647q0 33 23.5 56.5t56.5 23.5t56.5 -23.5t23.5 -56.5t-23.5 -56.5t-56.5 -23.5t-56.5 23.5t-23.5 56.5zM404 647q0 33 23.5 56.5t56.5 23.5t56.5 -23.5t23.5 -56.5t-23.5 -56.5t-56.5 -23.5t-56.5 23.5t-23.5 56.5zM0 500h159l83 -281l123 289l123 -289l83 281h159
l-159 -500h-115l-91 205l-91 -205h-115z" />
    <glyph glyph-name="uni1ECA" unicode="&#x1eca;" horiz-adv-x="295" 
d="M67 710h160v-710h-160v710zM61 -127q0 36 25.5 61.5t61.5 25.5t61.5 -25.5t25.5 -61.5t-25.5 -61.5t-61.5 -25.5t-61.5 25.5t-25.5 61.5z" />
    <glyph glyph-name="uni1ECB" unicode="&#x1ecb;" horiz-adv-x="270" 
d="M45 628q0 38 26.5 64t63.5 26t63.5 -26t26.5 -64q0 -34 -20 -57h-140q-20 23 -20 57zM59 500h151v-500h-151v500zM48 -127q0 36 25.5 61.5t61.5 25.5t61.5 -25.5t25.5 -61.5t-25.5 -61.5t-61.5 -25.5t-61.5 25.5t-25.5 61.5z" />
    <glyph glyph-name="uni1ECC" unicode="&#x1ecc;" horiz-adv-x="794" 
d="M34 355q0 150 106.5 256.5t256.5 106.5t256.5 -106.5t106.5 -256.5t-106.5 -256.5t-256.5 -106.5t-256.5 106.5t-106.5 256.5zM599 355q0 86 -58.5 147.5t-143.5 61.5t-143.5 -61.5t-58.5 -147.5t58.5 -147.5t143.5 -61.5t143.5 61.5t58.5 147.5zM310 -127
q0 36 25.5 61.5t61.5 25.5t61.5 -25.5t25.5 -61.5t-25.5 -61.5t-61.5 -25.5t-61.5 25.5t-25.5 61.5z" />
    <glyph glyph-name="uni1ECD" unicode="&#x1ecd;" horiz-adv-x="580" 
d="M30 250q0 107 76 182.5t184 75.5t184 -75.5t76 -182.5t-76 -182.5t-184 -75.5t-184 75.5t-76 182.5zM398 250q0 51 -30.5 84t-77.5 33t-77.5 -33t-30.5 -84t30.5 -84t77.5 -33t77.5 33t30.5 84zM203 -127q0 36 25.5 61.5t61.5 25.5t61.5 -25.5t25.5 -61.5t-25.5 -61.5
t-61.5 -25.5t-61.5 25.5t-25.5 61.5z" />
    <glyph glyph-name="uni1EE4" unicode="&#x1ee4;" horiz-adv-x="702" 
d="M60 288v422h160v-424q0 -64 36 -102t95 -38t95 38t36 102v424h160v-422q0 -133 -81.5 -214.5t-209.5 -81.5t-209.5 81.5t-81.5 214.5zM264 -127q0 36 25.5 61.5t61.5 25.5t61.5 -25.5t25.5 -61.5t-25.5 -61.5t-61.5 -25.5t-61.5 25.5t-25.5 61.5z" />
    <glyph glyph-name="uni1EE5" unicode="&#x1ee5;" 
d="M387 37q-48 -45 -119 -45q-100 0 -157 62.5t-57 166.5v279h151v-252q0 -53 22.5 -85.5t65.5 -32.5q63 0 94 50v320h151v-500h-151v37zM209 -127q0 36 25.5 61.5t61.5 25.5t61.5 -25.5t25.5 -61.5t-25.5 -61.5t-61.5 -25.5t-61.5 25.5t-25.5 61.5z" />
    <glyph glyph-name="Ygrave" unicode="&#x1ef2;" horiz-adv-x="656" 
d="M166 923h166l70 -145h-110zM248 298l-263 412h187l156 -252l156 252h187l-263 -412v-298h-160v298z" />
    <glyph glyph-name="ygrave" unicode="&#x1ef3;" horiz-adv-x="518" 
d="M92 710h173l80 -155h-110zM179 0l-184 500h160l104 -316l104 316h160l-252 -684h-160z" />
    <glyph glyph-name="endash" unicode="&#x2013;" horiz-adv-x="570" 
d="M43 354h484v-144h-484v144z" />
    <glyph glyph-name="emdash" unicode="&#x2014;" horiz-adv-x="863" 
d="M43 354h777v-144h-777v144z" />
    <glyph glyph-name="quoteleft" unicode="&#x2018;" horiz-adv-x="308" 
d="M174 556h67v-174h-174v174l64 154h87z" />
    <glyph glyph-name="quoteright" unicode="&#x2019;" horiz-adv-x="308" 
d="M134 536h-67v174h174v-174l-64 -154h-87z" />
    <glyph glyph-name="quotesinglbase" unicode="&#x201a;" horiz-adv-x="308" 
d="M134 0h-67v174h174v-174l-64 -154h-87z" />
    <glyph glyph-name="quotedblleft" unicode="&#x201c;" horiz-adv-x="532" 
d="M174 556h67v-174h-174v174l64 154h87zM398 556h67v-174h-174v174l64 154h87z" />
    <glyph glyph-name="quotedblright" unicode="&#x201d;" horiz-adv-x="532" 
d="M134 536h-67v174h174v-174l-64 -154h-87zM358 536h-67v174h174v-174l-64 -154h-87z" />
    <glyph glyph-name="quotedblbase" unicode="&#x201e;" horiz-adv-x="532" 
d="M134 0h-67v174h174v-174l-64 -154h-87zM358 0h-67v174h174v-174l-64 -154h-87z" />
    <glyph glyph-name="dagger" unicode="&#x2020;" horiz-adv-x="547" 
d="M210 392h-170v108h170v210h127v-210h170v-108h-170v-490h-127v490z" />
    <glyph glyph-name="daggerdbl" unicode="&#x2021;" horiz-adv-x="547" 
d="M337 -98h-127v210h-170v108h170v172h-170v108h170v210h127v-210h170v-108h-170v-172h170v-108h-170v-210z" />
    <glyph glyph-name="bullet" unicode="&#x2022;" horiz-adv-x="402" 
d="M65 302q0 56 40 96t96 40t96 -40t40 -96t-40 -96t-96 -40t-96 40t-40 96z" />
    <glyph glyph-name="ellipsis" unicode="&#x2026;" horiz-adv-x="858" 
d="M28 100q0 45 31.5 76.5t76.5 31.5t76.5 -31.5t31.5 -76.5t-31.5 -76.5t-76.5 -31.5t-76.5 31.5t-31.5 76.5zM314 100q0 45 31.5 76.5t76.5 31.5t76.5 -31.5t31.5 -76.5t-31.5 -76.5t-76.5 -31.5t-76.5 31.5t-31.5 76.5zM600 100q0 45 31.5 76.5t76.5 31.5t76.5 -31.5
t31.5 -76.5t-31.5 -76.5t-76.5 -31.5t-76.5 31.5t-31.5 76.5z" />
    <glyph glyph-name="perthousand" unicode="&#x2030;" horiz-adv-x="708" 
d="M75 579q0 56 39 95.5t95 39.5t95.5 -39.5t39.5 -95.5t-39.5 -95t-95.5 -39t-95 39t-39 95zM252 579q0 18 -12.5 30.5t-30.5 12.5t-30.5 -12.5t-12.5 -30.5t12.5 -30.5t30.5 -12.5t30.5 12.5t12.5 30.5zM55 412h598v-114h-598v114zM75 130q0 56 39 95.5t95 39.5
t95.5 -39.5t39.5 -95.5t-39.5 -95t-95.5 -39t-95 39t-39 95zM364 130q0 56 39 95.5t95 39.5t95.5 -39.5t39.5 -95.5t-39.5 -95t-95.5 -39t-95 39t-39 95zM252 130q0 18 -12.5 30.5t-30.5 12.5t-30.5 -12.5t-12.5 -30.5t12.5 -30.5t30.5 -12.5t30.5 12.5t12.5 30.5zM541 130
q0 18 -12.5 30.5t-30.5 12.5t-30.5 -12.5t-12.5 -30.5t12.5 -30.5t30.5 -12.5t30.5 12.5t12.5 30.5z" />
    <glyph glyph-name="guilsinglleft" unicode="&#x2039;" horiz-adv-x="340" 
d="M34 250l164 241l100 -68l-118 -173l118 -173l-100 -68z" />
    <glyph glyph-name="guilsinglright" unicode="&#x203a;" horiz-adv-x="340" 
d="M306 250l-164 241l-100 -68l118 -173l-118 -173l100 -68z" />
    <glyph glyph-name="fraction" unicode="&#x2044;" horiz-adv-x="180" 
d="M-95 0l500 710h-130l-500 -710h130z" />
    <glyph glyph-name="Euro" unicode="&#x20ac;" horiz-adv-x="709" 
d="M47 454h61q33 115 129.5 189.5t219.5 74.5t220 -75l-48 -142q-29 33 -75 54.5t-96 21.5q-63 0 -114.5 -33t-76.5 -90h346l-22 -66h-342q-2 -11 -2 -33q0 -23 2 -33h319l-22 -66h-279q25 -58 76 -90.5t114 -32.5q93 0 164 60v-162q-76 -39 -164 -39q-123 0 -219.5 74.5
t-129.5 189.5h-83l22 66h48q-1 11 -1 33t1 33h-70z" />
    <glyph glyph-name="uni20B4" unicode="&#x20b4;" horiz-adv-x="634" 
d="M518 460h61v-64h-534v64h300q22 20 22 59q0 23 -16.5 36t-38.5 13q-58 0 -101 -53l-108 114q76 89 209 89q90 0 157 -53t67 -142q0 -31 -18 -63zM45 275v64h534v-64h-293q-35 -27 -35 -70q0 -63 68 -63q80 0 131 81l121 -92q-36 -67 -106.5 -103t-158.5 -36
q-99 0 -157.5 51.5t-58.5 139.5q0 57 22 92h-67z" />
    <glyph glyph-name="uni20B8" unicode="&#x20b8;" horiz-adv-x="539" 
d="M19 710h501v-64h-501v64zM189 525h-170v64h501v-64h-171v-525h-160v525z" />
    <glyph glyph-name="uni20BD" unicode="&#x20bd;" horiz-adv-x="571" 
d="M259 238v-43h136v-114h-136v-81h-160v81h-80v114h80v43h-80v149h80v323h211q106 0 174.5 -65.5t68.5 -174.5q0 -102 -69 -167t-174 -65h-51zM259 560v-173h49q40 0 65 21.5t25 60.5q0 45 -24.5 68t-65.5 23h-49z" />
    <glyph glyph-name="uni2113" unicode="&#x2113;" horiz-adv-x="558" 
d="M135 125l-55 -44l-79 108l129 96v186q0 130 50.5 188.5t146.5 58.5q83 0 133 -47t50 -118q0 -64 -25 -115t-62.5 -85.5t-106.5 -83.5l-32 -26v-31q0 -47 16.5 -67.5t50.5 -20.5q44 0 92 37l57 -100q-79 -69 -176 -69q-162 0 -189 133zM284 399l5 4q42 31 63.5 62.5
t21.5 74.5q0 56 -44 56q-46 0 -46 -78v-119z" />
    <glyph glyph-name="uni2116" unicode="&#x2116;" horiz-adv-x="1094" 
d="M227 371v-371h-160v718l448 -379v371h160v-718zM746 560q0 63 46 109t110 46t110 -46t46 -109t-46 -109t-110 -46t-110 46t-46 109zM959 560q0 28 -16 45.5t-41 17.5q-24 0 -40.5 -17.5t-16.5 -45.5t16.5 -45.5t40.5 -17.5q25 0 41 17.5t16 45.5zM756 209h292v130h-292
v-130z" />
    <glyph glyph-name="uni2117" unicode="&#x2117;" horiz-adv-x="794" 
d="M34 355q0 150 106.5 256.5t256.5 106.5t256.5 -106.5t106.5 -256.5t-106.5 -256.5t-256.5 -106.5t-256.5 106.5t-106.5 256.5zM655 355q0 107 -75.5 182.5t-182.5 75.5t-182.5 -75.5t-75.5 -182.5t75.5 -182.5t182.5 -75.5t182.5 75.5t75.5 182.5zM430 304h-40v-117h-90
v336h130q44 0 73.5 -32t29.5 -76t-29.5 -76.5t-73.5 -34.5zM414 380q14 0 22.5 9t8.5 22t-8 22t-22 9h-27v-62h26z" />
    <glyph glyph-name="trademark" unicode="&#x2122;" horiz-adv-x="758" 
d="M342 714l178 -180l178 180v-359h-92v141l-86 -87l-86 87v-141h-92v359zM112 620h-82v90h256v-90h-82v-265h-92v265z" />
    <glyph glyph-name="estimated" unicode="&#x212e;" horiz-adv-x="554" 
d="M511 143q-23 -67 -81.5 -109t-145.5 -42q-113 0 -183.5 74.5t-70.5 185.5q0 112 72 184t178 72q112 0 177.5 -72.5t66.5 -180.5h-382v-194q21 -22 62.5 -36.5t87.5 -14.5q66 0 119.5 35.5t75.5 97.5h24zM142 273h270v167q-48 50 -133 50q-81 0 -137 -50v-167z" />
    <glyph glyph-name="uni2153" unicode="&#x2153;" horiz-adv-x="859" 
d="M100 614l100 99v-429h-100v330zM205 0l500 710h-130l-500 -710h130zM525 55l70 66q21 -33 55 -33q28 0 43 15.5t15 42.5q1 27 -14.5 42.5t-42.5 15.5h-45l58 130h-119v92h264l-66 -148q66 -42 66 -132q0 -69 -41.5 -110t-110.5 -41q-83 0 -132 60z" />
    <glyph glyph-name="uni2154" unicode="&#x2154;" horiz-adv-x="957" 
d="M131 442q-40 18 -65 53.5t-25 79.5q0 58 42.5 99t100.5 41t101 -41t43 -99q0 -43 -23 -75l-98 -124h121v-92h-322zM303 0l500 710h-130l-500 -710h130zM228 575q0 19 -12 33t-32 14q-19 0 -31 -14t-12 -33t12 -33t31 -14q20 0 32 14t12 33zM623 55l70 66q21 -33 55 -33
q28 0 43 15.5t15 42.5q1 27 -14.5 42.5t-42.5 15.5h-45l58 130h-119v92h264l-66 -148q66 -42 66 -132q0 -69 -41.5 -110t-110.5 -41q-83 0 -132 60z" />
    <glyph glyph-name="uni2155" unicode="&#x2155;" horiz-adv-x="855" 
d="M100 614l100 99v-429h-100v330zM205 0l500 710h-130l-500 -710h130zM530 55l71 68q24 -35 53 -35q23 0 37 15t14 35t-14 35t-37 15q-39 0 -51 -36l-64 26v248h236v-92h-136v-55q14 2 22 2q65 0 104.5 -38.5t39.5 -104.5t-39.5 -104.5t-104.5 -38.5q-87 0 -131 60z" />
    <glyph glyph-name="uni2156" unicode="&#x2156;" horiz-adv-x="953" 
d="M131 442q-40 18 -65 53.5t-25 79.5q0 58 42.5 99t100.5 41t101 -41t43 -99q0 -43 -23 -75l-98 -124h121v-92h-322zM303 0l500 710h-130l-500 -710h130zM228 575q0 19 -12 33t-32 14q-19 0 -31 -14t-12 -33t12 -33t31 -14q20 0 32 14t12 33zM628 55l71 68q24 -35 53 -35
q23 0 37 15t14 35t-14 35t-37 15q-39 0 -51 -36l-64 26v248h236v-92h-136v-55q14 2 22 2q65 0 104.5 -38.5t39.5 -104.5t-39.5 -104.5t-104.5 -38.5q-87 0 -131 60z" />
    <glyph glyph-name="uni2157" unicode="&#x2157;" horiz-adv-x="934" 
d="M45 339l70 66q21 -33 55 -33q28 0 43 15.5t15 42.5q1 27 -14.5 42.5t-42.5 15.5h-45l58 130h-119v92h264l-66 -148q66 -42 66 -132q0 -69 -41.5 -110t-110.5 -41q-83 0 -132 60zM284 0l500 710h-130l-500 -710h130zM609 55l71 68q24 -35 53 -35q23 0 37 15t14 35t-14 35
t-37 15q-39 0 -51 -36l-64 26v248h236v-92h-136v-55q14 2 22 2q65 0 104.5 -38.5t39.5 -104.5t-39.5 -104.5t-104.5 -38.5q-87 0 -131 60z" />
    <glyph glyph-name="uni2158" unicode="&#x2158;" horiz-adv-x="919" 
d="M177 375h-217l307 338v-257h37v-81h-37v-91h-90v91zM269 0l500 710h-130l-500 -710h130zM177 456v54l-51 -54h51zM594 55l71 68q24 -35 53 -35q23 0 37 15t14 35t-14 35t-37 15q-39 0 -51 -36l-64 26v248h236v-92h-136v-55q14 2 22 2q65 0 104.5 -38.5t39.5 -104.5
t-39.5 -104.5t-104.5 -38.5q-87 0 -131 60z" />
    <glyph glyph-name="uni2159" unicode="&#x2159;" horiz-adv-x="833" 
d="M100 614l100 99v-429h-100v330zM205 0l500 710h-130l-500 -710h130zM505 138q0 34 28 84l108 204h112l-79 -145q60 -7 97 -47t37 -96q0 -61 -43.5 -102t-107.5 -41q-65 0 -108.5 41t-43.5 102zM709 138q0 21 -14 36t-38 15t-38 -15t-14 -36t14 -35.5t38 -14.5t38 14.5
t14 35.5z" />
    <glyph glyph-name="uni215A" unicode="&#x215a;" horiz-adv-x="908" 
d="M50 339l71 68q24 -35 53 -35q23 0 37 15t14 35t-14 35t-37 15q-39 0 -51 -36l-64 26v248h236v-92h-136v-55q14 2 22 2q65 0 104.5 -38.5t39.5 -104.5t-39.5 -104.5t-104.5 -38.5q-87 0 -131 60zM280 0l500 710h-130l-500 -710h130zM580 138q0 34 28 84l108 204h112
l-79 -145q60 -7 97 -47t37 -96q0 -61 -43.5 -102t-107.5 -41q-65 0 -108.5 41t-43.5 102zM784 138q0 21 -14 36t-38 15t-38 -15t-14 -36t14 -35.5t38 -14.5t38 14.5t14 35.5z" />
    <glyph glyph-name="oneeighth" unicode="&#x215b;" horiz-adv-x="842" 
d="M100 614l100 99v-429h-100v330zM205 0l500 710h-130l-500 -710h130zM510 139q0 67 52 106q-21 27 -21 65q0 50 35 85.5t85 35.5q49 0 84 -35.5t35 -85.5q0 -38 -21 -65q53 -40 53 -106q0 -61 -43.5 -102.5t-107.5 -41.5t-107.5 41.5t-43.5 102.5zM688 310q0 12 -7.5 20
t-19.5 8q-27 0 -27 -28q0 -11 7 -19.5t20 -8.5q12 0 19.5 8.5t7.5 19.5zM712 139q0 21 -13.5 36t-37.5 15t-38 -15t-14 -36t14 -36t38 -15t37.5 15t13.5 36z" />
    <glyph glyph-name="threeeighths" unicode="&#x215c;" horiz-adv-x="921" 
d="M45 339l70 66q21 -33 55 -33q28 0 43 15.5t15 42.5q1 27 -14.5 42.5t-42.5 15.5h-45l58 130h-119v92h264l-66 -148q66 -42 66 -132q0 -69 -41.5 -110t-110.5 -41q-83 0 -132 60zM284 0l500 710h-130l-500 -710h130zM589 139q0 67 52 106q-21 27 -21 65q0 50 35 85.5
t85 35.5q49 0 84 -35.5t35 -85.5q0 -38 -21 -65q53 -40 53 -106q0 -61 -43.5 -102.5t-107.5 -41.5t-107.5 41.5t-43.5 102.5zM767 310q0 12 -7.5 20t-19.5 8q-27 0 -27 -28q0 -11 7 -19.5t20 -8.5q12 0 19.5 8.5t7.5 19.5zM791 139q0 21 -13.5 36t-37.5 15t-38 -15t-14 -36
t14 -36t38 -15t37.5 15t13.5 36z" />
    <glyph glyph-name="fiveeighths" unicode="&#x215d;" horiz-adv-x="917" 
d="M50 339l71 68q24 -35 53 -35q23 0 37 15t14 35t-14 35t-37 15q-39 0 -51 -36l-64 26v248h236v-92h-136v-55q14 2 22 2q65 0 104.5 -38.5t39.5 -104.5t-39.5 -104.5t-104.5 -38.5q-87 0 -131 60zM280 0l500 710h-130l-500 -710h130zM585 139q0 67 52 106q-21 27 -21 65
q0 50 35 85.5t85 35.5q49 0 84 -35.5t35 -85.5q0 -38 -21 -65q53 -40 53 -106q0 -61 -43.5 -102.5t-107.5 -41.5t-107.5 41.5t-43.5 102.5zM763 310q0 12 -7.5 20t-19.5 8q-27 0 -27 -28q0 -11 7 -19.5t20 -8.5q12 0 19.5 8.5t7.5 19.5zM787 139q0 21 -13.5 36t-37.5 15
t-38 -15t-14 -36t14 -36t38 -15t37.5 15t13.5 36z" />
    <glyph glyph-name="seveneighths" unicode="&#x215e;" horiz-adv-x="831" 
d="M179 618h-149v92h299l-191 -426h-108zM194 0l500 710h-130l-500 -710h130zM499 139q0 67 52 106q-21 27 -21 65q0 50 35 85.5t85 35.5q49 0 84 -35.5t35 -85.5q0 -38 -21 -65q53 -40 53 -106q0 -61 -43.5 -102.5t-107.5 -41.5t-107.5 41.5t-43.5 102.5zM677 310
q0 12 -7.5 20t-19.5 8q-27 0 -27 -28q0 -11 7 -19.5t20 -8.5q12 0 19.5 8.5t7.5 19.5zM701 139q0 21 -13.5 36t-37.5 15t-38 -15t-14 -36t14 -36t38 -15t37.5 15t13.5 36z" />
    <glyph glyph-name="uni215F" unicode="&#x215f;" horiz-adv-x="480" 
d="M100 614l100 99v-429h-100v330zM205 0l500 710h-130l-500 -710h130z" />
    <glyph glyph-name="arrowleft" unicode="&#x2190;" horiz-adv-x="800" 
d="M430 29l-84 -86l-306 306l306 306l84 -86l-160 -160h490v-120h-490z" />
    <glyph glyph-name="arrowup" unicode="&#x2191;" horiz-adv-x="800" 
d="M180 330l-86 84l306 306l306 -306l-86 -84l-160 160v-490h-120v490z" />
    <glyph glyph-name="arrowright" unicode="&#x2192;" horiz-adv-x="800" 
d="M370 469l84 86l306 -306l-306 -306l-84 86l160 160h-490v120h490z" />
    <glyph glyph-name="arrowdown" unicode="&#x2193;" horiz-adv-x="800" 
d="M180 380l-86 -84l306 -306l306 306l-86 84l-160 -160v490h-120v-490z" />
    <glyph glyph-name="uni2196" unicode="&#x2196;" horiz-adv-x="800" 
d="M131 139h120v229l374 -373l84 84l-373 372h228v121h-433v-433z" />
    <glyph glyph-name="uni2197" unicode="&#x2197;" horiz-adv-x="800" 
d="M670 139h-120v229l-374 -373l-84 84l373 372h-228v121h433v-433z" />
    <glyph glyph-name="uni2198" unicode="&#x2198;" horiz-adv-x="800" 
d="M669 433h-120v-229l-374 373l-84 -84l373 -372h-228v-121h433v433z" />
    <glyph glyph-name="uni2199" unicode="&#x2199;" horiz-adv-x="800" 
d="M131 433h120v-229l374 373l84 -84l-373 -372h228v-121h-433v433z" />
    <glyph glyph-name="uni219E" unicode="&#x219e;" horiz-adv-x="800" 
d="M409 30l-84 -86l-306 306l306 306l84 -86l-160 -160h95l246 246l84 -86l-160 -160h225v-120h-225l160 -160l-84 -86l-246 246h-95z" />
    <glyph glyph-name="uni219F" unicode="&#x219f;" horiz-adv-x="800" 
d="M180 330l-86 84l306 306l306 -306l-86 -84l-160 160v-95l246 -246l-86 -84l-160 160v-225h-120v225l-160 -160l-86 84l246 246v95z" />
    <glyph glyph-name="uni21A0" unicode="&#x21a0;" horiz-adv-x="800" 
d="M390 30l84 -86l306 306l-306 306l-84 -86l160 -160h-95l-246 246l-84 -86l160 -160h-225v-120h225l-160 -160l84 -86l246 246h95z" />
    <glyph glyph-name="uni21A1" unicode="&#x21a1;" horiz-adv-x="800" 
d="M180 380l-86 -84l306 -306l306 306l-86 84l-160 -160v95l246 246l-86 84l-160 -160v225h-120v-225l-160 160l-86 -84l246 -246v-95z" />
    <glyph glyph-name="uni21A2" unicode="&#x21a2;" horiz-adv-x="800" 
d="M370 470l-84 86l-306 -306l306 -306l84 86l-160 160h260l246 -246l84 86l-221 220l221 220l-84 86l-246 -246h-260z" />
    <glyph glyph-name="uni21A3" unicode="&#x21a3;" horiz-adv-x="800" 
d="M430 470l84 86l306 -306l-306 -306l-84 86l160 160h-260l-246 -246l-84 86l221 220l-221 220l84 86l246 -246h260z" />
    <glyph glyph-name="uni21A4" unicode="&#x21a4;" horiz-adv-x="800" 
d="M407 30l-84 -86l-306 306l306 306l84 -86l-160 -160h371v190h119v-500h-119v190h-371z" />
    <glyph glyph-name="uni21A5" unicode="&#x21a5;" horiz-adv-x="800" 
d="M180 330l-86 84l306 306l306 -306l-86 -84l-160 160v-371h190v-119h-500v119h190v371z" />
    <glyph glyph-name="uni21A6" unicode="&#x21a6;" horiz-adv-x="800" 
d="M434 30l84 -86l306 306l-306 306l-84 -86l160 -160h-371v190h-119v-500h119v190h371z" />
    <glyph glyph-name="uni21A7" unicode="&#x21a7;" horiz-adv-x="800" 
d="M180 380l-86 -84l306 -306l306 306l-86 84l-160 -160v371h190v119h-500v-119h190v-371z" />
    <glyph glyph-name="uni21B0" unicode="&#x21b0;" horiz-adv-x="800" 
d="M732 -184v493h-490l160 160l-84 86l-306 -306l306 -306l84 86l-160 160h370v-373h120z" />
    <glyph glyph-name="uni21B1" unicode="&#x21b1;" horiz-adv-x="800" 
d="M68 -184v493h490l-160 160l84 86l306 -306l-306 -306l-84 86l160 160h-370v-373h-120z" />
    <glyph glyph-name="uni21B2" unicode="&#x21b2;" horiz-adv-x="800" 
d="M402 29l-84 -86l-306 306l306 306l84 -86l-160 -160h370v373h120v-493h-490z" />
    <glyph glyph-name="uni21B3" unicode="&#x21b3;" horiz-adv-x="800" 
d="M398 29l84 -86l306 306l-306 306l-84 -86l160 -160h-370v373h-120v-493h490z" />
    <glyph glyph-name="partialdiff" unicode="&#x2202;" horiz-adv-x="544" 
d="M30 233q0 97 67.5 168.5t162.5 71.5q65 0 102 -32q-53 143 -260 143h-10v126h10q194 0 303 -110.5t109 -304.5q0 -64 -12.5 -116t-39.5 -95.5t-75.5 -67.5t-114.5 -24q-101 0 -171.5 70.5t-70.5 170.5zM387 233q0 51 -32.5 85.5t-82.5 34.5t-83.5 -34.5t-33.5 -85.5
t33.5 -85.5t83.5 -34.5t82.5 34.5t32.5 85.5z" />
    <glyph glyph-name="product" unicode="&#x220f;" 
d="M77 710h443v-894h-114v780h-215v-780h-114v894z" />
    <glyph glyph-name="summation" unicode="&#x2211;" horiz-adv-x="528" 
d="M40 -79l242 342l-242 342v105h443v-114h-292l236 -333l-236 -333h292v-114h-443v105z" />
    <glyph glyph-name="minus" unicode="&#x2212;" horiz-adv-x="590" 
d="M77 339h436v-114h-436v114z" />
    <glyph glyph-name="radical" unicode="&#x221a;" horiz-adv-x="617" 
d="M124 205h-94v114h157l39 -63l206 576h175v-114h-93l-260 -726z" />
    <glyph glyph-name="infinity" unicode="&#x221e;" horiz-adv-x="706" 
d="M352 157q-46 -41 -109 -41q-69 0 -117.5 48.5t-48.5 117.5t48.5 118t117.5 49q62 0 109 -42q47 42 110 42q69 0 118 -49t49 -118t-49 -117.5t-118 -48.5q-64 0 -110 41zM296 282q0 22 -15.5 37.5t-37.5 15.5t-37 -15.5t-15 -37.5t15 -37t37 -15t37.5 15t15.5 37zM515 282
q0 22 -15.5 37.5t-37.5 15.5q-21 0 -35.5 -14.5t-16.5 -34.5v-4q0 -22 15 -37t37 -15t37.5 15t15.5 37z" />
    <glyph glyph-name="integral" unicode="&#x222b;" horiz-adv-x="436" 
d="M39 -80h53q36 0 52.5 17t16.5 54v543q0 93 48 138.5t153 45.5h35v-114h-53q-36 0 -52.5 -17t-16.5 -54v-543q0 -93 -48 -138.5t-153 -45.5h-35v114z" />
    <glyph glyph-name="approxequal" unicode="&#x2248;" horiz-adv-x="590" 
d="M77 416l137 84l162 -94l137 83v-135l-137 -84l-162 94l-137 -83v135zM77 210l137 84l162 -94l137 83v-135l-137 -84l-162 94l-137 -83v135z" />
    <glyph glyph-name="notequal" unicode="&#x2260;" horiz-adv-x="590" 
d="M77 442h265l80 110l91 -66l-32 -44h32v-114h-115l-67 -92h182v-114h-264l-81 -112l-91 66l33 46h-33v114h116l66 92h-182v114z" />
    <glyph glyph-name="lessequal" unicode="&#x2264;" horiz-adv-x="590" 
d="M60 362l436 212v-126l-177 -86l177 -86v-126zM60 114h436v-114h-436v114z" />
    <glyph glyph-name="greaterequal" unicode="&#x2265;" horiz-adv-x="590" 
d="M94 276l177 86l-177 86v126l436 -212l-436 -212v126zM94 114h436v-114h-436v114z" />
    <glyph glyph-name="filledbox" unicode="&#x25a0;" horiz-adv-x="618" 
d="M59 500h500v-500h-500v500z" />
    <glyph glyph-name="uni25A1" unicode="&#x25a1;" horiz-adv-x="618" 
d="M59 500h500v-500h-500v500zM211 152h196v196h-196v-196z" />
    <glyph glyph-name="uni25AB" unicode="&#x25ab;" horiz-adv-x="618" 
d="M59 500h500v-500h-500v500zM211 152h196v196h-196v-196z" />
    <glyph glyph-name="uni25B3" unicode="&#x25b3;" horiz-adv-x="806" 
d="M403 718l413 -718h-826zM548 155l-145 252l-145 -252h290z" />
    <glyph glyph-name="uni25B5" unicode="&#x25b5;" horiz-adv-x="554" 
d="M277 508l292 -508h-584zM345 129l-68 119l-68 -119h136z" />
    <glyph glyph-name="uni25BD" unicode="&#x25bd;" horiz-adv-x="806" 
d="M-10 710h826l-413 -718zM548 555h-290l145 -252z" />
    <glyph glyph-name="uni25BF" unicode="&#x25bf;" horiz-adv-x="554" 
d="M-15 500h584l-292 -508zM345 371h-136l68 -119z" />
    <glyph glyph-name="lozenge" unicode="&#x25ca;" horiz-adv-x="664" 
d="M40 355l292 363l292 -363l-292 -363zM479 355l-147 183l-147 -183l147 -183z" />
    <glyph glyph-name="circle" unicode="&#x25cb;" horiz-adv-x="576" 
d="M30 250q0 106 76 182t182 76t182 -76t76 -182t-76 -182t-182 -76t-182 76t-76 182zM394 250q0 44 -31 75t-75 31t-75 -31t-31 -75t31 -75t75 -31t75 31t31 75z" />
    <glyph glyph-name="uni25CF" unicode="&#x25cf;" horiz-adv-x="576" 
d="M30 250q0 106 76 182t182 76t182 -76t76 -182t-76 -182t-182 -76t-182 76t-76 182z" />
    <glyph glyph-name="uni25EF" unicode="&#x25ef;" horiz-adv-x="794" 
d="M34 355q0 150 106.5 256.5t256.5 106.5t256.5 -106.5t106.5 -256.5t-106.5 -256.5t-256.5 -106.5t-256.5 106.5t-106.5 256.5zM599 355q0 83 -59.5 142.5t-142.5 59.5t-142.5 -59.5t-59.5 -142.5t59.5 -142.5t142.5 -59.5t142.5 59.5t59.5 142.5z" />
    <glyph glyph-name="uni25FB" unicode="&#x25fb;" horiz-adv-x="844" 
d="M67 710h710v-710h-710v710zM616 161v388h-388v-388h388z" />
    <glyph glyph-name="uniF6D1" unicode="&#xf6d1;" horiz-adv-x="460" 
d="M413 914q-3 -87 -52.5 -131.5t-130.5 -44.5t-130.5 44.5t-52.5 131.5h123q2 -72 60 -72t60 72h123z" />
    <glyph glyph-name="uniF6D4" unicode="&#xf6d4;" horiz-adv-x="460" 
d="M413 710q-3 -87 -52.5 -131.5t-130.5 -44.5t-130.5 44.5t-52.5 131.5h113q1 -41 19.5 -63t50.5 -22t50.5 22t19.5 63h113z" />
    <glyph glyph-name="uniF8FF" unicode="&#xf8ff;" horiz-adv-x="576" 
d="M30 250q0 106 76 182t182 76l-60 -151h88l-52 -137l188 194h-117l33 81q78 -26 128 -93.5t50 -151.5q0 -106 -76 -182t-182 -76t-182 76t-76 182z" />
    <glyph glyph-name="fi" unicode="&#xfb01;" horiz-adv-x="632" 
d="M407 628q0 38 26.5 64t63.5 26t63.5 -26t26.5 -64q0 -34 -20 -57h-140q-20 23 -20 57zM16 500h73q-31 34 -31 83q0 55 37 91t98 36h155v-132h-98q-49 0 -49 -39q0 -17 11.5 -28t27.5 -11h108v-132h-116v-368h-151v368h-65v132zM421 500h151v-500h-151v500z" />
    <glyph glyph-name="fl" unicode="&#xfb02;" horiz-adv-x="632" 
d="M16 500h73q-31 34 -31 83q0 55 37 91t98 36h155v-132h-98q-49 0 -49 -39q0 -17 11.5 -28t27.5 -11h108v-132h-116v-368h-151v368h-65v132zM421 710h151v-710h-151v710z" />
    <glyph glyph-name="uni0432.loclBGR" horiz-adv-x="566" 
d="M426 389q50 -18 78 -63.5t28 -111.5q0 -98 -63.5 -158t-173.5 -60h-15q-108 0 -164 60t-56 153v296q0 93 56 153t164 60q99 0 155.5 -55t56.5 -137q0 -99 -66 -137zM280 586q-33 0 -51 -20.5t-18 -54.5v-65h57q34 0 57.5 18t23.5 52q0 33 -17.5 51.5t-51.5 18.5zM295 128
q40 0 63 27t23 69q0 100 -101 100h-69v-121q0 -34 18 -54.5t51 -20.5h15z" />
    <glyph glyph-name="uni0433.loclBGR" horiz-adv-x="415" 
d="M208 -8q-79 0 -130 42.5t-51 116.5q0 56 32 95.5t102 66.5l21 8q42 16 54 23.5t12 21.5q0 23 -36 23q-40 0 -72 -45l-86 85q55 79 158 79q73 0 122.5 -43.5t49.5 -111.5q0 -109 -132 -161l-26 -10q-40 -15 -51.5 -23t-11.5 -21q0 -23 39 -23q58 0 92 61l115 -78
q-61 -106 -201 -106z" />
    <glyph glyph-name="uni0434.loclBGR" horiz-adv-x="583" 
d="M57 -138l68 133q66 -51 147 -51q50 0 82 19t32 61q0 24 -13 42q-46 -38 -111 -38q-108 0 -172 71.5t-64 168.5t64 168.5t172 71.5q64 0 110 -38v30h151v-403q21 -49 21 -98q0 -67 -39.5 -112t-96 -63t-126.5 -18q-139 0 -225 56zM372 208v120q-34 42 -90 42
q-48 0 -76 -30.5t-28 -71.5t28 -71.5t76 -30.5q56 0 90 42z" />
    <glyph glyph-name="uni0437.loclBGR" horiz-adv-x="493" 
d="M101 8q46 -70 119 -70q42 0 67 24.5t25 63.5q0 38 -29.5 63t-81.5 25h-55v122h53q35 0 63 20.5t28 54.5q0 31 -19.5 48t-53.5 17q-58 0 -107 -49l-95 84q78 97 216 97q89 0 145.5 -53.5t56.5 -125.5q0 -99 -78 -148q108 -53 108 -175q0 -90 -63.5 -145t-173.5 -55
q-82 0 -142.5 31.5t-93.5 80.5z" />
    <glyph glyph-name="uni0438.loclBGR" 
d="M387 37q-48 -45 -119 -45q-100 0 -157 62.5t-57 166.5v279h151v-252q0 -53 22.5 -85.5t65.5 -32.5q63 0 94 50v320h151v-500h-151v37z" />
    <glyph glyph-name="uni0439.loclBGR" 
d="M478 710q-3 -87 -52.5 -131.5t-130.5 -44.5t-130.5 44.5t-52.5 131.5h113q1 -41 19.5 -63t50.5 -22t50.5 22t19.5 63h113zM387 37q-48 -45 -119 -45q-100 0 -157 62.5t-57 166.5v279h151v-252q0 -53 22.5 -85.5t65.5 -32.5q63 0 94 50v320h151v-500h-151v37z" />
    <glyph glyph-name="uni043F.loclBGR" 
d="M59 500h151v-31q47 39 115 39q104 0 161 -62.5t57 -166.5v-279h-151v252q0 54 -22.5 86t-69.5 32q-52 0 -90 -43v-327h-151v500z" />
    <glyph glyph-name="uni0442.loclBGR" horiz-adv-x="890" 
d="M685 252q0 117 -79 117q-54 0 -87 -44q4 -30 4 -46v-279h-151v252q0 117 -79 117q-51 0 -83 -40v-329h-151v500h151v-30q48 38 114 38q86 0 142 -61q61 61 160 61q106 0 158 -64t52 -165v-279h-151v252z" />
    <glyph glyph-name="uni0446.loclBGR" horiz-adv-x="653" 
d="M577 132h46v-254h-140v122q-24 0 -47 17t-27 40q-20 -28 -60.5 -46.5t-80.5 -18.5q-100 0 -157 62.5t-57 166.5v279h151v-252q0 -53 22.5 -85.5t65.5 -32.5q63 0 94 50v320h151v-329q0 -21 8.5 -30t30.5 -9z" />
    <glyph glyph-name="uni0448.loclBGR" horiz-adv-x="890" 
d="M205 248q0 -117 79 -117q54 0 87 44q-4 30 -4 46v279h151v-252q0 -117 79 -117q51 0 83 40v329h151v-500h-151v30q-48 -38 -114 -38q-86 0 -142 61q-61 -61 -160 -61q-106 0 -158 64t-52 165v279h151v-252z" />
    <glyph glyph-name="uni0449.loclBGR" horiz-adv-x="946" 
d="M576 -8q-98 0 -152 61q-61 -61 -160 -61q-106 0 -158 64t-52 165v279h151v-252q0 -117 79 -117q54 0 87 44q-4 30 -4 46v279h151v-252q0 -117 79 -117q51 0 83 40v329h151v-329q0 -21 8.5 -30t30.5 -9h46v-254h-140v122q-40 0 -64 34q-21 -18 -59 -30t-77 -12z" />
    <glyph glyph-name="uni044E.loclBGR" horiz-adv-x="841" 
d="M296 316q22 84 91.5 138t159.5 54q108 0 184 -75.5t76 -182.5t-76 -182.5t-184 -75.5q-90 0 -159.5 54t-91.5 138h-80v-184h-151v710h151v-394h80zM547 367q-47 0 -77.5 -33t-30.5 -84t30.5 -84t77.5 -33t77.5 33t30.5 84t-30.5 84t-77.5 33z" />
    <glyph glyph-name="uni044C.loclBGR" horiz-adv-x="512" 
d="M243 -8q-48 0 -85 18t-57.5 47t-30.5 59.5t-10 59.5v324h151v-141h82q93 0 138.5 -55.5t45.5 -123.5q0 -31 -10 -62t-30 -60t-57.5 -47.5t-86.5 -18.5h-50zM274 123q62 0 62 58q0 28 -16 43.5t-46 15.5h-63v-63q0 -25 17 -39.5t46 -14.5z" />
    <glyph glyph-name="uni044A.loclBGR" horiz-adv-x="585" 
d="M15 369v131h269v-141h82q93 0 138.5 -55.5t45.5 -123.5q0 -31 -10 -62t-30 -60t-57.5 -47.5t-86.5 -18.5h-50q-48 0 -85 18t-57.5 47t-30.5 59.5t-10 59.5v193h-118zM347 123q62 0 62 58q0 28 -16 43.5t-46 15.5h-63v-63q0 -25 17 -39.5t46 -14.5z" />
    <glyph glyph-name="uni0431.loclSRB" horiz-adv-x="586" 
d="M312 482q97 0 168.5 -68.5t71.5 -163.5q0 -108 -75 -183t-184 -75t-184 75t-75 183q0 58 22.5 107.5t63.5 81.5q-46 40 -46 111q0 68 49.5 114t147.5 46h228l-33 -132h-184q-30 0 -45.5 -13t-15.5 -34q-2 -21 14 -35t46 -14h31zM292 133q48 0 78 29.5t30 83.5
q0 42 -30 73.5t-78 31.5q-53 0 -80 -31t-27 -74q0 -54 29 -83.5t78 -29.5z" />
    <glyph glyph-name="dotaccent.low" horiz-adv-x="324" 
d="M75 -127q0 36 25.5 61.5t61.5 25.5t61.5 -25.5t25.5 -61.5t-25.5 -61.5t-61.5 -25.5t-61.5 25.5t-25.5 61.5z" />
    <glyph glyph-name="caron.slovak" horiz-adv-x="500" 
d="M286 550h-102l20 160h151z" />
    <glyph glyph-name="zero.slashed" horiz-adv-x="810" 
d="M39 355q0 150 108 256.5t258 106.5t258 -106.5t108 -256.5t-108 -256.5t-258 -106.5t-258 106.5t-108 256.5zM191 348l392 133q-28 44 -74.5 70t-103.5 26q-93 0 -153.5 -64.5t-60.5 -157.5v-7zM619 355v7l-393 -132q28 -45 75 -71t104 -26q93 0 153.5 64.5t60.5 157.5z
" />
    <glyph glyph-name="one.pof" horiz-adv-x="290" 
d="M69 395l152 153v-548h-152v395z" />
    <glyph glyph-name="two.pof" horiz-adv-x="512" 
d="M177 178q-47 25 -75.5 71.5t-28.5 101.5q0 81 58.5 139t139.5 58t139.5 -58t58.5 -139q0 -90 -84 -160l-71 -60h153v-131h-467zM326 351q0 24 -16 40t-39 16t-39 -16t-16 -40t16 -40t39 -16t39 16t16 40z" />
    <glyph glyph-name="three.pof" horiz-adv-x="469" 
d="M229 408h-200v132h409l-110 -232q52 -34 82.5 -88.5t30.5 -117.5q0 -111 -63 -177.5t-177 -66.5q-71 0 -126.5 32.5t-81.5 73.5l105 100q39 -65 96 -65q43 0 69 29.5t26 73.5t-26 73.5t-69 29.5h-61z" />
    <glyph glyph-name="four.pof" horiz-adv-x="564" 
d="M329 0h-344l488 548v-423h76v-125h-76v-134h-144v134zM329 125v85l-76 -85h76z" />
    <glyph glyph-name="five.pof" horiz-adv-x="507" 
d="M48 -36l105 100q40 -65 91 -65q38 0 61 27t23 63q0 37 -23.5 63.5t-64.5 26.5q-58 0 -80 -50l-92 45v366h359v-132h-215v-97q22 9 54 9q95 0 154.5 -64t59.5 -167q0 -104 -60.5 -167.5t-163.5 -63.5q-71 0 -126.5 32.5t-81.5 73.5z" />
    <glyph glyph-name="six.pof" horiz-adv-x="526" 
d="M28 223q0 56 36 123l184 328h171l-124 -222q86 -11 145 -76.5t59 -152.5q0 -96 -69.5 -163.5t-165.5 -67.5q-97 0 -166.5 67.5t-69.5 163.5zM347 223q0 36 -24.5 63t-58.5 27q-35 0 -59.5 -27t-24.5 -63t24.5 -63t59.5 -27q34 0 58.5 27t24.5 63z" />
    <glyph glyph-name="seven.pof" horiz-adv-x="500" 
d="M289 408h-261v132h482l-292 -674h-164z" />
    <glyph glyph-name="eight.pof" horiz-adv-x="541" 
d="M35 223q0 98 75 155q-37 45 -37 107q0 81 58.5 139t139.5 58t139.5 -58t58.5 -139q0 -64 -38 -107q75 -59 75 -155t-69.5 -163.5t-165.5 -67.5q-97 0 -166.5 67.5t-69.5 163.5zM275 429q21 2 36 17.5t15 38.5q0 24 -16 40t-39 16t-39 -16t-16 -40t16 -40t39 -16h4z
M354 223q0 36 -24.5 63t-58.5 27h-4q-33 -1 -56.5 -27.5t-23.5 -62.5t24.5 -63t59.5 -27q34 0 58.5 27t24.5 63z" />
    <glyph glyph-name="nine.pof" horiz-adv-x="526" 
d="M231 88q-86 11 -145 76.5t-59 152.5q0 96 69.5 163.5t165.5 67.5q97 0 166.5 -67.5t69.5 -163.5q0 -56 -36 -123l-184 -328h-171zM346 317q0 36 -24.5 63t-59.5 27q-34 0 -58.5 -27t-24.5 -63t24.5 -63t58.5 -27q35 0 59.5 27t24.5 63z" />
    <glyph glyph-name="zero.pof" horiz-adv-x="632" 
d="M35 270q0 114 83 196t198 82t198 -82t83 -196t-83 -196t-198 -82t-198 82t-83 196zM445 270q0 57 -36.5 97t-92.5 40t-92.5 -40t-36.5 -97t36.5 -97t92.5 -40t92.5 40t36.5 97z" />
    <glyph glyph-name="zero.slashed.pof" horiz-adv-x="632" 
d="M35 270q0 114 83 196t198 82t198 -82t83 -196t-83 -196t-198 -82t-198 82t-83 196zM187 278l229 79q-38 50 -100 50q-54 0 -90.5 -37.5t-38.5 -91.5zM445 262l-231 -79q37 -50 102 -50q54 0 90 37.5t39 91.5z" />
    <glyph glyph-name="one.tlf" horiz-adv-x="590" 
d="M94 141h138v428h-87v141h239v-569h138v-141h-428v141z" />
    <glyph glyph-name="two.tlf" horiz-adv-x="590" 
d="M222 269q-72 23 -118 83t-46 137q0 95 69 162t166 67t166.5 -67t69.5 -162q0 -81 -54 -146l-163 -202h216v-141h-524zM377 489q0 37 -23.5 62.5t-60.5 25.5t-60 -25.5t-23 -62.5t23 -63t60 -26t60.5 26t23.5 63z" />
    <glyph glyph-name="three.tlf" horiz-adv-x="590" 
d="M50 92l107 99q39 -58 100 -58q50 0 79 29t29 78t-29 78t-79 29h-72l105 222h-207v141h429l-118 -250q59 -30 91.5 -87t32.5 -133q0 -112 -69 -180t-182 -68q-67 0 -124 26.5t-93 73.5z" />
    <glyph glyph-name="four.tlf" horiz-adv-x="590" 
d="M341 160h-356l508 558v-426h66v-132h-66v-160h-152v160zM341 292v85l-78 -85h78z" />
    <glyph glyph-name="five.tlf" horiz-adv-x="590" 
d="M71 92l110 102q40 -61 97 -61q44 0 70.5 28t26.5 68t-26.5 68t-70.5 28q-67 0 -90 -59l-98 41v403h387v-141h-235v-106q22 3 46 3q108 0 174 -64.5t66 -172.5t-66 -172.5t-174 -64.5q-68 0 -125 26.5t-92 73.5z" />
    <glyph glyph-name="six.tlf" horiz-adv-x="590" 
d="M44 229q0 56 45 138l187 343h169l-134 -245q100 -6 165.5 -73t65.5 -163q0 -101 -71.5 -169t-177.5 -68t-177.5 68t-71.5 169zM196 229q0 -40 26.5 -68t70.5 -28t70.5 28t26.5 68t-26.5 68t-70.5 28t-70.5 -28t-26.5 -68z" />
    <glyph glyph-name="seven.tlf" horiz-adv-x="590" 
d="M333 569h-264v141h492l-322 -710h-164z" />
    <glyph glyph-name="eight.tlf" horiz-adv-x="590" 
d="M46 229q0 116 93 179q-40 48 -40 113q0 82 57 139.5t139 57.5t139 -57.5t57 -139.5q0 -65 -40 -113q93 -64 93 -179q0 -101 -71.5 -169t-177.5 -68t-177.5 68t-71.5 169zM349 521q0 23 -14.5 39.5t-39.5 16.5t-39.5 -16.5t-14.5 -39.5t14.5 -39.5t39.5 -16.5t39.5 16.5
t14.5 39.5zM392 229q0 40 -26.5 68t-70.5 28t-70.5 -28t-26.5 -68t26.5 -68t70.5 -28t70.5 28t26.5 68z" />
    <glyph glyph-name="nine.tlf" horiz-adv-x="590" 
d="M277 245q-100 6 -165 73t-65 163q0 101 71.5 169t177.5 68t177.5 -68t71.5 -169q0 -56 -45 -138l-187 -343h-169zM393 481q0 40 -26.5 68t-70.5 28t-70.5 -28t-26.5 -68t26.5 -68t70.5 -28t70.5 28t26.5 68z" />
    <glyph glyph-name="zero.tlf" horiz-adv-x="590" 
d="M14 270q0 114 83 196t198 82t198 -82t83 -196t-83 -196t-198 -82t-198 82t-83 196zM424 270q0 57 -36.5 97t-92.5 40t-92.5 -40t-36.5 -97t36.5 -97t92.5 -40t92.5 40t36.5 97z" />
    <glyph glyph-name="zero.slashed.tlf" horiz-adv-x="590" 
d="M14 270q0 114 83 196t198 82t198 -82t83 -196t-83 -196t-198 -82t-198 82t-83 196zM166 278l229 79q-38 50 -100 50q-54 0 -90.5 -37.5t-38.5 -91.5zM424 262l-231 -79q37 -50 102 -50q54 0 90 37.5t39 91.5z" />
    <glyph glyph-name="one.case" horiz-adv-x="331" 
d="M85 557l161 159v-716h-161v557z" />
    <glyph glyph-name="two.case" horiz-adv-x="603" 
d="M219 265q-68 27 -111 87t-43 135q0 96 70 163.5t167 67.5t167.5 -67.5t70.5 -163.5q0 -76 -45 -133l-163 -205h207v-149h-531zM379 487q0 34 -21.5 58t-55.5 24t-55.5 -24t-21.5 -58t21.5 -58.5t55.5 -24.5t55.5 24.5t21.5 58.5z" />
    <glyph glyph-name="three.case" horiz-adv-x="538" 
d="M23 92l112 105q39 -56 96 -56q47 0 74 27t27 74q1 47 -26.5 74t-74.5 27h-73l100 218h-201v149h435l-114 -248q116 -68 116 -220q0 -113 -69.5 -181.5t-182.5 -68.5q-67 0 -124.5 26.5t-94.5 73.5z" />
    <glyph glyph-name="four.case" horiz-adv-x="604" 
d="M343 155h-350l511 561v-432h62v-129h-62v-155h-161v155zM343 284v85l-72 -85h72z" />
    <glyph glyph-name="five.case" horiz-adv-x="563" 
d="M58 92l115 108q42 -59 91 -59q42 0 66 26t24 63q0 36 -24.5 62t-64.5 26q-66 0 -87 -60l-103 43v409h390v-149h-230v-94h41q108 0 174 -64.5t66 -172.5q0 -109 -65.5 -173.5t-174.5 -64.5q-69 0 -126 26.5t-92 73.5z" />
    <glyph glyph-name="six.case" horiz-adv-x="555" 
d="M301 467q101 -7 163.5 -74t62.5 -163q0 -101 -72 -169.5t-179 -68.5t-179 68.5t-72 169.5q0 55 46 139l183 341h179zM186 230q0 -37 24 -63t66 -26t66.5 26t24.5 63t-24.5 63t-66.5 26t-66 -26t-24 -63z" />
    <glyph glyph-name="seven.case" horiz-adv-x="540" 
d="M298 561h-255v149h496l-320 -710h-174z" />
    <glyph glyph-name="eight.case" horiz-adv-x="587" 
d="M43 231q0 114 90 177q-38 46 -38 111q0 83 58.5 141t140.5 58t139.5 -58t57.5 -141q0 -65 -38 -111q91 -63 91 -177q0 -101 -72 -170t-178 -69q-108 0 -179.5 68.5t-71.5 170.5zM342 519q0 20 -13 35t-35 15q-23 0 -36 -14.5t-13 -35.5t13 -36t36 -15q22 0 35 15t13 36z
M384 231q0 37 -24.5 63t-65.5 26q-42 0 -66.5 -26t-24.5 -63t24.5 -63.5t66.5 -26.5q41 0 65.5 26.5t24.5 63.5z" />
    <glyph glyph-name="nine.case" horiz-adv-x="555" 
d="M254 244q-99 7 -162.5 74t-63.5 162q0 101 72 169.5t179 68.5t179 -68.5t72 -169.5q0 -55 -46 -139l-183 -341h-179zM369 480q0 37 -24 63t-66 26t-66.5 -26t-24.5 -63t24.5 -63t66.5 -26t66 26t24 63z" />
    <glyph glyph-name="zero.case" horiz-adv-x="826" 
d="M47 355q0 149 108 256t258 107t258 -107t108 -256t-108 -256t-258 -107t-258 107t-108 256zM619 355q0 90 -58.5 152t-147.5 62t-147.5 -62t-58.5 -152t58.5 -152t147.5 -62t147.5 62t58.5 152z" />
    <glyph glyph-name="zero.slashed.case" horiz-adv-x="826" 
d="M47 355q0 149 108 256t258 107t258 -107t108 -256t-108 -256t-258 -107t-258 107t-108 256zM207 350l376 128q-60 91 -170 91q-89 0 -147.5 -62t-58.5 -152v-5zM619 355v5l-377 -128q60 -91 171 -91q89 0 147.5 62t58.5 152z" />
    <glyph glyph-name="a.superior" horiz-adv-x="353" 
d="M158 715q42 0 68 -26v21h94v-300h-94v20q-25 -25 -68 -25q-64 0 -102 46t-38 109t38 109t102 46zM221 516v88q-15 21 -41 21q-30 0 -46.5 -18.5t-16.5 -46.5t16.5 -46.5t46.5 -18.5q26 0 41 21z" />
    <glyph glyph-name="b.superior" horiz-adv-x="353" 
d="M33 836h99v-142q26 21 63 21q64 0 102 -46t38 -109t-38 -109t-102 -46q-43 0 -68 25v-20h-94v426zM132 604v-88q15 -21 41 -21q30 0 46.5 18.5t16.5 46.5t-16.5 46.5t-46.5 18.5q-26 0 -41 -21z" />
    <glyph glyph-name="c.superior" horiz-adv-x="313" 
d="M16 560q0 63 46 109t110 46q43 0 80 -21t58 -57l-82 -53q-18 39 -56 39q-24 0 -40.5 -17.5t-16.5 -45.5t16.5 -45.5t40.5 -17.5q38 0 56 39l82 -53q-21 -36 -58 -57t-80 -21q-64 0 -110 46t-46 109z" />
    <glyph glyph-name="d.superior" horiz-adv-x="353" 
d="M226 430q-25 -25 -68 -25q-64 0 -102 46t-38 109t38 109t102 46q37 0 63 -21v142h99v-426h-94v20zM221 516v88q-15 21 -41 21q-30 0 -46.5 -18.5t-16.5 -46.5t16.5 -46.5t46.5 -18.5q26 0 41 21z" />
    <glyph glyph-name="e.superior" horiz-adv-x="332" 
d="M16 560q0 67 43 111t112 44q60 0 103 -37t42 -104q0 -10 -2 -30h-204q2 -26 20 -38t37 -12q42 0 60 39l81 -49q-46 -79 -140 -79q-60 0 -106 43.5t-46 111.5zM110 598h111q-6 40 -55 40q-47 0 -56 -40z" />
    <glyph glyph-name="f.superior" horiz-adv-x="218" 
d="M9 710h42q-18 21 -18 49q0 33 22 55t58 22h98v-86h-58q-26 0 -26 -21q0 -17 17 -19h67v-86h-67v-214h-99v214h-36v86z" />
    <glyph glyph-name="g.superior" horiz-adv-x="346" 
d="M213 448q-27 -19 -64 -19q-62 0 -99 43.5t-37 99.5t37 99.5t99 43.5q42 0 69 -23v18h94v-243q13 -30 13 -58q0 -58 -48.5 -86.5t-108.5 -28.5q-82 0 -137 32l42 86q40 -29 87 -29q61 0 61 43q0 13 -8 22zM168 519q28 0 45 16v74q-19 16 -45 16q-27 0 -41.5 -16.5
t-14.5 -36.5t14.5 -36.5t41.5 -16.5z" />
    <glyph glyph-name="h.superior" horiz-adv-x="361" 
d="M33 836h99v-141q27 20 64 20q64 0 99 -38.5t35 -102.5v-164h-99v143q0 72 -51 72q-26 0 -48 -19v-196h-99v426z" />
    <glyph glyph-name="i.superior" horiz-adv-x="166" 
d="M26 783q0 24 16.5 41t40.5 17t41 -17t17 -41q0 -21 -13 -36h-90q-12 15 -12 36zM33 710h100v-300h-100v300z" />
    <glyph glyph-name="j.superior" horiz-adv-x="165" 
d="M25 783q0 24 16.5 41t40.5 17t41 -17t17 -41q0 -21 -13 -36h-90q-12 15 -12 36zM-30 393h14q48 0 48 35v282h100v-296q0 -54 -39 -84t-102 -30h-21v93z" />
    <glyph glyph-name="k.superior" horiz-adv-x="342" 
d="M33 836h99v-264l90 138h114l-93 -142l109 -158h-116l-104 150v-150h-99v426z" />
    <glyph glyph-name="l.superior" horiz-adv-x="166" 
d="M33 836h100v-426h-100v426z" />
    <glyph glyph-name="m.superior" horiz-adv-x="535" 
d="M405 553q0 71 -45 71q-28 0 -45 -19q3 -15 3 -31v-164h-99v143q0 71 -45 71q-24 0 -42 -16v-198h-99v300h94v-18q25 23 68 23q52 0 84 -34q37 34 96 34q67 0 98 -39.5t31 -101.5v-164h-99v143z" />
    <glyph glyph-name="n.superior" horiz-adv-x="361" 
d="M33 710h94v-19q28 24 69 24q64 0 99 -38.5t35 -102.5v-164h-99v143q0 72 -51 72q-26 0 -48 -19v-196h-99v300z" />
    <glyph glyph-name="o.superior" horiz-adv-x="344" 
d="M16 560q0 63 46 109t110 46t110 -46t46 -109t-46 -109t-110 -46t-110 46t-46 109zM229 560q0 28 -16 45.5t-41 17.5q-24 0 -40.5 -17.5t-16.5 -45.5t16.5 -45.5t40.5 -17.5q25 0 41 17.5t16 45.5z" />
    <glyph glyph-name="p.superior" horiz-adv-x="353" 
d="M33 710h94v-21q26 26 68 26q64 0 102 -46t38 -109t-38 -109t-102 -46q-39 0 -63 21v-126h-99v410zM132 604v-88q15 -21 41 -21q30 0 46.5 18.5t16.5 46.5t-16.5 46.5t-46.5 18.5q-26 0 -41 -21z" />
    <glyph glyph-name="q.superior" horiz-adv-x="353" 
d="M221 426q-24 -21 -63 -21q-64 0 -102 46t-38 109t38 109t102 46q42 0 68 -26v21h94v-410h-99v126zM221 516v88q-15 21 -41 21q-30 0 -46.5 -18.5t-16.5 -46.5t16.5 -46.5t46.5 -18.5q26 0 41 21z" />
    <glyph glyph-name="r.superior" horiz-adv-x="240" 
d="M33 710h94v-30q25 35 71 35q20 0 36 -6v-103q-23 13 -51 13q-30 0 -51 -16v-193h-99v300z" />
    <glyph glyph-name="s.superior" horiz-adv-x="249" 
d="M1 470l70 47q20 -34 58 -34q19 0 19 12q0 10 -37 23l-14 5q-81 29 -81 96q0 42 30.5 69t74.5 27q62 0 95 -46l-52 -57q-22 27 -43 27q-18 0 -18 -11q0 -10 40 -25l10 -4q44 -18 62.5 -40.5t18.5 -55.5q0 -46 -31 -72t-78 -26q-84 0 -124 65z" />
    <glyph glyph-name="t.superior" horiz-adv-x="253" 
d="M-9 710h59v41l99 48v-89h100l-23 -86h-77v-91q0 -33 32 -33h52v-90h-91q-42 0 -67 25t-25 68v121h-37z" />
    <glyph glyph-name="u.superior" horiz-adv-x="362" 
d="M235 433q-31 -28 -73 -28q-61 0 -95.5 38.5t-34.5 102.5v164h99v-143q0 -72 47 -72q34 0 52 24v191h99v-300h-94v23z" />
    <glyph glyph-name="v.superior" horiz-adv-x="332" 
d="M-12 710h115l63 -115l64 115h114l-178 -305z" />
    <glyph glyph-name="w.superior" horiz-adv-x="439" 
d="M-3 710h105l46 -158l72 163l72 -163l46 158h104l-95 -300h-76l-51 110l-52 -110h-75z" />
    <glyph glyph-name="x.superior" horiz-adv-x="331" 
d="M101 561l-101 149h115l50 -80l51 80h115l-101 -149l107 -151h-115l-56 84l-56 -84h-115z" />
    <glyph glyph-name="y.superior" horiz-adv-x="313" 
d="M104 405l-108 305h105l55 -183l56 183h105l-144 -410h-106z" />
    <glyph glyph-name="z.superior" horiz-adv-x="309" 
d="M137 625h-114v85h278l-130 -215h121v-85h-286z" />
    <glyph glyph-name="four.superior" horiz-adv-x="354" 
d="M208 501h-217l307 338v-257h37v-81h-37v-91h-90v91zM208 582v54l-51 -54h51z" />
    <glyph glyph-name="five.superior" horiz-adv-x="328" 
d="M31 465l71 68q24 -35 53 -35q23 0 37 15t14 35t-14 35t-37 15q-39 0 -51 -36l-64 26v248h236v-92h-136v-55q14 2 22 2q65 0 104.5 -38.5t39.5 -104.5t-39.5 -104.5t-104.5 -38.5q-87 0 -131 60z" />
    <glyph glyph-name="six.superior" horiz-adv-x="322" 
d="M8 548q0 34 28 84l108 204h112l-79 -145q59 -6 96.5 -46.5t37.5 -96.5q0 -61 -43.5 -102t-107.5 -41q-65 0 -108.5 41t-43.5 102zM212 548q0 21 -14 36t-38 15t-38 -15t-14 -36t14 -35.5t38 -14.5t38 14.5t14 35.5z" />
    <glyph glyph-name="seven.superior" horiz-adv-x="314" 
d="M171 744h-149v92h299l-191 -426h-108z" />
    <glyph glyph-name="eight.superior" horiz-adv-x="340" 
d="M19 549q0 67 52 106q-21 27 -21 65q0 50 35 85.5t85 35.5q49 0 84 -35.5t35 -85.5q0 -38 -21 -65q53 -40 53 -106q0 -61 -43.5 -102.5t-107.5 -41.5t-107.5 41.5t-43.5 102.5zM197 720q0 12 -7.5 20t-19.5 8q-27 0 -27 -28q0 -11 7 -19.5t20 -8.5q12 0 19.5 8.5t7.5 19.5
zM221 549q0 21 -13.5 36t-37.5 15t-38 -15t-14 -36t14 -36t38 -15t37.5 15t13.5 36z" />
    <glyph glyph-name="nine.superior" horiz-adv-x="322" 
d="M145 555q-60 6 -97 46.5t-37 96.5q0 61 43.5 102t107.5 41q65 0 108.5 -41t43.5 -102q0 -34 -28 -84l-108 -204h-112zM214 698q0 21 -14 35.5t-38 14.5t-38 -14.5t-14 -35.5t14 -36t38 -15t38 15t14 36z" />
    <glyph glyph-name="zero.superior" horiz-adv-x="488" 
d="M24 623q0 89 65 153.5t155 64.5t155 -64.5t65 -153.5t-65 -153.5t-155 -64.5t-155 64.5t-65 153.5zM364 623q0 53 -34 89t-86 36t-86 -36.5t-34 -88.5t34 -88.5t86 -36.5t86 36t34 89z" />
    <glyph glyph-name="zero.slashed.superior" horiz-adv-x="488" 
d="M35 623q0 89 65 153.5t155 64.5t155 -64.5t65 -153.5t-65 -153.5t-155 -64.5t-155 64.5t-65 153.5zM135 629l214 73q-35 46 -94 46q-50 0 -84 -34.5t-36 -84.5zM375 616l-215 -72q36 -46 95 -46q50 0 84 34t36 84z" />
    <glyph glyph-name="period.superior" horiz-adv-x="208" 
d="M35 474q0 29 20 49.5t49 20.5t49 -20.5t20 -49.5q0 -28 -20.5 -48.5t-48.5 -20.5q-29 0 -49 20t-20 49z" />
    <glyph glyph-name="hyphen.superior" horiz-adv-x="227" 
d="M26 667h175v-93h-175v93z" />
    <glyph glyph-name="comma.superior" horiz-adv-x="193" 
d="M83 410h-42v111h111v-111l-39 -94h-56z" />
    <glyph glyph-name="equal.superior" horiz-adv-x="321" 
d="M31 718h260v-73h-260v73zM31 596h260v-74h-260v74z" />
    <glyph glyph-name="plus.superior" horiz-adv-x="322" 
d="M31 657h93v95h74v-95h94v-74h-94v-94h-74v94h-93v74z" />
    <glyph glyph-name="minus.superior" horiz-adv-x="322" 
d="M31 657h261v-74h-261v74z" />
    <glyph glyph-name="parenleft.superior" horiz-adv-x="174" 
d="M33 594q0 159 66 279l73 -32q-56 -136 -56 -247q0 -112 56 -248l-73 -31q-66 119 -66 279z" />
    <glyph glyph-name="parenright.superior" horiz-adv-x="174" 
d="M139 594q0 161 -66 279l-72 -32q56 -136 56 -247q0 -112 -56 -248l72 -31q66 116 66 279z" />
    <glyph glyph-name="a.inferior" horiz-adv-x="353" 
d="M158 190q42 0 68 -26v21h94v-300h-94v20q-25 -25 -68 -25q-64 0 -102 46t-38 109t38 109t102 46zM221 -9v88q-15 21 -41 21q-30 0 -46.5 -18.5t-16.5 -46.5t16.5 -46.5t46.5 -18.5q26 0 41 21z" />
    <glyph glyph-name="b.inferior" horiz-adv-x="353" 
d="M33 311h99v-142q26 21 63 21q64 0 102 -46t38 -109t-38 -109t-102 -46q-43 0 -68 25v-20h-94v426zM132 79v-88q15 -21 41 -21q30 0 46.5 18.5t16.5 46.5t-16.5 46.5t-46.5 18.5q-26 0 -41 -21z" />
    <glyph glyph-name="c.inferior" horiz-adv-x="313" 
d="M16 35q0 63 46 109t110 46q43 0 80 -21t58 -57l-82 -53q-18 39 -56 39q-24 0 -40.5 -17.5t-16.5 -45.5t16.5 -45.5t40.5 -17.5q38 0 56 39l82 -53q-21 -36 -58 -57t-80 -21q-64 0 -110 46t-46 109z" />
    <glyph glyph-name="d.inferior" horiz-adv-x="353" 
d="M226 -95q-25 -25 -68 -25q-64 0 -102 46t-38 109t38 109t102 46q37 0 63 -21v142h99v-426h-94v20zM221 -9v88q-15 21 -41 21q-30 0 -46.5 -18.5t-16.5 -46.5t16.5 -46.5t46.5 -18.5q26 0 41 21z" />
    <glyph glyph-name="e.inferior" horiz-adv-x="332" 
d="M16 35q0 67 43 111t112 44q60 0 103 -37t42 -104q0 -10 -2 -30h-204q2 -26 20 -38t37 -12q42 0 60 39l81 -49q-46 -79 -140 -79q-60 0 -106 43.5t-46 111.5zM110 73h111q-6 40 -55 40q-47 0 -56 -40z" />
    <glyph glyph-name="f.inferior" horiz-adv-x="218" 
d="M9 185h42q-18 21 -18 49q0 33 22 55t58 22h98v-86h-58q-26 0 -26 -21q0 -17 17 -19h67v-86h-67v-214h-99v214h-36v86z" />
    <glyph glyph-name="g.inferior" horiz-adv-x="346" 
d="M213 -77q-27 -19 -64 -19q-62 0 -99 43.5t-37 99.5t37 99.5t99 43.5q42 0 69 -23v18h94v-243q13 -30 13 -58q0 -58 -48.5 -86.5t-108.5 -28.5q-82 0 -137 32l42 86q40 -29 87 -29q61 0 61 43q0 13 -8 22zM168 -6q28 0 45 16v74q-19 16 -45 16q-27 0 -41.5 -16.5
t-14.5 -36.5t14.5 -36.5t41.5 -16.5z" />
    <glyph glyph-name="h.inferior" horiz-adv-x="361" 
d="M33 311h99v-141q27 20 64 20q64 0 99 -38.5t35 -102.5v-164h-99v143q0 72 -51 72q-26 0 -48 -19v-196h-99v426z" />
    <glyph glyph-name="i.inferior" horiz-adv-x="166" 
d="M26 258q0 24 16.5 41t40.5 17t41 -17t17 -41q0 -21 -13 -36h-90q-12 15 -12 36zM33 185h100v-300h-100v300z" />
    <glyph glyph-name="j.inferior" horiz-adv-x="165" 
d="M25 258q0 24 16.5 41t40.5 17t41 -17t17 -41q0 -21 -13 -36h-90q-12 15 -12 36zM-30 -132h14q48 0 48 35v282h100v-296q0 -54 -39 -84t-102 -30h-21v93z" />
    <glyph glyph-name="k.inferior" horiz-adv-x="342" 
d="M33 311h99v-264l90 138h114l-93 -142l109 -158h-116l-104 150v-150h-99v426z" />
    <glyph glyph-name="l.inferior" horiz-adv-x="166" 
d="M33 311h100v-426h-100v426z" />
    <glyph glyph-name="m.inferior" horiz-adv-x="535" 
d="M405 28q0 71 -45 71q-28 0 -45 -19q3 -15 3 -31v-164h-99v143q0 71 -45 71q-24 0 -42 -16v-198h-99v300h94v-18q25 23 68 23q52 0 84 -34q37 34 96 34q67 0 98 -39.5t31 -101.5v-164h-99v143z" />
    <glyph glyph-name="n.inferior" horiz-adv-x="361" 
d="M33 185h94v-19q28 24 69 24q64 0 99 -38.5t35 -102.5v-164h-99v143q0 72 -51 72q-26 0 -48 -19v-196h-99v300z" />
    <glyph glyph-name="o.inferior" horiz-adv-x="344" 
d="M16 35q0 63 46 109t110 46t110 -46t46 -109t-46 -109t-110 -46t-110 46t-46 109zM229 35q0 28 -16 45.5t-41 17.5q-24 0 -40.5 -17.5t-16.5 -45.5t16.5 -45.5t40.5 -17.5q25 0 41 17.5t16 45.5z" />
    <glyph glyph-name="p.inferior" horiz-adv-x="353" 
d="M33 185h94v-21q26 26 68 26q64 0 102 -46t38 -109t-38 -109t-102 -46q-39 0 -63 21v-126h-99v410zM132 79v-88q15 -21 41 -21q30 0 46.5 18.5t16.5 46.5t-16.5 46.5t-46.5 18.5q-26 0 -41 -21z" />
    <glyph glyph-name="q.inferior" horiz-adv-x="353" 
d="M221 -99q-24 -21 -63 -21q-64 0 -102 46t-38 109t38 109t102 46q42 0 68 -26v21h94v-410h-99v126zM221 -9v88q-15 21 -41 21q-30 0 -46.5 -18.5t-16.5 -46.5t16.5 -46.5t46.5 -18.5q26 0 41 21z" />
    <glyph glyph-name="r.inferior" horiz-adv-x="240" 
d="M33 185h94v-30q25 35 71 35q20 0 36 -6v-103q-23 13 -51 13q-30 0 -51 -16v-193h-99v300z" />
    <glyph glyph-name="s.inferior" horiz-adv-x="249" 
d="M1 -55l70 47q20 -34 58 -34q19 0 19 12q0 10 -37 23l-14 5q-81 29 -81 96q0 42 30.5 69t74.5 27q62 0 95 -46l-52 -57q-22 27 -43 27q-18 0 -18 -11q0 -10 40 -25l10 -4q44 -18 62.5 -40.5t18.5 -55.5q0 -46 -31 -72t-78 -26q-84 0 -124 65z" />
    <glyph glyph-name="t.inferior" horiz-adv-x="253" 
d="M-9 185h59v41l99 48v-89h100l-23 -86h-77v-91q0 -33 32 -33h52v-90h-91q-42 0 -67 25t-25 68v121h-37z" />
    <glyph glyph-name="u.inferior" horiz-adv-x="362" 
d="M235 -92q-31 -28 -73 -28q-61 0 -95.5 38.5t-34.5 102.5v164h99v-143q0 -72 47 -72q34 0 52 24v191h99v-300h-94v23z" />
    <glyph glyph-name="v.inferior" horiz-adv-x="332" 
d="M-12 185h115l63 -115l64 115h114l-178 -305z" />
    <glyph glyph-name="w.inferior" horiz-adv-x="439" 
d="M-3 185h105l46 -158l72 163l72 -163l46 158h104l-95 -300h-76l-51 110l-52 -110h-75z" />
    <glyph glyph-name="x.inferior" horiz-adv-x="331" 
d="M101 36l-101 149h115l50 -80l51 80h115l-101 -149l107 -151h-115l-56 84l-56 -84h-115z" />
    <glyph glyph-name="y.inferior" horiz-adv-x="313" 
d="M104 -120l-108 305h105l55 -183l56 183h105l-144 -410h-106z" />
    <glyph glyph-name="z.inferior" horiz-adv-x="309" 
d="M137 100h-114v85h278l-130 -215h121v-85h-286z" />
    <glyph glyph-name="one.inferior" horiz-adv-x="186" 
d="M43 215l100 99v-429h-100v330z" />
    <glyph glyph-name="two.inferior" horiz-adv-x="351" 
d="M121 43q-40 18 -65 53.5t-25 79.5q0 58 42.5 99t100.5 41t101 -41t43 -99q0 -43 -23 -75l-98 -124h121v-92h-322zM218 176q0 19 -12 33t-32 14q-19 0 -31 -14t-12 -33t12 -33t31 -14q20 0 32 14t12 33z" />
    <glyph glyph-name="three.inferior" horiz-adv-x="312" 
d="M7 -60l70 66q21 -33 55 -33q28 0 43 15.5t15 42.5q1 27 -14.5 42.5t-42.5 15.5h-45l58 130h-119v92h264l-66 -148q66 -42 66 -132q0 -69 -41.5 -110t-110.5 -41q-83 0 -132 60z" />
    <glyph glyph-name="four.inferior" horiz-adv-x="354" 
d="M208 -24h-217l307 338v-257h37v-81h-37v-91h-90v91zM208 57v54l-51 -54h51z" />
    <glyph glyph-name="five.inferior" horiz-adv-x="328" 
d="M31 -60l71 68q24 -35 53 -35q23 0 37 15t14 35t-14 35t-37 15q-39 0 -51 -36l-64 26v248h236v-92h-136v-55q14 2 22 2q65 0 104.5 -38.5t39.5 -104.5t-39.5 -104.5t-104.5 -38.5q-87 0 -131 60z" />
    <glyph glyph-name="six.inferior" horiz-adv-x="322" 
d="M8 23q0 34 28 84l108 204h112l-79 -145q59 -6 96.5 -46.5t37.5 -96.5q0 -61 -43.5 -102t-107.5 -41q-65 0 -108.5 41t-43.5 102zM212 23q0 21 -14 36t-38 15t-38 -15t-14 -36t14 -35.5t38 -14.5t38 14.5t14 35.5z" />
    <glyph glyph-name="seven.inferior" horiz-adv-x="314" 
d="M171 219h-149v92h299l-191 -426h-108z" />
    <glyph glyph-name="eight.inferior" horiz-adv-x="340" 
d="M19 24q0 67 52 106q-21 27 -21 65q0 50 35 85.5t85 35.5q49 0 84 -35.5t35 -85.5q0 -38 -21 -65q53 -40 53 -106q0 -61 -43.5 -102.5t-107.5 -41.5t-107.5 41.5t-43.5 102.5zM197 195q0 12 -7.5 20t-19.5 8q-27 0 -27 -28q0 -11 7 -19.5t20 -8.5q12 0 19.5 8.5t7.5 19.5z
M221 24q0 21 -13.5 36t-37.5 15t-38 -15t-14 -36t14 -36t38 -15t37.5 15t13.5 36z" />
    <glyph glyph-name="nine.inferior" horiz-adv-x="322" 
d="M145 30q-60 6 -97 46.5t-37 96.5q0 61 43.5 102t107.5 41q65 0 108.5 -41t43.5 -102q0 -34 -28 -84l-108 -204h-112zM214 173q0 21 -14 35.5t-38 14.5t-38 -14.5t-14 -35.5t14 -36t38 -15t38 15t14 36z" />
    <glyph glyph-name="zero.inferior" horiz-adv-x="488" 
d="M24 98q0 89 65 153.5t155 64.5t155 -64.5t65 -153.5t-65 -153.5t-155 -64.5t-155 64.5t-65 153.5zM364 98q0 53 -34 89t-86 36t-86 -36.5t-34 -88.5t34 -88.5t86 -36.5t86 36t34 89z" />
    <glyph glyph-name="zero.slashed.inferior" horiz-adv-x="488" 
d="M24 98q0 89 65 153.5t155 64.5t155 -64.5t65 -153.5t-65 -153.5t-155 -64.5t-155 64.5t-65 153.5zM124 104l214 73q-34 46 -94 46q-50 0 -84 -34.5t-36 -84.5zM364 91l-215 -72q36 -46 95 -46q50 0 84 34t36 84z" />
    <glyph glyph-name="period.inferior" horiz-adv-x="208" 
d="M35 -51q0 29 20 49.5t49 20.5t49 -20.5t20 -49.5t-20.5 -49t-48.5 -20q-29 0 -49 20t-20 49z" />
    <glyph glyph-name="hyphen.inferior" horiz-adv-x="227" 
d="M26 142h175v-93h-175v93z" />
    <glyph glyph-name="comma.inferior" horiz-adv-x="193" 
d="M83 -115h-42v111h111v-111l-39 -94h-56z" />
    <glyph glyph-name="equal.inferior" horiz-adv-x="321" 
d="M31 193h260v-73h-260v73zM31 71h260v-74h-260v74z" />
    <glyph glyph-name="plus.inferior" horiz-adv-x="322" 
d="M31 132h93v95h74v-95h94v-74h-94v-94h-74v94h-93v74z" />
    <glyph glyph-name="minus.inferior" horiz-adv-x="322" 
d="M31 132h261v-74h-261v74z" />
    <glyph glyph-name="parenleft.inferior" horiz-adv-x="174" 
d="M33 69q0 159 66 279l73 -32q-56 -136 -56 -247q0 -112 56 -248l-73 -31q-66 119 -66 279z" />
    <glyph glyph-name="parenright.inferior" horiz-adv-x="174" 
d="M139 69q0 161 -66 279l-72 -32q56 -136 56 -247q0 -112 -56 -248l72 -31q66 116 66 279z" />
    <glyph glyph-name="one.numerator" horiz-adv-x="300" 
d="M100 614l100 99v-429h-100v330z" />
    <glyph glyph-name="two.numerator" horiz-adv-x="398" 
d="M131 442q-40 18 -65 53.5t-25 79.5q0 58 42.5 99t100.5 41t101 -41t43 -99q0 -43 -23 -75l-98 -124h121v-92h-322zM228 575q0 19 -12 33t-32 14q-19 0 -31 -14t-12 -33t12 -33t31 -14q20 0 32 14t12 33z" />
    <glyph glyph-name="three.numerator" horiz-adv-x="379" 
d="M45 339l70 66q21 -33 55 -33q28 0 43 15.5t15 42.5q1 27 -14.5 42.5t-42.5 15.5h-45l58 130h-119v92h264l-66 -148q66 -42 66 -132q0 -69 -41.5 -110t-110.5 -41q-83 0 -132 60z" />
    <glyph glyph-name="four.numerator" horiz-adv-x="364" 
d="M177 375h-217l307 338v-257h37v-81h-37v-91h-90v91zM177 456v54l-51 -54h51z" />
    <glyph glyph-name="five.numerator" horiz-adv-x="375" 
d="M50 339l71 68q24 -35 53 -35q23 0 37 15t14 35t-14 35t-37 15q-39 0 -51 -36l-64 26v248h236v-92h-136v-55q14 2 22 2q65 0 104.5 -38.5t39.5 -104.5t-39.5 -104.5t-104.5 -38.5q-87 0 -131 60z" />
    <glyph glyph-name="six.numerator" horiz-adv-x="353" 
d="M25 422q0 34 28 84l108 204h112l-79 -145q60 -7 97 -47t37 -96q0 -61 -43.5 -102t-107.5 -41q-65 0 -108.5 41t-43.5 102zM229 422q0 21 -14 36t-38 15t-38 -15t-14 -36t14 -35.5t38 -14.5t38 14.5t14 35.5z" />
    <glyph glyph-name="seven.numerator" horiz-adv-x="289" 
d="M179 618h-149v92h299l-191 -426h-108z" />
    <glyph glyph-name="eight.numerator" horiz-adv-x="362" 
d="M30 423q0 67 52 106q-21 27 -21 65q0 50 35 85.5t85 35.5q49 0 84 -35.5t35 -85.5q0 -38 -21 -65q53 -39 53 -106q0 -61 -43.5 -102.5t-107.5 -41.5t-107.5 41.5t-43.5 102.5zM208 594q0 12 -7.5 20t-19.5 8q-27 0 -27 -28q0 -11 7 -19.5t20 -8.5q12 0 19.5 8.5t7.5 19.5
zM232 423q0 21 -13.5 36t-37.5 15t-38 -15t-14 -36t14 -36t38 -15t37.5 15t13.5 36z" />
    <glyph glyph-name="nine.numerator" horiz-adv-x="353" 
d="M159 429q-60 6 -97 46.5t-37 96.5q0 61 43.5 102t107.5 41q65 0 108.5 -41t43.5 -102q0 -34 -28 -84l-108 -204h-112zM228 572q0 21 -14 35.5t-38 14.5t-38 -14.5t-14 -35.5t14 -36t38 -15t38 15t14 36z" />
    <glyph glyph-name="zero.numerator" horiz-adv-x="510" 
d="M35 497q0 89 65 153.5t155 64.5t155 -64.5t65 -153.5t-65 -153.5t-155 -64.5t-155 64.5t-65 153.5zM375 497q0 53 -34 89t-86 36t-86 -36.5t-34 -88.5t34 -88.5t86 -36.5t86 36t34 89z" />
    <glyph glyph-name="zero.slashed.numerator" horiz-adv-x="510" 
d="M35 497q0 89 65 153.5t155 64.5t155 -64.5t65 -153.5t-65 -153.5t-155 -64.5t-155 64.5t-65 153.5zM135 504l213 73q-35 45 -93 45q-50 0 -84 -34t-36 -84zM375 491l-215 -72q34 -47 95 -47q51 0 84.5 34t35.5 85z" />
    <glyph glyph-name="one.denominator" horiz-adv-x="300" 
d="M100 330l100 99v-429h-100v330z" />
    <glyph glyph-name="two.denominator" horiz-adv-x="398" 
d="M131 158q-40 18 -65 53.5t-25 79.5q0 58 42.5 99t100.5 41t101 -41t43 -99q0 -43 -23 -75l-98 -124h121v-92h-322zM228 291q0 19 -12 33t-32 14q-19 0 -31 -14t-12 -33t12 -33t31 -14q20 0 32 14t12 33z" />
    <glyph glyph-name="three.denominator" horiz-adv-x="379" 
d="M45 55l70 66q21 -33 55 -33q28 0 43 15.5t15 42.5q1 27 -14.5 42.5t-42.5 15.5h-45l58 130h-119v92h264l-66 -148q66 -42 66 -132q0 -69 -41.5 -110t-110.5 -41q-83 0 -132 60z" />
    <glyph glyph-name="four.denominator" horiz-adv-x="364" 
d="M177 91h-217l307 338v-257h37v-81h-37v-91h-90v91zM177 172v54l-51 -54h51z" />
    <glyph glyph-name="five.denominator" horiz-adv-x="375" 
d="M50 55l71 68q24 -35 53 -35q23 0 37 15t14 35t-14 35t-37 15q-39 0 -51 -36l-64 26v248h236v-92h-136v-55q14 2 22 2q65 0 104.5 -38.5t39.5 -104.5t-39.5 -104.5t-104.5 -38.5q-87 0 -131 60z" />
    <glyph glyph-name="six.denominator" horiz-adv-x="353" 
d="M25 138q0 34 28 84l108 204h112l-79 -145q60 -7 97 -47t37 -96q0 -61 -43.5 -102t-107.5 -41q-65 0 -108.5 41t-43.5 102zM229 138q0 21 -14 36t-38 15t-38 -15t-14 -36t14 -35.5t38 -14.5t38 14.5t14 35.5z" />
    <glyph glyph-name="seven.denominator" horiz-adv-x="289" 
d="M179 334h-149v92h299l-191 -426h-108z" />
    <glyph glyph-name="eight.denominator" horiz-adv-x="362" 
d="M30 139q0 67 52 106q-21 27 -21 65q0 50 35 85.5t85 35.5q49 0 84 -35.5t35 -85.5q0 -38 -21 -65q53 -40 53 -106q0 -61 -43.5 -102.5t-107.5 -41.5t-107.5 41.5t-43.5 102.5zM208 310q0 12 -7.5 20t-19.5 8q-27 0 -27 -28q0 -11 7 -19.5t20 -8.5q12 0 19.5 8.5t7.5 19.5
zM232 139q0 21 -13.5 36t-37.5 15t-38 -15t-14 -36t14 -36t38 -15t37.5 15t13.5 36z" />
    <glyph glyph-name="nine.denominator" horiz-adv-x="353" 
d="M159 145q-60 6 -97 46.5t-37 96.5q0 61 43.5 102t107.5 41q65 0 108.5 -41t43.5 -102q0 -34 -28 -84l-108 -204h-112zM228 288q0 21 -14 35.5t-38 14.5t-38 -14.5t-14 -35.5t14 -36t38 -15t38 15t14 36z" />
    <glyph glyph-name="zero.denominator" horiz-adv-x="510" 
d="M35 213q0 89 65 153.5t155 64.5t155 -64.5t65 -153.5t-65 -153.5t-155 -64.5t-155 64.5t-65 153.5zM375 213q0 53 -34 89t-86 36t-86 -36.5t-34 -88.5t34 -88.5t86 -36.5t86 36t34 89z" />
    <glyph glyph-name="zero.slashed.denominator" horiz-adv-x="510" 
d="M35 213q0 89 65 153.5t155 64.5t155 -64.5t65 -153.5t-65 -153.5t-155 -64.5t-155 64.5t-65 153.5zM135 220l213 73q-35 45 -93 45q-50 0 -84 -34t-36 -84zM375 207l-215 -72q34 -47 95 -47q51 0 84.5 34t35.5 85z" />
    <glyph glyph-name="ampersand.case" horiz-adv-x="630" 
d="M28 220q0 87 58.5 152.5t144.5 75.5l-128 262h411v-137h-172l280 -573h-172l-33 68q-55 -76 -161 -76q-94 0 -161 67t-67 161zM333 220q0 32 -23 56t-54 24t-54 -24t-23 -56t23 -56t54 -24t54 24t23 56z" />
    <glyph glyph-name="hyphen.case" horiz-adv-x="386" 
d="M51 414h284v-144h-284v144z" />
    <glyph glyph-name="endash.case" horiz-adv-x="586" 
d="M51 414h484v-144h-484v144z" />
    <glyph glyph-name="emdash.case" horiz-adv-x="879" 
d="M51 414h777v-144h-777v144z" />
    <glyph glyph-name="question.case" horiz-adv-x="505" 
d="M167 401h67q42 0 68 21.5t26 63.5q0 41 -23.5 63.5t-54.5 22.5q-30 0 -52.5 -22t-22.5 -64h-157q0 97 66.5 164.5t165.5 67.5t167 -67.5t68 -164.5q0 -98 -70.5 -164.5t-180.5 -66.5h-67v146zM122 100q0 52 40 84h136q40 -33 40 -84q0 -45 -31.5 -76.5t-76.5 -31.5
t-76.5 31.5t-31.5 76.5z" />
    <glyph glyph-name="questiondown.case" horiz-adv-x="505" 
d="M383 610q0 -53 -40 -85h-136q-40 33 -40 85q0 45 31.5 76.5t76.5 31.5t76.5 -31.5t31.5 -76.5zM338 309h-67q-42 0 -68 -21.5t-26 -63.5q0 -41 23.5 -63.5t54.5 -22.5t53 22t22 64h157q0 -97 -66.5 -164.5t-165.5 -67.5t-167 67.5t-68 164.5q0 98 70.5 164.5t180.5 66.5
h67v-146z" />
    <glyph glyph-name="exclam.case" horiz-adv-x="346" 
d="M93 439v271h161v-271l-30 -184h-101zM65 100q0 51 40 84h136q40 -33 40 -84q0 -45 -31.5 -76.5t-76.5 -31.5t-76.5 31.5t-31.5 76.5z" />
    <glyph glyph-name="exclamdown.case" horiz-adv-x="346" 
d="M281 610q0 -51 -40 -84h-136q-40 33 -40 84q0 45 31.5 76.5t76.5 31.5t76.5 -31.5t31.5 -76.5zM253 271v-271h-161v271l30 184h101z" />
    <glyph glyph-name="guilsinglleft.case" horiz-adv-x="356" 
d="M42 310l164 241l100 -68l-118 -173l118 -173l-100 -68z" />
    <glyph glyph-name="guilsinglright.case" horiz-adv-x="356" 
d="M314 310l-164 241l-100 -68l118 -173l-118 -173l100 -68z" />
    <glyph glyph-name="guillemotleft.case" horiz-adv-x="592" 
d="M42 310l164 241l100 -68l-118 -173l118 -173l-100 -68zM278 310l164 241l100 -68l-118 -173l118 -173l-100 -68z" />
    <glyph glyph-name="guillemotright.case" horiz-adv-x="592" 
d="M314 310l-164 241l-100 -68l118 -173l-118 -173l100 -68zM550 310l-164 241l-100 -68l118 -173l-118 -173l100 -68z" />
    <glyph glyph-name="parenleft.case" horiz-adv-x="332" 
d="M63 355q0 185 114 363l102 -45q-47 -102 -67 -171t-20 -147t20 -147t67 -171l-102 -45q-114 178 -114 363z" />
    <glyph glyph-name="parenright.case" horiz-adv-x="332" 
d="M269 355q0 185 -114 363l-102 -45q47 -102 67 -171t20 -147t-20 -147t-67 -171l102 -45q114 178 114 363z" />
    <glyph glyph-name="bracketleft.case" horiz-adv-x="307" 
d="M67 710h231v-108h-104v-494h104v-108h-231v710z" />
    <glyph glyph-name="bracketright.case" horiz-adv-x="307" 
d="M240 710h-231v-108h104v-494h-104v-108h231v710z" />
    <glyph glyph-name="braceleft.case" horiz-adv-x="338" 
d="M99 142v106q0 53 -53 53h-8v108h8q53 0 53 53v106q0 64 38.5 103t103.5 39h89v-108h-47q-31 0 -44 -13t-13 -44v-92q0 -83 -62 -98q62 -15 62 -98v-92q0 -31 13 -44t44 -13h47v-108h-83q-65 0 -106.5 39t-41.5 103z" />
    <glyph glyph-name="braceright.case" horiz-adv-x="338" 
d="M239 142v106q0 53 53 53h8v108h-8q-53 0 -53 53v106q0 64 -38.5 103t-103.5 39h-89v-108h47q31 0 44 -13t13 -44v-92q0 -83 62 -98q-62 -15 -62 -98v-92q0 -31 -13 -44t-44 -13h-47v-108h83q65 0 106.5 39t41.5 103z" />
    <glyph glyph-name="bar.case" horiz-adv-x="297" 
d="M85 710h127v-710h-127v710z" />
    <glyph glyph-name="brokenbar.case" horiz-adv-x="297" 
d="M85 710h127v-291h-127v291zM85 292h127v-292h-127v292z" />
    <glyph glyph-name="periodcentered.case" horiz-adv-x="346" 
d="M65 342q0 45 31.5 76.5t76.5 31.5t76.5 -31.5t31.5 -76.5t-31.5 -76.5t-76.5 -31.5t-76.5 31.5t-31.5 76.5z" />
    <glyph glyph-name="plus.case" horiz-adv-x="606" 
d="M85 399h161v161h114v-161h161v-114h-161v-161h-114v161h-161v114z" />
    <glyph glyph-name="minus.case" horiz-adv-x="606" 
d="M85 399h436v-114h-436v114z" />
    <glyph glyph-name="divide.case" horiz-adv-x="606" 
d="M223 509q0 33 23.5 56.5t56.5 23.5t56.5 -23.5t23.5 -56.5t-23.5 -56.5t-56.5 -23.5t-56.5 23.5t-23.5 56.5zM85 399h436v-114h-436v114zM223 175q0 33 23.5 56.5t56.5 23.5t56.5 -23.5t23.5 -56.5t-23.5 -56.5t-56.5 -23.5t-56.5 23.5t-23.5 56.5z" />
    <glyph glyph-name="multiply.case" horiz-adv-x="587" 
d="M85 194l128 128l-128 128l81 81l127 -129l129 129l80 -81l-128 -128l128 -128l-80 -80l-129 127l-127 -127z" />
    <glyph glyph-name="equal.case" horiz-adv-x="606" 
d="M85 502h436v-114h-436v114zM85 296h436v-114h-436v114z" />
    <glyph glyph-name="plusminus.case" horiz-adv-x="606" 
d="M85 449h161v111h114v-111h161v-114h-161v-111h-114v111h-161v114zM85 174h436v-114h-436v114z" />
    <glyph glyph-name="less.case" horiz-adv-x="476" 
d="M43 343l289 291l85 -85l-205 -206l205 -206l-85 -85z" />
    <glyph glyph-name="greater.case" horiz-adv-x="476" 
d="M59 137l205 206l-205 206l85 85l289 -291l-289 -291z" />
    <glyph glyph-name="lessequal.case" horiz-adv-x="606" 
d="M68 422l436 212v-126l-177 -86l177 -86v-126zM68 174h436v-114h-436v114z" />
    <glyph glyph-name="greaterequal.case" horiz-adv-x="606" 
d="M102 336l177 86l-177 86v126l436 -212l-436 -212v126zM102 174h436v-114h-436v114z" />
    <glyph glyph-name="notequal.case" horiz-adv-x="606" 
d="M85 502h265l80 110l91 -66l-32 -44h32v-114h-115l-67 -92h182v-114h-264l-81 -112l-91 66l33 46h-33v114h116l66 92h-182v114z" />
    <glyph glyph-name="acute.case" horiz-adv-x="416" 
d="M170 923h166l-126 -145h-110z" />
    <glyph glyph-name="breve.case" horiz-adv-x="494" 
d="M63 953h86q0 -41 28.5 -69.5t69.5 -28.5t69.5 28.5t28.5 69.5h86q0 -77 -53.5 -130.5t-130.5 -53.5t-130.5 53.5t-53.5 130.5z" />
    <glyph glyph-name="caron.case" horiz-adv-x="514" 
d="M80 835l41 96l136 -59l136 59l41 -96l-177 -76z" />
    <glyph glyph-name="cedilla.case" horiz-adv-x="352" 
d="M142 0h102l-34 -134h-127z" />
    <glyph glyph-name="circumflex.case" horiz-adv-x="510" 
d="M78 855l177 76l177 -76l-41 -96l-136 59l-136 -59z" />
    <glyph glyph-name="dieresis.case" horiz-adv-x="578" 
d="M90 850q0 33 23.5 56.5t56.5 23.5t56.5 -23.5t23.5 -56.5t-23.5 -56.5t-56.5 -23.5t-56.5 23.5t-23.5 56.5zM328 850q0 33 23.5 56.5t56.5 23.5t56.5 -23.5t23.5 -56.5t-23.5 -56.5t-56.5 -23.5t-56.5 23.5t-23.5 56.5z" />
    <glyph glyph-name="dotaccent.case" horiz-adv-x="324" 
d="M75 850q0 36 25.5 61.5t61.5 25.5t61.5 -25.5t25.5 -61.5t-25.5 -61.5t-61.5 -25.5t-61.5 25.5t-25.5 61.5z" />
    <glyph glyph-name="grave.case" horiz-adv-x="416" 
d="M80 923h166l70 -145h-110z" />
    <glyph glyph-name="hungarumlaut.case" horiz-adv-x="599" 
d="M170 923h148l-125 -145h-93zM371 923h148l-125 -145h-93z" />
    <glyph glyph-name="macron.case" horiz-adv-x="494" 
d="M82 898h330v-96h-330v96z" />
    <glyph glyph-name="ogonek.case" horiz-adv-x="369" 
d="M80 -82q0 50 39 82h168q-26 -12 -37 -18t-20.5 -16t-9.5 -22q0 -30 32 -30q22 0 35 13v-87q-38 -29 -90 -29q-51 0 -84 31t-33 76z" />
    <glyph glyph-name="ring.case" horiz-adv-x="380" 
d="M70 879q0 49 35 84.5t85 35.5t85 -35.5t35 -84.5t-35 -84.5t-85 -35.5t-85 35.5t-35 84.5zM237 879q0 19 -13.5 33t-33.5 14t-33.5 -14t-13.5 -33t13.5 -33t33.5 -14t33.5 14t13.5 33z" />
    <glyph glyph-name="tilde.case" horiz-adv-x="550" 
d="M86 806q7 53 41.5 84.5t75.5 31.5q33 0 74 -20t52 -20q17 0 27 9.5t16 32.5h96l-4 -29q-7 -53 -41.5 -84.5t-75.5 -31.5q-33 0 -74 20t-52 20q-17 0 -27 -9.5t-16 -32.5h-96z" />
    <glyph glyph-name="A.ss01" horiz-adv-x="635" 
d="M227 0h-160v710h501v-710h-160v199h-181v-199zM227 353h181v199h-181v-199z" />
    <glyph glyph-name="B.ss01" horiz-adv-x="727" 
d="M67 710h440v-278h160v-432h-600v710zM227 432h120v120h-120v-120zM227 158h280v120h-280v-120z" />
    <glyph glyph-name="C.ss01" horiz-adv-x="551" 
d="M67 710h444v-158h-284v-394h284v-158h-444v710z" />
    <glyph glyph-name="G.ss01" horiz-adv-x="733" 
d="M384 432h287v-432h-604v710h160v-1h364v-157h-364v-394h284v120h-127v154z" />
    <glyph glyph-name="J.ss01" horiz-adv-x="418" 
d="M19 159h169v551h163v-710h-332v159z" />
    <glyph glyph-name="O.ss01" horiz-adv-x="844" 
d="M67 710h710v-710h-710v710zM617 158v394h-390v-394h390z" />
    <glyph glyph-name="P.ss01" horiz-adv-x="615" 
d="M67 710h501v-510h-341v-200h-160v710zM227 353h181v199h-181v-199z" />
    <glyph glyph-name="Q.ss01" horiz-adv-x="844" 
d="M67 710h710v-710h-278v-184h-154v184h-278v710zM345 158v197h154v-197h118v394h-390v-394h118z" />
    <glyph glyph-name="S.ss01" horiz-adv-x="564" 
d="M60 710h444v-158h-284v-120h284v-432h-444v158h284v120h-284v432z" />
    <glyph glyph-name="U.ss01" horiz-adv-x="716" 
d="M67 710h160v-552h262v552h160v-710h-582v710z" />
    <glyph glyph-name="Y.ss01" horiz-adv-x="696" 
d="M57 710h160v-278h262v278h160v-432h-211v-278h-160v278h-211v432z" />
    <glyph glyph-name="b.ss01" horiz-adv-x="620" 
d="M59 710h151v-210h351v-500h-502v710zM210 150h200v200h-200v-200z" />
    <glyph glyph-name="c.ss01" horiz-adv-x="441" 
d="M59 500h333v-150h-182v-200h182v-150h-333v500z" />
    <glyph glyph-name="d.ss01" horiz-adv-x="620" 
d="M59 0v500h351v210h151v-710h-502zM210 150h200v200h-200v-200z" />
    <glyph glyph-name="f.ss01" horiz-adv-x="372" 
d="M16 500h65v210h267v-132h-116v-78h116v-132h-116v-368h-151v368h-65v132z" />
    <glyph glyph-name="h.ss01" horiz-adv-x="602" 
d="M392 350h-182v-350h-151v710h151v-210h333v-500h-151v350z" />
    <glyph glyph-name="i.ss01" horiz-adv-x="270" 
d="M59 710h152v-139h-152v139zM59 500h152v-500h-152v500z" />
    <glyph glyph-name="j.ss01" horiz-adv-x="270" 
d="M59 710h152v-139h-152v139zM-45 -41h104v541h152v-684h-256v143z" />
    <glyph glyph-name="k.ss01" horiz-adv-x="598" 
d="M408 185h-198v-185h-151v710h151v-375h87v165h151v-165h111v-335h-151v185z" />
    <glyph glyph-name="m.ss01" horiz-adv-x="895" 
d="M372 350h-162v-350h-151v500h777v-500h-151v350h-162v-350h-151v350z" />
    <glyph glyph-name="n.ss01" horiz-adv-x="602" 
d="M392 350h-182v-350h-151v500h484v-500h-151v350z" />
    <glyph glyph-name="o.ss01" horiz-adv-x="618" 
d="M59 500h500v-500h-500v500zM210 150h198v200h-198v-200z" />
    <glyph glyph-name="p.ss01" horiz-adv-x="620" 
d="M59 500h502v-500h-351v-184h-151v684zM210 150h200v200h-200v-200z" />
    <glyph glyph-name="q.ss01" horiz-adv-x="620" 
d="M410 -184v184h-351v500h502v-684h-151zM210 150h200v200h-200v-200z" />
    <glyph glyph-name="r.ss01" horiz-adv-x="392" 
d="M59 500h319v-150h-168v-350h-151v500z" />
    <glyph glyph-name="s.ss01" horiz-adv-x="518" 
d="M55 500h408v-150h-257v-100h-151v250zM55 150h251v100h151v-250h-402v150z" />
    <glyph glyph-name="t.ss01" horiz-adv-x="412" 
d="M4 500h82v113h151v-113h140v-132h-140v-230h140v-138h-291v368h-82v132z" />
    <glyph glyph-name="u.ss01" horiz-adv-x="602" 
d="M59 500h151v-350h182v350h151v-500h-484v500z" />
    <glyph glyph-name="y.ss01" horiz-adv-x="602" 
d="M59 500h151v-350h182v350h151v-684h-151v184h-333v500z" />
    <glyph glyph-name="A.ss02" horiz-adv-x="723" 
d="M336 710h320v-710h-160v110h-285l-53 -110h-168zM275 240h221v312h-69z" />
    <glyph glyph-name="E.ss02" horiz-adv-x="511" 
d="M31 216q0 78 51 139q-51 59 -51 139q0 90 63.5 153t153.5 63h223v-158h-221q-25 0 -42.5 -17.5t-17.5 -42.5t17.5 -42.5t42.5 -17.5h161v-154h-161q-25 0 -42.5 -17.5t-17.5 -42.5t17.5 -42.5t42.5 -17.5h221v-158h-224q-89 0 -152.5 63.5t-63.5 152.5z" />
    <glyph glyph-name="K.ss02" horiz-adv-x="681" 
d="M67 710h160v-352h2l247 352h183l-246 -352h87l191 -358h-179l-107 200h-178v-200h-160v710z" />
    <glyph glyph-name="N.ss02" horiz-adv-x="742" 
d="M515 148l-288 231v-379h-160v718l448 -359v351h160v-710h-160v148z" />
    <glyph glyph-name="Q.ss02" horiz-adv-x="794" 
d="M320 0q-124 27 -205 126.5t-81 228.5q0 150 106.5 256.5t256.5 106.5t256.5 -106.5t106.5 -256.5q0 -129 -81 -228.5t-205 -126.5v-184h-154v184zM474 161q56 24 90.5 76.5t34.5 117.5q0 86 -58.5 147.5t-143.5 61.5q-64 0 -114.5 -36t-73.5 -94h265v-273zM210 276
q32 -83 110 -115v115h-110z" />
    <glyph glyph-name="W.ss02" horiz-adv-x="915" 
d="M-10 710h163l180 -396l52 116l-130 280h147l55 -122l56 122h147l-131 -280l53 -116l180 396h163l-335 -718l-133 284l-132 -284z" />
    <glyph glyph-name="X.ss02" horiz-adv-x="663" 
d="M292 271l-119 -271h-173l188 427l-188 283h190l181 -272l119 272h173l-188 -428l188 -282h-190z" />
    <glyph glyph-name="Y.ss02" horiz-adv-x="756" 
d="M508 0v298l263 412h-189l-173 -278h-192v278h-160v-432h291v-278h160z" />
    <glyph glyph-name="a.ss02" horiz-adv-x="548" 
d="M26 165q0 73 55.5 118t146.5 45q65 0 110 -17v57h-250v132h401v-500h-151v30q-46 -38 -118 -38q-94 0 -144 52.5t-50 120.5zM338 159v51q-40 15 -85 15q-37 0 -56 -13.5t-19 -34.5q0 -47 66 -47q60 0 94 29z" />
    <glyph glyph-name="g.ss02" horiz-adv-x="583" 
d="M91 -37h281v102q-45 -37 -110 -37q-108 0 -172 71.5t-64 168.5t64 168.5t172 71.5q64 0 110 -38v30h151v-684h-432v147zM372 208v120q-34 42 -90 42q-48 0 -76 -30.5t-28 -71.5t28 -71.5t76 -30.5q56 0 90 42z" />
    <glyph glyph-name="k.ss02" horiz-adv-x="561" 
d="M305 121h-95v-121h-151v710h151v-210h261v-150h-261v-79h161l202 -271h-178z" />
    <glyph glyph-name="m.ss02" horiz-adv-x="890" 
d="M685 252q0 117 -79 117q-54 0 -87 -45q4 -23 4 -53v-271h-151v244q0 117 -79 117h-83v-361h-151v500h265q84 0 138 -57q57 65 164 65q106 0 158 -64t52 -165v-279h-151v252z" />
    <glyph glyph-name="w.ss02" horiz-adv-x="867" 
d="M45 271v229h151v-184l109 -166h52v350h151v-350h53l110 166v184h151v-229l-178 -271h-421z" />
    <glyph glyph-name="b.ss03" horiz-adv-x="542" 
d="M59 500h233q93 0 138.5 -45.5t45.5 -108.5q0 -43 -28 -80q60 -45 60 -112q0 -63 -45.5 -108.5t-138.5 -45.5h-265v500zM210 370v-69h77q14 0 25.5 9t11.5 26t-11.5 25.5t-25.5 8.5h-77zM210 199v-69h109q14 0 25.5 8.5t11.5 25.5t-11.5 26t-25.5 9h-109z" />
    <glyph glyph-name="d.ss03" horiz-adv-x="552" 
d="M59 500h221q108 0 175 -72t67 -178t-67 -178t-175 -72h-221v500zM210 353v-206h57q47 0 75 29.5t28 73.5t-28 73.5t-75 29.5h-57z" />
    <glyph glyph-name="f.ss03" horiz-adv-x="453" 
d="M59 500h357v-132h-206v-90h176v-132h-176v-146h-151v500z" />
    <glyph glyph-name="g.ss03" horiz-adv-x="548" 
d="M30 250q0 107 76 182.5t184 75.5q72 0 125.5 -30t81.5 -69l-119 -84q-33 42 -88 42q-47 0 -77.5 -33t-30.5 -84t30.5 -84t77.5 -33q42 0 68 11v55h-91l46 102h196v-231q-79 -78 -219 -78q-108 0 -184 75.5t-76 182.5z" />
    <glyph glyph-name="h.ss03" horiz-adv-x="602" 
d="M392 184h-182v-184h-151v500h151v-184h182v184h151v-500h-151v184z" />
    <glyph glyph-name="i.ss03" horiz-adv-x="270" 
d="M59 500h152v-500h-152v500z" />
    <glyph glyph-name="j.ss03" horiz-adv-x="473" 
d="M213 141q53 0 53 70v289h152v-316q0 -80 -53.5 -132t-151.5 -52t-151.5 52t-53.5 132v28h152v-1q0 -70 53 -70z" />
    <glyph glyph-name="k.ss03" horiz-adv-x="550" 
d="M59 500h151v-251l153 251h165l-156 -255l185 -245h-178l-169 225v-225h-151v500z" />
    <glyph glyph-name="l.ss03" horiz-adv-x="449" 
d="M59 500h152v-368h205v-132h-357v500z" />
    <glyph glyph-name="p.ss03" horiz-adv-x="500" 
d="M59 500h233q48 0 85.5 -18t58 -47t30.5 -59.5t10 -59.5t-10 -60t-30.5 -59.5t-58 -47t-85.5 -18.5h-82v-131h-151v500zM210 370v-109h57q27 0 42 14.5t15 40.5t-15 40t-42 14h-57z" />
    <glyph glyph-name="q.ss03" horiz-adv-x="585" 
d="M436 37q-64 -45 -146 -45q-108 0 -184 75.5t-76 182.5t76 182.5t184 75.5t184 -75.5t76 -182.5q0 -63 -28 -117l51 -41l-81 -100zM315 135l-56 46l81 99l57 -46q0 2 0.5 7.5t0.5 8.5q0 51 -30.5 84t-77.5 33t-77.5 -33t-30.5 -84t30.5 -84t77.5 -33q17 0 25 2z" />
    <glyph glyph-name="t.ss03" horiz-adv-x="441" 
d="M15 500h411v-132h-130v-368h-151v368h-130v132z" />
    <glyph glyph-name="y.ss03" horiz-adv-x="504" 
d="M176 184l-188 316h170l94 -186l94 186h170l-188 -316v-184h-152v184z" />
    <glyph glyph-name="A.ss04" horiz-adv-x="680" 
d="M340 718l350 -718h-168l-182 388l-182 -388h-168zM250 82q0 38 26 64t64 26t64 -26t26 -64t-26 -64t-64 -26t-64 26t-26 64z" />
    <glyph glyph-name="E.ss04" horiz-adv-x="547" 
d="M67 710h440v-158h-280v-394h280v-158h-440v710zM277 355q0 37 26.5 63.5t63.5 26.5t63.5 -26.5t26.5 -63.5t-26.5 -63.5t-63.5 -26.5t-63.5 26.5t-26.5 63.5z" />
    <glyph glyph-name="F.ss04" horiz-adv-x="517" 
d="M67 710h420v-158h-260v-552h-160v710zM267 355q0 37 26.5 63.5t63.5 26.5t63.5 -26.5t26.5 -63.5t-26.5 -63.5t-63.5 -26.5t-63.5 26.5t-26.5 63.5z" />
    <glyph glyph-name="G.ss04" horiz-adv-x="729" 
d="M34 355q0 150 106.5 256.5t256.5 106.5q178 0 287 -134l-121 -99q-33 41 -71.5 60t-94.5 19q-85 0 -143.5 -61.5t-58.5 -147.5t58.5 -147.5t143.5 -61.5q88 0 137 35v249h155v-322q-101 -116 -292 -116q-150 0 -256.5 106.5t-106.5 256.5zM307 355q0 37 26.5 63.5
t63.5 26.5t63.5 -26.5t26.5 -63.5t-26.5 -63.5t-63.5 -26.5t-63.5 26.5t-26.5 63.5z" />
    <glyph glyph-name="H.ss04" horiz-adv-x="738" 
d="M67 710h160v-710h-160v710zM511 710h160v-710h-160v710zM279 355q0 37 26.5 63.5t63.5 26.5t63.5 -26.5t26.5 -63.5t-26.5 -63.5t-63.5 -26.5t-63.5 26.5t-26.5 63.5z" />
    <glyph glyph-name="K.ss04" horiz-adv-x="671" 
d="M419 628q0 38 26.5 64t63.5 26t63.5 -26t26.5 -64t-26.5 -64t-63.5 -26t-63.5 26t-26.5 64zM227 332v-332h-160v710h160v-352h177l287 -358h-198z" />
    <glyph glyph-name="O.ss04" horiz-adv-x="794" 
d="M34 355q0 150 106.5 256.5t256.5 106.5t256.5 -106.5t106.5 -256.5t-106.5 -256.5t-256.5 -106.5t-256.5 106.5t-106.5 256.5zM599 355q0 86 -58.5 147.5t-143.5 61.5t-143.5 -61.5t-58.5 -147.5t58.5 -147.5t143.5 -61.5t143.5 61.5t58.5 147.5zM307 355q0 37 26.5 63.5
t63.5 26.5t63.5 -26.5t26.5 -63.5t-26.5 -63.5t-63.5 -26.5t-63.5 26.5t-26.5 63.5z" />
    <glyph glyph-name="Q.ss04" horiz-adv-x="814" 
d="M34 355q0 150 106.5 256.5t256.5 106.5t256.5 -106.5t106.5 -256.5q0 -91 -42 -170l101 -81l-91 -112l-101 82q-99 -82 -230 -82q-150 0 -256.5 106.5t-106.5 256.5zM599 355q0 86 -58.5 147.5t-143.5 61.5t-143.5 -61.5t-58.5 -147.5t58.5 -147.5t143.5 -61.5
t143.5 61.5t58.5 147.5zM307 355q0 37 26.5 63.5t63.5 26.5t63.5 -26.5t26.5 -63.5t-26.5 -63.5t-63.5 -26.5t-63.5 26.5t-26.5 63.5z" />
    <glyph glyph-name="Y.ss04" horiz-adv-x="656" 
d="M-15 710h187l155 -249l155 249h189l-263 -412h-160zM237 82q0 38 26.5 64t63.5 26t63.5 -26t26.5 -64t-26.5 -64t-63.5 -26t-63.5 26t-26.5 64z" />
    <glyph glyph-name="A.ss05" horiz-adv-x="680" 
d="M340 159h107l-107 229l-182 -388h-168l350 718l350 -718h-350v159z" />
    <glyph glyph-name="E.ss05" horiz-adv-x="553" 
d="M235 355l-235 355h518v-158h-235l131 -197l-131 -197h235v-158h-518z" />
    <glyph glyph-name="F.ss05" horiz-adv-x="537" 
d="M97 432h78l-184 278h526v-158h-243l183 -274h-200v-278h-160v432z" />
    <glyph glyph-name="R.ss05" horiz-adv-x="616" 
d="M67 710h552l-180 -385l184 -325h-174l-183 323l112 241h-152v-564h-159v710z" />
    <glyph glyph-name="S.ss05" horiz-adv-x="540" 
d="M194 710h173l-130 -278h310l-200 -432h-173l128 278h-309z" />
    <glyph glyph-name="T.ss05" horiz-adv-x="621" 
d="M270 375l-288 335h620v-158h-278l109 -126v-426h-163v375z" />
    <glyph glyph-name="X.ss05" horiz-adv-x="766" 
d="M258 335l-246 375h744l-246 -375l257 -335h-201l-182 244l-182 -244h-201zM384 428l80 124h-160z" />
    <glyph glyph-name="h.ss05" horiz-adv-x="602" 
d="M59 710h151v-465l182 255h151v-500h-151v255l-182 -255h-151v710z" />
    <glyph glyph-name="m.ss05" horiz-adv-x="895" 
d="M372 0v245l-162 -245h-151v500h151v-244l162 244h151v-244l162 244h151v-500h-151v245l-162 -245h-151z" />
    <glyph glyph-name="n.ss05" horiz-adv-x="602" 
d="M59 500h151v-255l182 255h151v-500h-151v255l-182 -255h-151v500z" />
    <glyph glyph-name="r.ss05" horiz-adv-x="321" 
d="M56 399l209 109l67 -130l-125 -66v-312h-151v399z" />
    <glyph glyph-name="s.ss05" horiz-adv-x="540" 
d="M276 182h-288l226 318h180l-130 -182h288l-225 -318h-180z" />
    <glyph glyph-name="b.ss06" horiz-adv-x="621" 
d="M360 500h202v-500h-503v710h151v-560h201v200h-201z" />
    <glyph glyph-name="d.ss06" horiz-adv-x="621" 
d="M59 500h352v210h151v-710h-151v350h-201v-200h201l-150 -150h-202v500z" />
    <glyph glyph-name="f.ss06" horiz-adv-x="382" 
d="M101 500v210h267v-132h-116v-78h116v-132h-116v-368h-151v368h-132z" />
    <glyph glyph-name="h.ss06" horiz-adv-x="602" 
d="M59 710h151v-710h-151v710zM360 500h183v-500h-151v350h-182z" />
    <glyph glyph-name="j.ss06" horiz-adv-x="270" 
d="M59 710h152v-152h-152v152zM59 -41v541h152v-684h-295z" />
    <glyph glyph-name="l.ss06" horiz-adv-x="270" 
d="M59 566l152 152v-718h-152v566z" />
    <glyph glyph-name="m.ss06" horiz-adv-x="895" 
d="M59 500h151v-500h-151v500zM360 500h163v-500h-151v350h-162zM673 500h163v-500h-151v350h-162z" />
    <glyph glyph-name="n.ss06" horiz-adv-x="602" 
d="M59 500h151v-500h-151v500zM360 500h183v-500h-151v350h-182z" />
    <glyph glyph-name="p.ss06" horiz-adv-x="621" 
d="M360 500h202v-500h-352v-184h-151v684h151v-350h201v200h-201z" />
    <glyph glyph-name="q.ss06" horiz-adv-x="621" 
d="M411 350h-201v-200h201l-150 -150h-202v500h503v-684h-151v534z" />
    <glyph glyph-name="r.ss06" horiz-adv-x="392" 
d="M59 500h151v-500h-151v500zM360 500h18v-150h-168z" />
    <glyph glyph-name="t.ss06" horiz-adv-x="432" 
d="M257 651v-151h140v-132h-140v-230h140v-138h-291v368h-132z" />
    <glyph glyph-name="u.ss06" horiz-adv-x="602" 
d="M59 500h151v-350h182l-150 -150h-183v500zM392 500h151v-500h-151v500z" />
    <glyph glyph-name="B.ss07" horiz-adv-x="542" 
d="M67 147h219q32 0 53 20t21 50t-21 50.5t-53 20.5h-219v135h170q32 0 53 20t21 50t-21 50.5t-53 20.5h-170v146h188q87 0 149 -62t62 -149q0 -72 -50 -122q46 -25 73 -68t27 -98q0 -88 -62.5 -149.5t-152.5 -61.5h-234v147z" />
    <glyph glyph-name="D.ss07" horiz-adv-x="631" 
d="M67 146h169q88 0 144 61t56 148t-56 148t-144 61h-169v146h169q150 0 255.5 -104t105.5 -251t-105.5 -251t-255.5 -104h-169v146z" />
    <glyph glyph-name="E.ss07" horiz-adv-x="547" 
d="M67 710h440v-158h-440v158zM67 432h380v-154h-380v154zM67 158h440v-158h-440v158z" />
    <glyph glyph-name="F.ss07" horiz-adv-x="517" 
d="M67 710h420v-158h-420v158zM67 432h360v-154h-360v154z" />
    <glyph glyph-name="H.ss07" horiz-adv-x="658" 
d="M431 278h-364v154h364v278h160v-710h-160v278z" />
    <glyph glyph-name="K.ss07" horiz-adv-x="519" 
d="M67 343l256 367h184l-249 -357l281 -353h-198z" />
    <glyph glyph-name="P.ss07" horiz-adv-x="477" 
d="M67 377h152q38 0 64 27.5t26 64.5t-26 64t-64 27h-152v150h154q103 0 173 -70t70 -171t-70 -171t-173 -70h-154v149z" />
    <glyph glyph-name="R.ss07" horiz-adv-x="546" 
d="M67 423h172q32 0 53 20t21 50t-21 50.5t-53 20.5h-172v146h190q87 0 149 -62t62 -149q0 -66 -37.5 -120t-100.5 -78l231 -301h-191l-220 288h-83v135z" />
    <glyph glyph-name="T.ss07" horiz-adv-x="539" 
d="M19 710h501v-158h-501v158z" />
    <glyph glyph-name="Y.ss07" horiz-adv-x="656" 
d="M-15 710h187l155 -249l155 249h189l-263 -412h-160z" />
    <glyph glyph-name="A.ss08" horiz-adv-x="680" 
d="M340 718l350 -718h-168l-51 110h-251v-756q0 -11 -5 -15.5t-9.5 0t-4.5 15.5v739l-37 -80v-208q0 -11 -5 -15.5t-9.5 0t-4.5 15.5v195h-155zM407 240l-67 148l-67 -148h134z" />
    <glyph glyph-name="C.ss08" horiz-adv-x="709" 
d="M323 0q-125 26 -207 125.5t-82 229.5q0 150 106.5 256.5t256.5 106.5q90 0 168.5 -41.5t128.5 -112.5l-121 -99q-28 45 -74.5 72t-101.5 27h-9v-418h9q55 0 101.5 27t74.5 72l121 -99q-45 -63 -111.5 -103t-144.5 -48v-148q0 -11 -5 -15.5t-9.5 0t-4.5 15.5v146
q-8 -1 -22 -1q-2 0 -5 0.5t-4 0.5v-296q0 -11 -5 -15.5t-9.5 0t-4.5 15.5v296q-18 2 -27 4v-53q0 -11 -5 -15.5t-9.5 0t-4.5 15.5v56zM369 148v414q-23 -4 -27 -6v-403q19 -4 27 -5zM323 160v390q-58 -23 -93 -76.5t-35 -118.5q0 -66 35.5 -119t92.5 -76z" />
    <glyph glyph-name="D.ss08" horiz-adv-x="711" 
d="M67 710h249q150 0 255.5 -104t105.5 -251t-105.5 -251t-255.5 -104h-123v-646q0 -11 -4.5 -15.5t-9.5 0t-5 15.5v646h-20v-195q0 -11 -5 -15.5t-9.5 0t-4.5 15.5v195h-68v710zM316 146q88 0 144 61t56 148t-56 148t-144 61h-89v-418h89z" />
    <glyph glyph-name="E.ss08" horiz-adv-x="547" 
d="M67 710h440v-158h-280v-120h220v-154h-220v-120h280v-158h-304v-312q0 -11 -4.5 -15.5t-9.5 0t-5 15.5v312h-21v-112q0 -11 -4.5 -15.5t-9.5 0t-5 15.5v112h-29v-1012q0 -11 -4.5 -15.5t-9.5 0t-5 15.5v1012h-29v710z" />
    <glyph glyph-name="G.ss08" horiz-adv-x="729" 
d="M34 355q0 150 106.5 256.5t256.5 106.5q178 0 287 -134l-121 -99q-33 41 -71.5 60t-94.5 19q-85 0 -143.5 -61.5t-58.5 -147.5t58.5 -147.5t143.5 -61.5q33 0 57 4v130h-11v-27q0 -11 -4.5 -15.5t-9.5 0t-5 15.5v27h-15v-53q0 -11 -4.5 -15.5t-9.5 0t-5 15.5v53h-27
l68 150h258v-322q-80 -91 -216 -110v-566q0 -11 -4.5 -15.5t-9.5 0t-5 15.5v563q-28 -3 -57 -3q-150 0 -256.5 106.5t-106.5 256.5zM473 280v-126q34 7 61 27v99h-61z" />
    <glyph glyph-name="H.ss08" horiz-adv-x="738" 
d="M67 710h160v-278h284v278h160v-710h-160v278h-133v-1058q0 -11 -5 -15.5t-9.5 0t-4.5 15.5v1058h-31v-18q0 -11 -5 -15.5t-9.5 0t-4.5 15.5v18h-82v-278h-27v-244q0 -11 -5 -15.5t-9.5 0t-4.5 15.5v244h-23v-80q0 -11 -5 -15.5t-9.5 0t-4.5 15.5v80h-72v710z" />
    <glyph glyph-name="M.ss08" horiz-adv-x="842" 
d="M67 718l354 -355l354 355v-718h-160v348l-183 -183v-812q0 -11 -5 -15.5t-9.5 0t-4.5 15.5v809l-11 11v-239q0 -11 -5 -15.5t-9.5 0t-4.5 15.5v258l-15 15v-29q0 -11 -5 -15.5t-9.5 0t-4.5 15.5v48l-122 122v-348h-160v718z" />
    <glyph glyph-name="N.ss08" horiz-adv-x="742" 
d="M595 -119v178l-30 26v-607q0 -11 -4.5 -15.5t-9.5 0t-5 15.5v623l-319 270v-371h-160v718l448 -379v371h160v-718l-61 51v-162q0 -11 -5 -15.5t-9.5 0t-4.5 15.5z" />
    <glyph glyph-name="O.ss08" horiz-adv-x="794" 
d="M582 43l-29 -16v-1019q0 -11 -4.5 -15.5t-9.5 0t-5 15.5v1011q-64 -27 -137 -27q-75 0 -144 30v-354q0 -11 -4.5 -15.5t-9.5 0t-5 15.5v363q-91 46 -145.5 132.5t-54.5 191.5q0 150 106.5 256.5t256.5 106.5t256.5 -106.5t106.5 -256.5q0 -92 -43 -171t-116 -129v-87
q0 -11 -4.5 -15.5t-9.5 0t-5 15.5v75zM599 355q0 86 -58.5 147.5t-143.5 61.5t-143.5 -61.5t-58.5 -147.5t58.5 -147.5t143.5 -61.5t143.5 61.5t58.5 147.5z" />
    <glyph glyph-name="Q.ss08" horiz-adv-x="814" 
d="M697 17l-70 57q-99 -82 -230 -82q-119 0 -214 70v-394q0 -11 -4.5 -15.5t-9.5 0t-5 15.5v409q-61 50 -95.5 122.5t-34.5 155.5q0 150 106.5 256.5t256.5 106.5t256.5 -106.5t106.5 -256.5q0 -91 -42 -170l101 -81l-55 -68v-68q0 -11 -5 -15.5t-9.5 0t-4.5 15.5v45
l-17 -21l-12 9v-993q0 -11 -5 -15.5t-9.5 0t-4.5 15.5v1009zM502 175l-108 88l91 111l104 -84q10 33 10 65q0 86 -58.5 147.5t-143.5 61.5t-143.5 -61.5t-58.5 -147.5t58.5 -147.5t143.5 -61.5q59 0 105 29z" />
    <glyph glyph-name="R.ss08" horiz-adv-x="625" 
d="M207 0h-24v-213q0 -11 -4.5 -15.5t-9.5 0t-5 15.5v213h-97v710h268q87 0 149 -62t62 -149q0 -66 -37.5 -120t-99.5 -78l231 -301h-191l-220 288h-2v-288h-1v-36q0 -11 -5 -15.5t-9.5 0t-4.5 15.5v36zM317 423q32 0 53 20t21 50t-21 50.5t-53 20.5h-90v-141h90z" />
    <glyph glyph-name="S.ss08" horiz-adv-x="520" 
d="M394 21l-24 -12v-222q0 -11 -5 -15.5t-9.5 0t-4.5 15.5v216q-39 -11 -79 -11q-86 0 -150 34v-600q0 -11 -5 -15.5t-9.5 0t-4.5 15.5v611q-55 35 -86 94l121 99q24 -38 59.5 -63t71.5 -25q68 0 68 51q0 24 -18.5 41t-64.5 38l-40 18q-80 36 -123 93.5t-43 129.5
q0 90 64 147.5t152 57.5q63 0 109.5 -19.5t89.5 -69.5l-108 -114q-26 32 -45.5 42.5t-45.5 10.5q-22 0 -38.5 -13t-16.5 -36q0 -26 21.5 -44.5t74.5 -41.5l38 -17q155 -70 155 -213q0 -112 -85 -171v-68q0 -11 -4.5 -15.5t-9.5 0t-5 15.5v57z" />
    <glyph glyph-name="U.ss08" horiz-adv-x="702" 
d="M179 -40v82q-56 38 -87.5 101.5t-31.5 144.5v422h160v-424q0 -64 36 -102t95 -38t95 38t36 102v424h160v-422q0 -102 -51 -178v-166q0 -11 -4.5 -15.5t-9.5 0t-5 15.5v142q-81 -94 -221 -94q-56 0 -110 18v-256q0 -11 -4.5 -15.5t-9.5 0t-5 15.5v264q-9 3 -24 12v-70
q0 -11 -5 -15.5t-9.5 0t-4.5 15.5z" />
    <glyph glyph-name="a.ss08" horiz-adv-x="594" 
d="M384 -74v103q-45 -37 -110 -37q-108 0 -175 76t-67 182t67 182t175 76q64 0 110 -38v30h151v-500h-92v-414q0 -11 -4.5 -15.5t-9.5 0t-5 15.5v414h-21v-74q0 -11 -4.5 -15.5t-9.5 0t-5 15.5zM384 171v157q-33 42 -85 42t-83.5 -34.5t-31.5 -85.5t31.5 -85.5t83.5 -34.5
q53 0 85 41z" />
    <glyph glyph-name="b.ss08" horiz-adv-x="594" 
d="M59 710h151v-240q46 38 110 38q108 0 175 -76t67 -182q0 -105 -65 -180t-170 -78v-64q0 -11 -4.5 -15.5t-9.5 0t-5 15.5v64q-60 5 -98 37v-29h-13v-412q0 -11 -4.5 -15.5t-9.5 0t-5 15.5v412h-15v-112q0 -11 -4.5 -15.5t-9.5 0t-5 15.5v112h-85v710zM210 328v-157
q30 -41 85 -41q52 0 83.5 34.5t31.5 85.5t-31.5 85.5t-83.5 34.5q-54 0 -85 -42z" />
    <glyph glyph-name="c.ss08" horiz-adv-x="522" 
d="M276 -7q-104 5 -175 79.5t-71 177.5q0 107 76 182.5t184 75.5q68 0 126 -32t93 -86l-120 -85q-34 62 -99 62q-47 0 -77.5 -33t-30.5 -84t30.5 -84t77.5 -33q65 0 99 62l120 -85q-55 -85 -154 -110v-109q0 -11 -4.5 -15.5t-9.5 0t-5 15.5v105q-2 0 -5.5 -0.5t-4.5 -0.5
v-17q0 -11 -5 -15.5t-9.5 0t-4.5 15.5v15q-4 -1 -12 -1v-304q0 -11 -4.5 -15.5t-9.5 0t-5 15.5v305z" />
    <glyph glyph-name="e.ss08" horiz-adv-x="558" 
d="M189 10q-70 29 -114.5 92.5t-44.5 147.5q0 111 72 184.5t186 73.5q101 0 171 -64t70 -177q0 -21 -3 -44h-52v-86l37 -25q-16 -26 -37 -46v-857q0 -11 -5 -15.5t-9.5 0t-4.5 15.5v840q-71 -57 -170 -57q-11 0 -33 2v-181q0 -11 -5 -15.5t-9.5 0t-4.5 15.5v185q-22 5 -25 6
v-128q0 -11 -5 -15.5t-9.5 0t-4.5 15.5v134zM176 311h133v73q-15 3 -30 3q-33 0 -63.5 -17.5t-39.5 -58.5zM328 378v-67h52q-7 49 -52 67zM309 223h-134q5 -46 37.5 -69.5t71.5 -23.5q73 0 107 63l64 -43v73h-127v-38q0 -11 -5 -15.5t-9.5 0t-4.5 15.5v38z" />
    <glyph glyph-name="f.ss08" horiz-adv-x="362" 
d="M317 578h-21v-78h52v-132h-52v-903q0 -11 -5 -15.5t-9.5 0t-4.5 15.5v903h-45v-368h-151v368h-65v132h73q-31 34 -31 83q0 55 37 91t98 36h155v-132h-12v-23q0 -11 -5 -15.5t-9.5 0t-4.5 15.5v23zM240 500h37v78h-27q-49 0 -49 -39q0 -17 11.5 -28t27.5 -11z" />
    <glyph glyph-name="g.ss08" horiz-adv-x="583" 
d="M197 36q-80 20 -125.5 85.5t-45.5 146.5q0 97 64 168.5t172 71.5q64 0 110 -38v30h151v-403q21 -49 21 -98q0 -66 -38.5 -110.5t-94 -63t-124.5 -19.5v-268q0 -11 -4.5 -15.5t-9.5 0t-5 15.5v268q-131 4 -211 56l68 133q64 -50 143 -51v84h-6q-27 0 -46 4v-16
q0 -11 -5 -15.5t-9.5 0t-4.5 15.5v20zM372 208v120q-34 42 -90 42q-48 0 -76 -30.5t-28 -71.5t28 -71.5t76 -30.5q56 0 90 42zM287 29v-84q99 5 99 79q0 24 -13 42q-35 -29 -86 -37z" />
    <glyph glyph-name="i.ss08" horiz-adv-x="270" 
d="M45 628q0 38 26.5 64t63.5 26t63.5 -26t26.5 -64q0 -34 -20 -57h-29v-71h34v-500h-34v-266q0 -11 -5 -15.5t-9.5 0t-4.5 15.5v266h-31v-466q0 -11 -5 -15.5t-9.5 0t-4.5 15.5v466h-48v500h98v71h-11v-16q0 -11 -5 -15.5t-9.5 0t-4.5 15.5v16h-15v-42q0 -11 -5 -15.5
t-9.5 0t-4.5 15.5v42h-28q-20 23 -20 57z" />
    <glyph glyph-name="k.ss08" horiz-adv-x="561" 
d="M455 -341v341h-60l-185 249v-373q0 -11 -5 -15.5t-9.5 0t-4.5 15.5v124h-132v710h151v-438l163 228h174l-73 -102v-265l99 -133h-99v-341q0 -11 -5 -15.5t-9.5 0t-4.5 15.5zM455 158v213l-78 -108z" />
    </font>
</defs>
</svg>
